<svg width="103" height="71" viewBox="0 0 103 71" fill="none" xmlns="http://www.w3.org/2000/svg">
<mask id="path-1-outside-1_176_768" maskUnits="userSpaceOnUse" x="29.5" y="0" width="73" height="71" fill="black">
<rect fill="white" x="29.5" width="73" height="71"/>
<path d="M37.5732 1C33.6742 1 30.5 4.14625 30.5 8.04453V50.3744C30.5 54.2728 33.6742 57.4397 37.5732 57.4397H58.709C59.2053 57.4416 59.6116 57.0425 59.6097 56.5466V48.7621C60.0345 48.8567 60.4361 49.0268 60.8734 49.0268C64.2555 49.0268 67.0249 46.2577 67.0249 42.8761C67.0249 39.4945 64.2555 36.7323 60.8734 36.7323C60.4361 36.7323 60.0345 36.8983 59.6097 36.9902V30.1343H67.6604C68.3254 30.1614 68.7758 29.4684 68.4983 28.8631C68.2644 28.324 68.1352 27.7443 68.1352 27.1525C68.1352 24.737 70.0691 22.796 72.4852 22.796C74.9014 22.796 76.8423 24.737 76.8423 27.1525C76.8423 27.7456 76.7355 28.3213 76.5002 28.8631C76.228 29.4576 76.6635 30.137 77.3171 30.1343L86.0521 30.1073C86.5484 30.1092 86.9478 29.702 86.9459 29.2062V8.04473C86.9459 4.14645 83.7717 1.00021 79.8727 1.00021L37.5732 1ZM37.5732 2.76629H57.8432V9.60134C57.4812 9.53378 57.1323 9.39208 56.7609 9.39208C53.3788 9.39208 50.6093 12.1614 50.6093 15.5428C50.6093 18.9244 53.3787 21.6868 56.7609 21.6868C57.1331 21.6868 57.4804 21.5435 57.8432 21.4773V28.3122H49.974C49.3261 28.2987 48.8776 28.9582 49.1291 29.5554C49.364 30.1013 49.4992 30.6728 49.4992 31.2658C49.4992 33.6813 47.5652 35.6223 45.1491 35.6223C42.733 35.6223 40.7921 33.6813 40.7921 31.2658C40.7921 30.6727 40.9002 30.0957 41.1342 29.5554C41.3811 28.969 40.954 28.3162 40.3173 28.3122H32.2945V8.04453C32.2945 5.10558 34.6335 2.76629 37.5732 2.76629ZM59.6097 2.76629H79.8727C82.8124 2.76629 85.1514 5.10558 85.1514 8.04453V28.3122L78.3994 28.3392C78.4791 27.9406 78.6368 27.561 78.6368 27.1516C78.6368 23.7702 75.8674 21.0007 72.4853 21.0007C69.1032 21.0007 66.3408 23.7702 66.3408 27.1516C66.3408 27.5597 66.4978 27.9392 66.5782 28.3392H59.6376V20.3943C59.633 19.7579 58.9814 19.3296 58.3948 19.5768C57.868 19.789 57.3229 19.8902 56.7609 19.8902C54.3448 19.8902 52.4039 17.9559 52.4039 15.5406C52.4039 13.1251 54.3448 11.1841 56.7609 11.1841C57.3228 11.1841 57.8682 11.2923 58.3948 11.4977C58.9819 11.745 59.634 11.3167 59.6376 10.6802L59.6097 2.76629ZM32.2945 30.1065H39.235C39.158 30.497 38.9976 30.8672 38.9976 31.2658C38.9976 34.6473 41.767 37.4168 45.1491 37.4168C48.5312 37.4168 51.2936 34.6473 51.2936 31.2658C51.2936 30.8659 51.1331 30.4957 51.0562 30.1065H57.8152V38.1007C57.8105 38.7546 58.4845 39.1911 59.0791 38.9182C59.6449 38.6614 60.2526 38.5277 60.8736 38.5277C63.2897 38.5277 65.2306 40.4619 65.2306 42.8773C65.2306 45.2928 63.2897 47.2337 60.8736 47.2337C60.2527 47.2337 59.6455 47.0932 59.0791 46.8364C58.4845 46.5635 57.8105 47 57.8152 47.6539L57.8436 55.6549H37.5736C34.6339 55.6549 32.2949 53.3158 32.2949 50.3769L32.2945 30.1065ZM90.5628 32.7738C88.3832 32.7197 86.2374 33.8181 85.0746 35.8315C84.8714 36.1828 84.8056 36.5868 84.6767 36.9692L77.8688 33.0387C77.6684 32.9288 77.4335 32.8998 77.2124 32.9577C77.0976 32.9841 76.9892 33.0328 76.8933 33.1012C76.7975 33.1696 76.7161 33.2563 76.6538 33.3562L72.199 41.057C72.1212 41.1885 72.0784 41.3378 72.0747 41.4906C72.071 41.6434 72.1066 41.7948 72.178 41.9299C72.2495 42.0651 72.3544 42.1795 72.4828 42.2625C72.6112 42.3455 72.7587 42.3944 72.9112 42.4041C73.5159 42.4582 74.0839 42.6447 74.6219 42.9554C76.7141 44.1634 77.4428 46.8049 76.2349 48.8965C75.027 50.9881 72.364 51.71 70.2719 50.5024C69.7353 50.193 69.2858 49.7715 68.9242 49.2662C68.8369 49.1434 68.7199 49.0447 68.5841 48.9792C68.4484 48.9137 68.2983 48.8835 68.1478 48.8916C67.9973 48.8997 67.8513 48.9457 67.7234 49.0254C67.5954 49.105 67.4897 49.2158 67.416 49.3472L62.9613 57.027C62.8459 57.2335 62.8171 57.4774 62.8813 57.7051C62.9454 57.9328 63.0972 58.1258 63.3034 58.2417L81.6462 68.8469C85.0221 70.7957 89.3532 69.6414 91.3029 66.2637L101.888 47.923C102.003 47.7156 102.031 47.471 101.965 47.2432C101.9 47.0154 101.746 46.823 101.539 46.7082L94.8918 42.8822C95.1603 42.5782 95.5039 42.3445 95.7087 41.9891C97.4 39.0604 96.3966 35.2881 93.4674 33.5972C92.552 33.0689 91.5535 32.7994 90.5628 32.7738ZM90.4993 34.5539C91.2028 34.5809 91.9123 34.7701 92.5661 35.147C94.6582 36.355 95.359 38.9897 94.1511 41.0813C93.8557 41.5934 93.4598 42.0528 92.992 42.4015C92.8751 42.4895 92.7815 42.6049 92.7196 42.7375C92.6576 42.8701 92.6292 43.0159 92.6368 43.162C92.6444 43.3082 92.6878 43.4503 92.7632 43.5758C92.8385 43.7013 92.9436 43.8064 93.069 43.8818L99.8769 47.8125L89.7454 65.3572C88.2757 67.9032 85.0862 68.7543 82.5396 67.2841L64.9648 57.1538L68.4211 51.1634C68.7477 51.462 69.0131 51.8336 69.3987 52.0565C72.328 53.7475 76.1003 52.716 77.7916 49.7876C79.4828 46.8589 78.4515 43.0936 75.5223 41.4027C75.1464 41.1852 74.7174 41.1366 74.3073 41.0042L77.7636 35.0417L84.732 39.0771C84.8608 39.148 85.005 39.1862 85.152 39.188C85.299 39.1899 85.4441 39.1557 85.5746 39.088C85.7051 39.0204 85.8169 38.9216 85.9002 38.8004C85.9834 38.6793 86.0354 38.5395 86.0517 38.3934C86.1193 37.8151 86.3075 37.2436 86.6033 36.7319C87.4337 35.2944 88.9513 34.5086 90.4993 34.5539Z"/>
</mask>
<path d="M37.5732 1C33.6742 1 30.5 4.14625 30.5 8.04453V50.3744C30.5 54.2728 33.6742 57.4397 37.5732 57.4397H58.709C59.2053 57.4416 59.6116 57.0425 59.6097 56.5466V48.7621C60.0345 48.8567 60.4361 49.0268 60.8734 49.0268C64.2555 49.0268 67.0249 46.2577 67.0249 42.8761C67.0249 39.4945 64.2555 36.7323 60.8734 36.7323C60.4361 36.7323 60.0345 36.8983 59.6097 36.9902V30.1343H67.6604C68.3254 30.1614 68.7758 29.4684 68.4983 28.8631C68.2644 28.324 68.1352 27.7443 68.1352 27.1525C68.1352 24.737 70.0691 22.796 72.4852 22.796C74.9014 22.796 76.8423 24.737 76.8423 27.1525C76.8423 27.7456 76.7355 28.3213 76.5002 28.8631C76.228 29.4576 76.6635 30.137 77.3171 30.1343L86.0521 30.1073C86.5484 30.1092 86.9478 29.702 86.9459 29.2062V8.04473C86.9459 4.14645 83.7717 1.00021 79.8727 1.00021L37.5732 1ZM37.5732 2.76629H57.8432V9.60134C57.4812 9.53378 57.1323 9.39208 56.7609 9.39208C53.3788 9.39208 50.6093 12.1614 50.6093 15.5428C50.6093 18.9244 53.3787 21.6868 56.7609 21.6868C57.1331 21.6868 57.4804 21.5435 57.8432 21.4773V28.3122H49.974C49.3261 28.2987 48.8776 28.9582 49.1291 29.5554C49.364 30.1013 49.4992 30.6728 49.4992 31.2658C49.4992 33.6813 47.5652 35.6223 45.1491 35.6223C42.733 35.6223 40.7921 33.6813 40.7921 31.2658C40.7921 30.6727 40.9002 30.0957 41.1342 29.5554C41.3811 28.969 40.954 28.3162 40.3173 28.3122H32.2945V8.04453C32.2945 5.10558 34.6335 2.76629 37.5732 2.76629ZM59.6097 2.76629H79.8727C82.8124 2.76629 85.1514 5.10558 85.1514 8.04453V28.3122L78.3994 28.3392C78.4791 27.9406 78.6368 27.561 78.6368 27.1516C78.6368 23.7702 75.8674 21.0007 72.4853 21.0007C69.1032 21.0007 66.3408 23.7702 66.3408 27.1516C66.3408 27.5597 66.4978 27.9392 66.5782 28.3392H59.6376V20.3943C59.633 19.7579 58.9814 19.3296 58.3948 19.5768C57.868 19.789 57.3229 19.8902 56.7609 19.8902C54.3448 19.8902 52.4039 17.9559 52.4039 15.5406C52.4039 13.1251 54.3448 11.1841 56.7609 11.1841C57.3228 11.1841 57.8682 11.2923 58.3948 11.4977C58.9819 11.745 59.634 11.3167 59.6376 10.6802L59.6097 2.76629ZM32.2945 30.1065H39.235C39.158 30.497 38.9976 30.8672 38.9976 31.2658C38.9976 34.6473 41.767 37.4168 45.1491 37.4168C48.5312 37.4168 51.2936 34.6473 51.2936 31.2658C51.2936 30.8659 51.1331 30.4957 51.0562 30.1065H57.8152V38.1007C57.8105 38.7546 58.4845 39.1911 59.0791 38.9182C59.6449 38.6614 60.2526 38.5277 60.8736 38.5277C63.2897 38.5277 65.2306 40.4619 65.2306 42.8773C65.2306 45.2928 63.2897 47.2337 60.8736 47.2337C60.2527 47.2337 59.6455 47.0932 59.0791 46.8364C58.4845 46.5635 57.8105 47 57.8152 47.6539L57.8436 55.6549H37.5736C34.6339 55.6549 32.2949 53.3158 32.2949 50.3769L32.2945 30.1065ZM90.5628 32.7738C88.3832 32.7197 86.2374 33.8181 85.0746 35.8315C84.8714 36.1828 84.8056 36.5868 84.6767 36.9692L77.8688 33.0387C77.6684 32.9288 77.4335 32.8998 77.2124 32.9577C77.0976 32.9841 76.9892 33.0328 76.8933 33.1012C76.7975 33.1696 76.7161 33.2563 76.6538 33.3562L72.199 41.057C72.1212 41.1885 72.0784 41.3378 72.0747 41.4906C72.071 41.6434 72.1066 41.7948 72.178 41.9299C72.2495 42.0651 72.3544 42.1795 72.4828 42.2625C72.6112 42.3455 72.7587 42.3944 72.9112 42.4041C73.5159 42.4582 74.0839 42.6447 74.6219 42.9554C76.7141 44.1634 77.4428 46.8049 76.2349 48.8965C75.027 50.9881 72.364 51.71 70.2719 50.5024C69.7353 50.193 69.2858 49.7715 68.9242 49.2662C68.8369 49.1434 68.7199 49.0447 68.5841 48.9792C68.4484 48.9137 68.2983 48.8835 68.1478 48.8916C67.9973 48.8997 67.8513 48.9457 67.7234 49.0254C67.5954 49.105 67.4897 49.2158 67.416 49.3472L62.9613 57.027C62.8459 57.2335 62.8171 57.4774 62.8813 57.7051C62.9454 57.9328 63.0972 58.1258 63.3034 58.2417L81.6462 68.8469C85.0221 70.7957 89.3532 69.6414 91.3029 66.2637L101.888 47.923C102.003 47.7156 102.031 47.471 101.965 47.2432C101.9 47.0154 101.746 46.823 101.539 46.7082L94.8918 42.8822C95.1603 42.5782 95.5039 42.3445 95.7087 41.9891C97.4 39.0604 96.3966 35.2881 93.4674 33.5972C92.552 33.0689 91.5535 32.7994 90.5628 32.7738ZM90.4993 34.5539C91.2028 34.5809 91.9123 34.7701 92.5661 35.147C94.6582 36.355 95.359 38.9897 94.1511 41.0813C93.8557 41.5934 93.4598 42.0528 92.992 42.4015C92.8751 42.4895 92.7815 42.6049 92.7196 42.7375C92.6576 42.8701 92.6292 43.0159 92.6368 43.162C92.6444 43.3082 92.6878 43.4503 92.7632 43.5758C92.8385 43.7013 92.9436 43.8064 93.069 43.8818L99.8769 47.8125L89.7454 65.3572C88.2757 67.9032 85.0862 68.7543 82.5396 67.2841L64.9648 57.1538L68.4211 51.1634C68.7477 51.462 69.0131 51.8336 69.3987 52.0565C72.328 53.7475 76.1003 52.716 77.7916 49.7876C79.4828 46.8589 78.4515 43.0936 75.5223 41.4027C75.1464 41.1852 74.7174 41.1366 74.3073 41.0042L77.7636 35.0417L84.732 39.0771C84.8608 39.148 85.005 39.1862 85.152 39.188C85.299 39.1899 85.4441 39.1557 85.5746 39.088C85.7051 39.0204 85.8169 38.9216 85.9002 38.8004C85.9834 38.6793 86.0354 38.5395 86.0517 38.3934C86.1193 37.8151 86.3075 37.2436 86.6033 36.7319C87.4337 35.2944 88.9513 34.5086 90.4993 34.5539Z" fill="#0BAA4B"/>
<path d="M37.5732 1C33.6742 1 30.5 4.14625 30.5 8.04453V50.3744C30.5 54.2728 33.6742 57.4397 37.5732 57.4397H58.709C59.2053 57.4416 59.6116 57.0425 59.6097 56.5466V48.7621C60.0345 48.8567 60.4361 49.0268 60.8734 49.0268C64.2555 49.0268 67.0249 46.2577 67.0249 42.8761C67.0249 39.4945 64.2555 36.7323 60.8734 36.7323C60.4361 36.7323 60.0345 36.8983 59.6097 36.9902V30.1343H67.6604C68.3254 30.1614 68.7758 29.4684 68.4983 28.8631C68.2644 28.324 68.1352 27.7443 68.1352 27.1525C68.1352 24.737 70.0691 22.796 72.4852 22.796C74.9014 22.796 76.8423 24.737 76.8423 27.1525C76.8423 27.7456 76.7355 28.3213 76.5002 28.8631C76.228 29.4576 76.6635 30.137 77.3171 30.1343L86.0521 30.1073C86.5484 30.1092 86.9478 29.702 86.9459 29.2062V8.04473C86.9459 4.14645 83.7717 1.00021 79.8727 1.00021L37.5732 1ZM37.5732 2.76629H57.8432V9.60134C57.4812 9.53378 57.1323 9.39208 56.7609 9.39208C53.3788 9.39208 50.6093 12.1614 50.6093 15.5428C50.6093 18.9244 53.3787 21.6868 56.7609 21.6868C57.1331 21.6868 57.4804 21.5435 57.8432 21.4773V28.3122H49.974C49.3261 28.2987 48.8776 28.9582 49.1291 29.5554C49.364 30.1013 49.4992 30.6728 49.4992 31.2658C49.4992 33.6813 47.5652 35.6223 45.1491 35.6223C42.733 35.6223 40.7921 33.6813 40.7921 31.2658C40.7921 30.6727 40.9002 30.0957 41.1342 29.5554C41.3811 28.969 40.954 28.3162 40.3173 28.3122H32.2945V8.04453C32.2945 5.10558 34.6335 2.76629 37.5732 2.76629ZM59.6097 2.76629H79.8727C82.8124 2.76629 85.1514 5.10558 85.1514 8.04453V28.3122L78.3994 28.3392C78.4791 27.9406 78.6368 27.561 78.6368 27.1516C78.6368 23.7702 75.8674 21.0007 72.4853 21.0007C69.1032 21.0007 66.3408 23.7702 66.3408 27.1516C66.3408 27.5597 66.4978 27.9392 66.5782 28.3392H59.6376V20.3943C59.633 19.7579 58.9814 19.3296 58.3948 19.5768C57.868 19.789 57.3229 19.8902 56.7609 19.8902C54.3448 19.8902 52.4039 17.9559 52.4039 15.5406C52.4039 13.1251 54.3448 11.1841 56.7609 11.1841C57.3228 11.1841 57.8682 11.2923 58.3948 11.4977C58.9819 11.745 59.634 11.3167 59.6376 10.6802L59.6097 2.76629ZM32.2945 30.1065H39.235C39.158 30.497 38.9976 30.8672 38.9976 31.2658C38.9976 34.6473 41.767 37.4168 45.1491 37.4168C48.5312 37.4168 51.2936 34.6473 51.2936 31.2658C51.2936 30.8659 51.1331 30.4957 51.0562 30.1065H57.8152V38.1007C57.8105 38.7546 58.4845 39.1911 59.0791 38.9182C59.6449 38.6614 60.2526 38.5277 60.8736 38.5277C63.2897 38.5277 65.2306 40.4619 65.2306 42.8773C65.2306 45.2928 63.2897 47.2337 60.8736 47.2337C60.2527 47.2337 59.6455 47.0932 59.0791 46.8364C58.4845 46.5635 57.8105 47 57.8152 47.6539L57.8436 55.6549H37.5736C34.6339 55.6549 32.2949 53.3158 32.2949 50.3769L32.2945 30.1065ZM90.5628 32.7738C88.3832 32.7197 86.2374 33.8181 85.0746 35.8315C84.8714 36.1828 84.8056 36.5868 84.6767 36.9692L77.8688 33.0387C77.6684 32.9288 77.4335 32.8998 77.2124 32.9577C77.0976 32.9841 76.9892 33.0328 76.8933 33.1012C76.7975 33.1696 76.7161 33.2563 76.6538 33.3562L72.199 41.057C72.1212 41.1885 72.0784 41.3378 72.0747 41.4906C72.071 41.6434 72.1066 41.7948 72.178 41.9299C72.2495 42.0651 72.3544 42.1795 72.4828 42.2625C72.6112 42.3455 72.7587 42.3944 72.9112 42.4041C73.5159 42.4582 74.0839 42.6447 74.6219 42.9554C76.7141 44.1634 77.4428 46.8049 76.2349 48.8965C75.027 50.9881 72.364 51.71 70.2719 50.5024C69.7353 50.193 69.2858 49.7715 68.9242 49.2662C68.8369 49.1434 68.7199 49.0447 68.5841 48.9792C68.4484 48.9137 68.2983 48.8835 68.1478 48.8916C67.9973 48.8997 67.8513 48.9457 67.7234 49.0254C67.5954 49.105 67.4897 49.2158 67.416 49.3472L62.9613 57.027C62.8459 57.2335 62.8171 57.4774 62.8813 57.7051C62.9454 57.9328 63.0972 58.1258 63.3034 58.2417L81.6462 68.8469C85.0221 70.7957 89.3532 69.6414 91.3029 66.2637L101.888 47.923C102.003 47.7156 102.031 47.471 101.965 47.2432C101.9 47.0154 101.746 46.823 101.539 46.7082L94.8918 42.8822C95.1603 42.5782 95.5039 42.3445 95.7087 41.9891C97.4 39.0604 96.3966 35.2881 93.4674 33.5972C92.552 33.0689 91.5535 32.7994 90.5628 32.7738ZM90.4993 34.5539C91.2028 34.5809 91.9123 34.7701 92.5661 35.147C94.6582 36.355 95.359 38.9897 94.1511 41.0813C93.8557 41.5934 93.4598 42.0528 92.992 42.4015C92.8751 42.4895 92.7815 42.6049 92.7196 42.7375C92.6576 42.8701 92.6292 43.0159 92.6368 43.162C92.6444 43.3082 92.6878 43.4503 92.7632 43.5758C92.8385 43.7013 92.9436 43.8064 93.069 43.8818L99.8769 47.8125L89.7454 65.3572C88.2757 67.9032 85.0862 68.7543 82.5396 67.2841L64.9648 57.1538L68.4211 51.1634C68.7477 51.462 69.0131 51.8336 69.3987 52.0565C72.328 53.7475 76.1003 52.716 77.7916 49.7876C79.4828 46.8589 78.4515 43.0936 75.5223 41.4027C75.1464 41.1852 74.7174 41.1366 74.3073 41.0042L77.7636 35.0417L84.732 39.0771C84.8608 39.148 85.005 39.1862 85.152 39.188C85.299 39.1899 85.4441 39.1557 85.5746 39.088C85.7051 39.0204 85.8169 38.9216 85.9002 38.8004C85.9834 38.6793 86.0354 38.5395 86.0517 38.3934C86.1193 37.8151 86.3075 37.2436 86.6033 36.7319C87.4337 35.2944 88.9513 34.5086 90.4993 34.5539Z" stroke="#0BAA4B" stroke-width="0.6" mask="url(#path-1-outside-1_176_768)"/>
</svg>
