<svg width="96" height="75" viewBox="0 0 96 75" fill="none" xmlns="http://www.w3.org/2000/svg">
<path fill-rule="evenodd" clip-rule="evenodd" d="M57.7923 0C55.9876 0 54.1829 0.129857 52.3915 0.392912C51.7056 0.492807 51.1429 0.985606 50.9464 1.65159L49.5546 6.40645C46.8309 7.13233 44.2137 8.22116 41.773 9.63302L37.4309 7.24889C36.8216 6.91592 36.0758 6.96587 35.5163 7.37875C32.6162 9.53979 30.0389 12.1137 27.8779 15.0172C27.465 15.5732 27.4117 16.3224 27.7481 16.9318L30.1322 21.2738C28.717 23.7145 27.6315 26.3317 26.9056 29.0588C26.9056 29.0554 22.1508 30.4473 22.1508 30.4473C21.4848 30.6437 20.992 31.2064 20.8921 31.8924C20.3693 35.4751 20.3693 39.1113 20.8921 42.6942C20.992 43.3801 21.4848 43.9428 22.1508 44.1393L26.9056 45.5311C27.6315 48.2548 28.7203 50.872 30.1322 53.3127L27.7481 57.6547C27.4151 58.2641 27.465 59.0099 27.8779 59.5694C30.039 62.4695 32.6128 65.0468 35.5163 67.2078C36.0724 67.6207 36.8215 67.6739 37.4309 67.3376L41.773 64.9535C44.2137 66.3687 46.8309 67.4542 49.5579 68.1801C49.5546 68.1801 50.9464 72.9349 50.9464 72.9349C51.1429 73.6009 51.7056 74.0937 52.3915 74.1936C55.9743 74.7164 59.6105 74.7164 63.1933 74.1936C63.8793 74.0937 64.442 73.6009 64.6384 72.9349L66.0303 68.1801C68.754 67.4542 71.3712 66.3654 73.8119 64.9535L78.1539 67.3376C78.7633 67.6706 79.5091 67.6207 80.0685 67.2078C82.9687 65.0467 85.546 62.4729 87.7069 59.5694C88.1198 59.0133 88.1731 58.2641 87.8368 57.6547L85.4527 53.3127C86.8679 50.872 87.9533 48.2548 88.6792 45.5278C88.6792 45.5311 93.4341 44.1393 93.4341 44.1393C94.1 43.9428 94.5929 43.3801 94.6928 42.6942C95.2155 39.1114 95.2155 35.4752 94.6928 31.8924C94.5929 31.2064 94.1001 30.6437 93.4341 30.4473L88.6792 29.0554C87.9534 26.3317 86.8645 23.7145 85.4527 21.2738L87.8368 16.9318C88.1698 16.3224 88.1198 15.5766 87.7069 15.0172C85.5459 12.117 82.972 9.53971 80.0685 7.37875C79.5125 6.96586 78.7633 6.91258 78.1539 7.24889L73.8119 9.63302C71.3712 8.21783 68.754 7.13237 66.0269 6.40645C66.0303 6.40645 64.6384 1.65159 64.6384 1.65159C64.442 0.98564 63.8793 0.492816 63.1933 0.392912C61.4019 0.129865 59.597 0 57.7923 0ZM57.7923 3.55287C59.0477 3.55287 60.3063 3.62279 61.555 3.76264L62.9035 8.38103C63.0833 8.99704 63.5828 9.4665 64.2054 9.61303C67.2554 10.3189 70.169 11.5276 72.8259 13.1858C73.372 13.5255 74.0579 13.5421 74.6206 13.2325L78.8428 10.9216C80.8073 12.4899 82.5953 14.2747 84.1637 16.2426C84.167 16.2426 81.8529 20.4647 81.8529 20.4647C81.5432 21.0274 81.5632 21.7133 81.8995 22.2595C83.5577 24.9166 84.7664 27.8302 85.4723 30.8799C85.6155 31.5059 86.0883 32.0054 86.7043 32.1818L91.3227 33.5304C91.6057 36.031 91.6057 38.5549 91.3227 41.0556L86.7043 42.4041C86.0883 42.5839 85.6189 43.0834 85.4723 43.706C84.7664 46.756 83.5577 49.6696 81.8995 52.3265C81.5599 52.8725 81.5432 53.5585 81.8529 54.1212L84.1637 58.3433C82.5954 60.3079 80.8106 62.0959 78.8428 63.6643C78.8428 63.6676 74.6206 61.3535 74.6206 61.3535C74.0579 61.0438 73.372 61.0638 72.8259 61.4001C70.1687 63.0583 67.2552 64.267 64.2054 64.9729C63.5794 65.1161 63.08 65.5889 62.9035 66.2049L61.555 70.8233C59.0543 71.1063 56.5304 71.1063 54.0298 70.8233L52.6813 66.2049C52.5014 65.5889 52.002 65.1194 51.3794 64.9729C48.3293 64.267 45.4158 63.0583 42.7589 61.4001C42.2128 61.0604 41.5269 61.0438 40.9641 61.3535L36.742 63.6643C34.7775 62.096 32.9894 60.3112 31.4211 58.3433C31.4177 58.3433 33.7319 54.1212 33.7319 54.1212C34.0415 53.5585 34.0216 52.8726 33.6853 52.3265C32.0271 49.6693 30.8183 46.7558 30.1124 43.706C29.9693 43.08 29.4964 42.5805 28.8805 42.4041L24.2621 41.0556C23.979 38.5549 23.979 36.031 24.2621 33.5304L28.8805 32.1818C29.4965 32.002 29.9659 31.5026 30.1124 30.8799C30.8184 27.8299 32.0271 24.9164 33.6853 22.2595C34.0249 21.7134 34.0415 21.0275 33.7319 20.4647L31.4211 16.2426C32.9893 14.278 34.7741 12.49 36.742 10.9216C36.742 10.9183 40.9641 13.2325 40.9641 13.2325C41.5268 13.5421 42.2127 13.5221 42.7589 13.1858C45.416 11.5276 48.3296 10.3189 51.3794 9.61303C52.0054 9.46985 52.5048 8.99702 52.6813 8.38103L54.0298 3.76264C55.2784 3.62279 56.537 3.55287 57.7923 3.55287ZM57.7923 12.4333C44.0702 12.4333 32.9291 23.5744 32.9291 37.2966C32.9291 51.0188 44.0702 62.1599 57.7923 62.1599C71.5145 62.1599 82.6556 51.0188 82.6556 37.2966C82.6556 23.5744 71.5145 12.4333 57.7923 12.4333ZM57.7923 15.9862C69.5531 15.9862 79.1027 25.5358 79.1027 37.2966C79.1027 42.6775 77.0982 47.5921 73.8051 51.3444C72.6731 50.805 70.2357 49.503 68.1579 47.4719C66.4331 45.787 64.9347 43.5861 64.8981 40.8323V37.2962H68.451C69.1668 37.2962 69.8162 36.8633 70.0925 36.2007C70.3689 35.538 70.2157 34.7722 69.7063 34.2661L59.0511 23.6109C58.3585 22.915 57.233 22.915 56.5405 23.6109L45.8853 34.2661C45.3758 34.7755 45.226 35.5381 45.499 36.2007C45.7754 36.8633 46.4213 37.2962 47.1406 37.2962H50.6935V40.8323C50.6568 43.5861 49.1584 45.7837 47.4337 47.4719C45.3559 49.503 42.9185 50.805 41.7864 51.3444C38.4933 47.5918 36.4888 42.6771 36.4888 37.2966C36.4888 25.5358 46.0384 15.9862 57.7992 15.9862H57.7923ZM57.7923 27.377L64.1622 33.7469H63.1199C62.141 33.7469 61.3452 34.5427 61.3452 35.5216V40.8692C61.3918 44.6351 63.3197 47.7084 65.6739 50.013C67.5252 51.8211 69.5997 53.123 71.0947 53.9355C67.4487 56.8557 62.8236 58.6072 57.7928 58.6072C52.7619 58.6072 48.14 56.8557 44.4908 53.9355C45.9859 53.123 48.0603 51.8211 49.9117 50.013C52.2658 47.7089 54.1937 44.6355 54.2403 40.8692V35.5216C54.2403 34.5427 53.4445 33.7469 52.4656 33.7469H51.4233L57.7923 27.377Z" fill="#0BAA4B"/>
</svg>
