<svg width="94" height="79" viewBox="0 0 94 79" fill="none" xmlns="http://www.w3.org/2000/svg">
<path fill-rule="evenodd" clip-rule="evenodd" d="M9.66263 39.6391C9.67541 40.5659 9.72143 41.4939 9.80196 42.4168L12.3585 42.1893C12.2844 41.3265 12.2409 40.4585 12.2307 39.5918L9.66774 39.6391H9.66263ZM15.2231 14.5327C16.2915 14.5309 17.3498 14.7403 18.337 15.149C19.3242 15.5577 20.2208 16.1576 20.9753 16.9141C21.7302 17.6687 22.329 18.5647 22.7376 19.5508C23.1462 20.5369 23.3565 21.5938 23.3565 22.6612C23.3565 23.7286 23.1462 24.7855 22.7376 25.7716C22.329 26.7577 21.7302 27.6537 20.9753 28.4083C20.0303 29.3535 18.8667 30.0511 17.5877 30.4393C16.3087 30.8275 14.9537 30.8943 13.6428 30.6338C12.3318 30.3733 11.1053 29.7936 10.0718 28.9459C9.0384 28.0982 8.22996 27.0088 7.7181 25.774C7.20624 24.5393 7.00676 23.1974 7.13732 21.8672C7.26788 20.537 7.72446 19.2595 8.46662 18.1479C9.20877 17.0362 10.2136 16.1247 11.3921 15.4942C12.5706 14.8636 13.8865 14.5334 15.2231 14.5327ZM19.1601 18.7254C18.249 17.8133 17.0498 17.2454 15.7669 17.1183C14.484 16.9913 13.1967 17.3131 12.1244 18.0289C11.0522 18.7447 10.2613 19.8101 9.88657 21.0437C9.51185 22.2772 9.57648 23.6026 10.0694 24.7938C10.5624 25.985 11.4532 26.9685 12.59 27.5765C13.7268 28.1846 15.0393 28.3796 16.3038 28.1283C17.5683 27.8771 18.7066 27.1951 19.5246 26.1987C20.3426 25.2023 20.7898 23.953 20.7899 22.6638C20.7912 21.9323 20.6479 21.2078 20.3682 20.5319C20.0885 19.856 19.6779 19.2421 19.1601 18.7254ZM19.4158 10.8654C19.1603 10.7778 18.9281 10.6331 18.737 10.4423C18.5504 10.2447 18.411 10.0074 18.3293 9.74817L18.3024 9.65997C18.1412 9.15711 17.8242 8.71859 17.3972 8.40789C16.9702 8.09719 16.4555 7.93044 15.9274 7.93176H14.5252C13.9977 7.93012 13.4833 8.09619 13.0564 8.406C12.6297 8.71526 12.313 9.15285 12.1527 9.65486L12.122 9.74178C12.0454 10.0023 11.9066 10.2402 11.7176 10.4351C11.5285 10.6299 11.2948 10.7759 11.0368 10.8603C10.8757 10.9165 10.6967 10.9881 10.5037 11.0648L10.4334 11.0916C10.2647 11.1607 10.0921 11.2386 9.92212 11.3192L9.85054 11.3511C9.60748 11.4722 9.33978 11.5356 9.06823 11.5365C8.79494 11.5284 8.52702 11.4585 8.28466 11.3319L8.20285 11.2872C7.73454 11.0476 7.20219 10.9631 6.6827 11.0458C6.1632 11.1285 5.68344 11.3742 5.31269 11.7474C4.98545 12.0746 4.65566 12.4236 4.3182 12.738C3.96046 13.0939 3.72006 13.5506 3.62922 14.047L3.61643 14.1122C3.533 14.6332 3.61903 15.1673 3.86186 15.6359L3.90021 15.7202C4.02884 15.9592 4.09976 16.2249 4.10729 16.4961C4.10645 16.7686 4.04257 17.0373 3.92066 17.281C3.81329 17.506 3.72636 17.6977 3.66501 17.86C3.5653 18.1004 3.48605 18.3023 3.43236 18.4583C3.34558 18.7142 3.20127 18.9469 3.01053 19.1383C2.81284 19.3248 2.57557 19.4642 2.31644 19.5461L2.22824 19.5729C1.72538 19.7341 1.28686 20.0511 0.976157 20.4781C0.665457 20.9051 0.498699 21.4199 0.500021 21.9479V23.3476C0.497859 23.8762 0.664965 24.3915 0.97687 24.8182C1.28878 25.2449 1.72909 25.5605 2.23335 25.7188L2.31516 25.7482C2.57556 25.8251 2.81334 25.9642 3.00798 26.1535C3.20262 26.3428 3.34827 26.5766 3.43236 26.8347C3.50394 27.0384 3.58149 27.2387 3.66501 27.4355C3.74298 27.6234 3.8184 27.7947 3.89126 27.9468L3.92322 28.021C4.04931 28.2623 4.11345 28.5311 4.10988 28.8033C4.10631 29.0755 4.03514 29.3426 3.90276 29.5805L3.86314 29.661C3.62003 30.1299 3.53357 30.6643 3.61643 31.186C3.69954 31.7056 3.94471 32.1856 4.31692 32.5575L5.31141 33.5508C5.68254 33.9247 6.16316 34.1707 6.68355 34.253C7.20394 34.3353 7.73701 34.2496 8.20541 34.0084L8.28977 33.9649C8.52887 33.8384 8.79398 33.7688 9.0644 33.7617C9.33847 33.7631 9.60861 33.827 9.85437 33.9483C10.009 34.0212 10.179 34.0979 10.3657 34.1771L10.4321 34.2065C10.5689 34.2628 10.7402 34.3343 10.9435 34.4034L11.0368 34.4404C11.2932 34.5262 11.526 34.6706 11.7168 34.8623C11.9033 35.0592 12.0423 35.2962 12.1233 35.5551L12.1514 35.6433C12.298 36.0969 12.5718 36.4988 12.9401 36.8014L13.0564 36.896C13.4833 37.2058 13.9977 37.3719 14.5252 37.3702H15.9249C16.4536 37.3728 16.9692 37.2062 17.3965 36.8948C17.8238 36.5834 18.1404 36.1435 18.2999 35.6394L18.3267 35.5576C18.4074 35.2979 18.5464 35.06 18.7332 34.8623C18.9243 34.6711 19.1571 34.5267 19.4132 34.4404C19.6178 34.3676 19.821 34.2896 20.0179 34.2078C20.2147 34.126 20.4013 34.0416 20.5969 33.9521C20.8432 33.8309 21.1137 33.7671 21.3882 33.7655C21.6387 33.772 21.885 33.8322 22.1104 33.9419L22.2459 34.0148C22.715 34.2548 23.2482 34.3395 23.7686 34.2568C24.2889 34.1741 24.7696 33.9282 25.1411 33.5546C25.4646 33.2325 25.8033 32.8746 26.1369 32.5665C26.5102 32.1933 26.7555 31.7113 26.8374 31.1898C26.9208 30.6687 26.8348 30.1346 26.592 29.6661L26.5536 29.5817C26.4256 29.3426 26.3547 29.077 26.3466 28.8058C26.3483 28.5337 26.4112 28.2655 26.5306 28.021C26.6035 27.8663 26.6815 27.6937 26.7607 27.5097L26.7888 27.4445C26.8792 27.2272 26.9559 27.0278 27.0189 26.8463C27.1053 26.5898 27.2502 26.357 27.442 26.1662C27.6245 25.9933 27.8427 25.8624 28.0812 25.7827L28.2358 25.7303C28.6837 25.584 29.0805 25.3131 29.3799 24.9493L29.4745 24.833C29.785 24.4064 29.9516 23.8919 29.95 23.3643V21.9646C29.9519 21.4364 29.7854 20.9213 29.4746 20.4942C29.1638 20.0671 28.7249 19.7502 28.2218 19.5895L28.1348 19.5601C27.8741 19.4843 27.636 19.3457 27.4412 19.1565C27.2465 18.9673 27.101 18.7333 27.0176 18.4749C26.9601 18.3113 26.8898 18.1298 26.8093 17.9342L26.7837 17.8652C26.7224 17.7207 26.6469 17.552 26.5549 17.3539L26.5268 17.2874C26.4049 17.0418 26.341 16.7716 26.3402 16.4974C26.3483 16.2263 26.4192 15.9607 26.5472 15.7215L26.5933 15.6359C26.8247 15.1874 26.9139 14.6791 26.8489 14.1786L26.8412 14.116C26.7584 13.5967 26.5132 13.117 26.1408 12.7457L25.145 11.7512C24.7738 11.3781 24.2933 11.1331 23.7733 11.0517C23.2534 10.9704 22.721 11.0569 22.2535 11.2987L22.1705 11.3396C21.9312 11.4715 21.6632 11.5423 21.3901 11.5459C21.117 11.5494 20.8472 11.4856 20.6046 11.3601C20.3758 11.2514 20.1828 11.1632 20.0191 11.1044C19.801 11.0141 19.6016 10.937 19.4209 10.873L19.4158 10.8654ZM19.0323 13.459C18.9045 13.4027 18.7409 13.3427 18.5606 13.2775C17.9327 13.0613 17.3643 12.7008 16.901 12.2251C16.4377 11.7493 16.0924 11.1715 15.8929 10.5381L15.8801 10.4947H14.5686L14.5546 10.5381C14.3555 11.1716 14.0106 11.7495 13.5475 12.2253C13.0843 12.701 12.5159 13.0615 11.8881 13.2775C11.5681 13.3909 11.2545 13.5214 10.9486 13.6686C10.3522 13.958 9.69643 14.1042 9.03358 14.0956C8.37072 14.0869 7.71903 13.9236 7.13039 13.6188L7.08309 13.5919C6.7827 13.8923 6.43756 14.2106 6.15762 14.5225L6.17936 14.5634C6.48488 15.153 6.6486 15.8057 6.65748 16.4696C6.66635 17.1336 6.52015 17.7905 6.23049 18.388C6.17424 18.5043 6.10266 18.6615 6.02724 18.8507C5.97696 18.9657 5.91561 19.1268 5.84317 19.3339C5.62576 19.9605 5.26482 20.5277 4.78919 20.99C4.31356 21.4523 3.73642 21.797 3.10385 21.9965L3.06166 22.0093V23.3144L3.10385 23.3272C3.73666 23.5281 4.31366 23.8744 4.78866 24.3383C5.26366 24.8022 5.62349 25.3709 5.83934 25.9988C5.89558 26.1573 5.95566 26.3145 6.02085 26.4704C6.02085 26.4871 6.19725 26.8744 6.23049 26.9383C6.51926 27.5358 6.66497 28.1924 6.6561 28.856C6.64722 29.5196 6.484 30.172 6.17936 30.7616L6.15635 30.805L7.08565 31.7343L7.14445 31.7062C7.73045 31.4068 8.37704 31.2451 9.035 31.2333C9.69859 31.225 10.355 31.3712 10.9524 31.6602C11.2515 31.788 11.5251 31.9082 11.828 32.0296L11.897 32.0514C12.5247 32.2673 13.0929 32.6276 13.556 33.1031C14.0192 33.5787 14.3642 34.1562 14.5635 34.7894L14.5776 34.8316H15.8916L15.9031 34.7907C16.1026 34.1573 16.4479 33.5795 16.9112 33.1038C17.3745 32.628 17.943 32.2676 18.5709 32.0514C18.7281 31.9951 18.8879 31.9338 19.0451 31.8686C19.2023 31.8034 19.3672 31.7292 19.5155 31.6602C20.0983 31.3763 20.7386 31.2301 21.3869 31.233C22.0352 31.2358 22.6742 31.3877 23.2544 31.6768L23.3823 31.7331C23.6826 31.4327 24.0214 31.1195 24.3064 30.8063L24.2834 30.7641C23.9788 30.1745 23.8156 29.5221 23.8067 28.8585C23.7978 28.1949 23.9435 27.5384 24.2323 26.9408C24.3039 26.7951 24.3601 26.6596 24.4177 26.5369L24.4419 26.4743C24.4982 26.3388 24.5595 26.1777 24.6234 25.9975C24.836 25.3833 25.1869 24.8262 25.6491 24.3692C26.1112 23.9122 26.6721 23.5675 27.2886 23.3617L27.4062 23.3208V22.0067L27.364 21.994C26.7307 21.7945 26.1529 21.4492 25.6771 20.9859C25.2014 20.5225 24.8409 19.9541 24.6247 19.3262C24.5084 19.0182 24.3972 18.751 24.2668 18.4506L24.2323 18.3829C23.9436 17.786 23.7979 17.1301 23.8067 16.4671C23.8156 15.8041 23.9788 15.1523 24.2834 14.5634L24.3052 14.5187L23.3759 13.5906L23.3286 13.6162C22.7399 13.9211 22.0882 14.0843 21.4254 14.093C20.7625 14.1016 20.1068 13.9555 19.5104 13.6661C19.3928 13.6098 19.2343 13.5382 19.0425 13.4603L19.0323 13.459ZM77.5897 52.6071C77.4135 52.323 77.3556 51.981 77.4286 51.6547C77.5015 51.3284 77.6994 51.0436 77.9799 50.8615C78.2603 50.6794 78.601 50.6144 78.9288 50.6805C79.2566 50.7466 79.5454 50.9385 79.7333 51.2151L81.3695 53.7295L86.866 50.2487C87.008 50.1539 87.1676 50.0885 87.3354 50.0564C87.5031 50.0242 87.6755 50.026 87.8425 50.0616C88.0095 50.0973 88.1677 50.166 88.3077 50.2637C88.4477 50.3615 88.5667 50.4863 88.6577 50.6309C88.7487 50.7754 88.8098 50.9367 88.8374 51.1052C88.865 51.2737 88.8585 51.4461 88.8184 51.612C88.7783 51.778 88.7053 51.9343 88.6038 52.0716C88.5023 52.2089 88.3743 52.3245 88.2274 52.4116L81.6648 56.5634C81.3808 56.7423 81.0379 56.8025 80.71 56.7307C80.3821 56.659 80.0955 56.4611 79.9123 56.1799L77.5858 52.6084L77.5897 52.6071ZM83.1067 42.6495C80.6184 42.6497 78.2071 43.5127 76.2838 45.0914C74.3605 46.6702 73.0441 48.8669 72.5588 51.3075C72.0736 53.748 72.4496 56.2812 73.6228 58.4756C74.7959 60.67 76.6937 62.3897 78.9926 63.3417C81.2916 64.2938 83.8495 64.4192 86.2306 63.6967C88.6117 62.9742 90.6686 61.4485 92.0509 59.3795C93.4331 57.3104 94.0552 54.8261 93.8112 52.3498C93.5671 49.8735 92.4719 47.5585 90.7123 45.7991C89.7144 44.7992 88.5288 44.0063 87.2236 43.4658C85.9184 42.9253 84.5193 42.6479 83.1067 42.6495ZM88.8998 47.6117C87.5592 46.2705 85.795 45.4356 83.9078 45.2494C82.0207 45.0631 80.1273 45.537 78.5504 46.5903C76.9735 47.6435 75.8106 49.211 75.2599 51.0256C74.7091 52.8402 74.8046 54.7896 75.5301 56.5416C76.2556 58.2937 77.5662 59.74 79.2385 60.6341C80.9108 61.5281 82.8414 61.8147 84.7013 61.4448C86.5612 61.075 88.2354 60.0717 89.4384 58.6059C90.6415 57.14 91.299 55.3024 91.2991 53.4061C91.3005 52.3298 91.0892 51.2639 90.6775 50.2695C90.2657 49.2751 89.6616 48.3719 88.8998 47.6117ZM48.8415 26.3209C51.7485 26.3213 54.5654 27.3296 56.8123 29.174C59.0593 31.0185 60.5972 33.5849 61.164 36.4361C61.7308 39.2873 61.2915 42.2469 59.921 44.8105C58.5504 47.3741 56.3333 49.3832 53.6475 50.4955C50.9617 51.6077 47.9733 51.7543 45.1916 50.9103C42.4098 50.0663 40.0067 48.2838 38.3918 45.8667C36.7769 43.4495 36.05 40.5472 36.335 37.6542C36.6201 34.7612 37.8994 32.0565 39.955 30.001C41.1207 28.8324 42.5059 27.9056 44.0309 27.2741C45.556 26.6425 47.1908 26.3186 48.8415 26.3209ZM55.9154 31.8174C54.2789 30.1808 52.1255 29.1623 49.8222 28.9354C47.5189 28.7085 45.2082 29.2872 43.2837 30.5731C41.3593 31.8589 39.9403 33.7723 39.2685 35.9871C38.5967 38.2019 38.7136 40.5811 39.5993 42.7194C40.4851 44.8576 42.0849 46.6226 44.1261 47.7136C46.1673 48.8045 48.5237 49.1539 50.7936 48.7023C53.0636 48.2506 55.1067 47.0259 56.5749 45.2367C58.043 43.4475 58.8454 41.2045 58.8452 38.8901C58.8469 37.5763 58.5889 36.2751 58.0861 35.0614C57.5834 33.8476 56.8456 32.7452 55.9154 31.8174ZM55.4667 20.2325C55.7646 20.3373 56.0803 20.46 56.4126 20.5981C56.7463 20.7349 57.0518 20.8716 57.3419 21.0084L57.3995 21.0365C57.9075 21.2825 58.4667 21.4041 59.031 21.3914C59.5953 21.3788 60.1485 21.2321 60.645 20.9637L60.783 20.8959C61.3995 20.5779 62.1014 20.465 62.7865 20.5735C63.4716 20.682 64.1042 21.0063 64.5923 21.4993L66.2284 23.1342C66.7213 23.6228 67.0456 24.2557 67.1543 24.9412C67.263 25.6266 67.1505 26.3288 66.8331 26.946L66.7615 27.0738C66.4884 27.5803 66.3419 28.1454 66.3346 28.7208C66.3272 29.2962 66.4592 29.8648 66.7193 30.3781C66.8548 30.6644 66.9929 30.9738 67.1309 31.3048C67.269 31.6359 67.3866 31.9363 67.4978 32.2597C67.6792 32.8057 67.9893 33.3001 68.402 33.701C68.8148 34.1019 69.3179 34.3976 69.8689 34.5631L70.085 34.636C70.7299 34.8572 71.2893 35.2752 71.6842 35.8311C72.079 36.3869 72.2896 37.0527 72.2861 37.7345V40.0354C72.2897 40.7304 72.0709 41.4083 71.6618 41.9701C71.2527 42.532 70.6747 42.9483 70.0121 43.1582L69.8677 43.2068C69.3178 43.3725 68.8159 43.668 68.4043 44.0685C67.9927 44.4689 67.6835 44.9626 67.5029 45.5077C67.3891 45.8272 67.2664 46.1468 67.1373 46.4561L67.1092 46.52C66.9711 46.8515 66.8433 47.1404 66.7257 47.3867C66.4652 47.8998 66.3331 48.4684 66.3409 49.0437C66.3487 49.6191 66.4961 50.1839 66.7704 50.6897L66.8369 50.8252C67.1559 51.4426 67.2692 52.1458 67.1603 52.8321L67.1501 52.8884C67.032 53.5529 66.7125 54.1652 66.2348 54.6421L64.5987 56.2719C64.1112 56.7644 63.4793 57.0886 62.795 57.1973C62.1106 57.3061 61.4094 57.1937 60.7933 56.8766L60.6514 56.8075C60.1443 56.5397 59.5821 56.3931 59.0088 56.3793C58.4328 56.378 57.8642 56.5092 57.3471 56.7628L57.2819 56.7922C56.993 56.929 56.7066 57.0568 56.4254 57.1757C56.1442 57.2945 55.8131 57.4211 55.4731 57.5413C54.9285 57.7235 54.4354 58.0335 54.0351 58.4454C53.6348 58.8572 53.3389 59.359 53.1722 59.9086L53.1249 60.053C52.9142 60.7172 52.4963 61.2964 51.9325 61.7058C51.3687 62.1152 50.6887 62.3334 49.9919 62.3284H47.691C46.9961 62.3317 46.3183 62.113 45.7564 61.7042C45.1944 61.2954 44.7777 60.7178 44.567 60.0556L44.5197 59.9112C44.3542 59.3611 44.0587 58.8589 43.6582 58.4471C43.2577 58.0353 42.764 57.7259 42.2188 57.5451C41.8979 57.4313 41.5796 57.3086 41.2677 57.1795C40.9354 57.0415 40.6265 56.9042 40.341 56.7679L40.2835 56.7398C39.7752 56.4938 39.2158 56.3722 38.6513 56.3849C38.0868 56.3975 37.5334 56.5442 37.0367 56.8126L36.8117 56.9238C36.1998 57.2157 35.5123 57.3103 34.8443 57.1944C34.1763 57.0785 33.5609 56.758 33.083 56.277C32.5717 55.7236 31.9901 55.179 31.4532 54.6421C30.9615 54.1537 30.6379 53.5217 30.529 52.8372L30.5214 52.7823C30.4265 52.1147 30.5408 51.4341 30.8486 50.8342L30.9202 50.6961C31.1933 50.1896 31.3397 49.6246 31.3471 49.0492C31.3544 48.4738 31.2224 47.9051 30.9624 47.3918C30.8354 47.1259 30.6978 46.814 30.5495 46.4561C30.4127 46.1238 30.2938 45.808 30.1852 45.5102C30.0034 44.9655 29.6937 44.4723 29.2821 44.0719C28.8704 43.6716 28.3687 43.3758 27.8191 43.2093L27.6759 43.162C27.0134 42.9518 26.4355 42.5352 26.0266 41.9732C25.6177 41.4111 25.3993 40.733 25.4032 40.038V37.7371C25.3993 37.042 25.6177 36.3639 26.0266 35.8019C26.4355 35.2398 27.0134 34.8232 27.6759 34.613L27.8191 34.5631C28.3689 34.397 28.8707 34.1013 29.2824 33.7009C29.6941 33.3005 30.0037 32.8071 30.1852 32.2623C30.299 31.9401 30.4217 31.6231 30.5508 31.3138C30.6799 31.0045 30.8154 30.6989 30.9624 30.3883C31.215 29.8708 31.3462 29.3025 31.3458 28.7266C31.3312 28.1525 31.1843 27.5895 30.9164 27.0815L30.8499 26.9447C30.5319 26.3288 30.4191 25.6274 30.5278 24.9429C30.6371 24.259 30.9607 23.6275 31.4519 23.1393L33.0843 21.5069C33.5731 21.0132 34.2066 20.6881 34.8927 20.5789C35.5789 20.4697 36.282 20.5821 36.8999 20.8998L37.0354 20.9688C37.5417 21.2421 38.1066 21.3889 38.6819 21.397C39.2572 21.405 39.826 21.2739 40.3397 21.0148C40.6235 20.878 40.9328 20.74 41.2652 20.6019C41.5771 20.4741 41.8967 20.3463 42.2188 20.2363C42.7635 20.0546 43.2567 19.7449 43.6571 19.3332C44.0574 18.9215 44.3532 18.4199 44.5197 17.8703L44.567 17.7258C44.7764 17.0622 45.1925 16.4829 45.7546 16.0727C46.3166 15.6624 46.9952 15.4426 47.691 15.4454H49.9919C50.6868 15.4421 51.3646 15.6608 51.9266 16.0696C52.4885 16.4784 52.9052 17.056 53.116 17.7182L53.1633 17.8626C53.3296 18.4123 53.6253 18.9141 54.0257 19.3258C54.426 19.7375 54.9193 20.0471 55.4642 20.2287L55.4667 20.2325ZM55.436 22.9603C55.6917 23.0664 55.9589 23.1866 56.2439 23.3221L56.3193 23.3553C57.1817 23.7627 58.1266 23.9651 59.0802 23.9464C60.0338 23.9278 60.9701 23.6887 61.8159 23.2479C61.8593 23.2213 61.9046 23.1978 61.9514 23.1776C62.0878 23.1057 62.2433 23.078 62.3962 23.0984C62.5477 23.1241 62.687 23.1976 62.7937 23.308L64.4299 24.9429C64.5422 25.0489 64.6158 25.1894 64.639 25.3421C64.6621 25.4947 64.6336 25.6508 64.5578 25.7853L64.4887 25.9208C64.0421 26.7783 63.8027 27.7285 63.7896 28.6953C63.7765 29.662 63.9901 30.6183 64.4133 31.4876C64.5488 31.7727 64.669 32.0424 64.7751 32.2942C64.8811 32.546 64.9936 32.8413 65.0921 33.1174C65.4058 34.032 65.9302 34.8599 66.623 35.5342C67.3159 36.2086 68.1576 36.7106 69.0803 36.9995L69.2605 37.0583C69.3927 37.1062 69.5076 37.1926 69.5903 37.3063C69.6778 37.433 69.7226 37.5844 69.7181 37.7384V40.0392C69.7226 40.1932 69.6778 40.3446 69.5903 40.4713C69.4997 40.5931 69.3725 40.6827 69.2273 40.7269L69.079 40.7742C68.1561 41.0631 67.3142 41.5652 66.6213 42.2398C65.9285 42.9145 65.4042 43.7427 65.0908 44.6576C64.9924 44.9324 64.8875 45.206 64.7763 45.4757L64.7521 45.5396C64.6613 45.7544 64.5475 46.0036 64.4133 46.2861C63.9901 47.1554 63.7765 48.1118 63.7896 49.0785C63.8027 50.0452 64.0421 50.9955 64.4887 51.853L64.5578 51.9808C64.6307 52.1169 64.6589 52.2726 64.6383 52.4256V52.4525C64.6063 52.5946 64.5329 52.724 64.4274 52.8244L62.7963 54.4594C62.6902 54.5714 62.5497 54.6449 62.3971 54.6681C62.2445 54.6912 62.0885 54.6628 61.9539 54.5872L61.8184 54.5169C60.9619 54.0701 60.0124 53.8306 59.0464 53.8177C58.0804 53.8048 57.1249 54.0189 56.2567 54.4427L56.1826 54.4798C55.9499 54.5897 55.7058 54.698 55.4501 54.8045C55.1625 54.9234 54.8902 55.0295 54.6333 55.1189C53.7188 55.4331 52.891 55.9579 52.2167 56.6509C51.5423 57.3439 51.0403 58.1857 50.7512 59.1084L50.7039 59.2516C50.6604 59.3999 50.5689 59.5295 50.4437 59.6202C50.3186 59.7109 50.1668 59.7575 50.0124 59.7527H47.691C47.5372 59.7566 47.386 59.7118 47.259 59.6248C47.1366 59.5326 47.047 59.4036 47.0033 59.2567L46.956 59.1135C46.668 58.1901 46.1662 57.3476 45.4914 56.6544C44.8167 55.9612 43.988 55.4369 43.0727 55.1241C42.7978 55.0269 42.523 54.9208 42.252 54.8083C41.981 54.6958 41.7305 54.5833 41.4454 54.4478L41.37 54.4146C40.5079 54.0063 39.5628 53.8035 38.6091 53.8222C37.6554 53.8408 36.719 54.0803 35.8735 54.522L35.6996 54.6127C35.5664 54.6767 35.4162 54.6961 35.2712 54.668C35.1261 54.6399 34.994 54.5658 34.8943 54.4568C34.3523 53.9532 33.7912 53.3575 33.2632 52.8308C33.1515 52.7226 33.0771 52.5816 33.0511 52.4282V52.409C33.0355 52.2638 33.0626 52.1172 33.129 51.9872L33.2032 51.8491C33.6497 50.9916 33.8892 50.0414 33.9023 49.0747C33.9154 48.1079 33.7018 47.1516 33.2786 46.2823C33.132 45.9746 33.011 45.7062 32.9156 45.477C32.812 45.2213 32.7059 44.9516 32.6011 44.6525C32.2874 43.7377 31.7629 42.9096 31.0698 42.2352C30.3767 41.5608 29.5346 41.059 28.6116 40.7704L28.4685 40.7231C28.3205 40.6792 28.1913 40.5875 28.1009 40.4624C28.0105 40.3373 27.964 40.1858 27.9687 40.0316V37.7307C27.9647 37.5768 28.0095 37.4256 28.0965 37.2986C28.1882 37.1763 28.3168 37.0867 28.4634 37.043L28.6078 36.9957C29.5309 36.7068 30.3729 36.2045 31.0658 35.5296C31.7587 34.8547 32.2829 34.0262 32.596 33.111C32.6931 32.8375 32.7992 32.5639 32.9117 32.2929C33.0242 32.022 33.1469 31.7433 33.2735 31.4838C33.6967 30.6145 33.9103 29.6582 33.8972 28.6914C33.8841 27.7247 33.6446 26.7745 33.1981 25.917C33.1718 25.8735 33.1487 25.8282 33.129 25.7815C33.0569 25.6451 33.0292 25.4895 33.0498 25.3366C33.075 25.1853 33.148 25.0459 33.2581 24.9391C33.4141 24.7831 34.879 23.3093 34.893 23.3093C34.9999 23.1973 35.1395 23.1221 35.2919 23.0945C35.4448 23.0739 35.6003 23.1017 35.7367 23.1738L35.8722 23.2441C36.729 23.6901 37.6784 23.9292 38.6442 23.9421C39.6101 23.9549 40.5655 23.7413 41.4339 23.3182C41.7177 23.184 41.9874 23.0626 42.2405 22.9578C42.4936 22.853 42.7863 22.7405 43.0624 22.642C43.9769 22.3278 44.8047 21.8031 45.479 21.1101C46.1534 20.4171 46.6554 19.5753 46.9445 18.6526L46.9918 18.5094C47.0355 18.3625 47.1251 18.2335 47.2475 18.1413C47.3745 18.0542 47.5256 18.0095 47.6795 18.0134H49.9804C50.1349 18.0086 50.2866 18.0552 50.4118 18.1459C50.5369 18.2365 50.6284 18.3662 50.6719 18.5145L50.7192 18.6577C51.0084 19.5804 51.5104 20.4222 52.1847 21.1152C52.8591 21.8082 53.6869 22.333 54.6013 22.6472C54.8992 22.752 55.174 22.8581 55.422 22.9616L55.436 22.9603ZM10.1381 45.1727C10.2775 46.0854 10.4603 47.0109 10.6712 47.9095L13.1651 47.3164C12.9644 46.4894 12.7982 45.6125 12.6691 44.7714L10.1381 45.1727ZM11.3972 50.5913C11.6631 51.472 11.9788 52.3643 12.3163 53.2207L14.7003 52.2812C14.3871 51.4823 14.0931 50.6527 13.8451 49.8308L11.3972 50.5913ZM13.4207 55.7824C13.8195 56.6209 14.2465 57.4441 14.699 58.2469L16.9283 56.9814C16.5001 56.2234 16.1013 55.4564 15.728 54.6703L13.4182 55.7824H13.4207ZM16.1588 60.618C16.6701 61.3939 17.2146 62.143 17.7809 62.8806L19.8044 61.307C19.2765 60.6257 18.7664 59.915 18.2909 59.1953L16.1588 60.618ZM19.5577 65.0204C20.1725 65.7094 20.8193 66.3894 21.484 67.0298L23.2621 65.1853C22.6421 64.5819 22.0414 63.953 21.4649 63.3075L19.5577 65.0204ZM23.5459 68.8974C24.2579 69.4969 24.9839 70.0657 25.7355 70.6154L27.2388 68.5318C26.5472 68.0511 25.8404 67.4708 25.1936 66.9276L23.5497 68.8948L23.5459 68.8974ZM28.0364 72.1684C28.8174 72.6618 29.6317 73.1246 30.4485 73.5579L31.6437 71.2903C30.8831 70.8876 30.1213 70.4543 29.3927 69.9941L28.0364 72.1684ZM32.9539 74.7723C33.8027 75.1468 34.6681 75.4919 35.5411 75.8038L36.3924 73.3866C35.5744 73.0837 34.7793 72.7756 33.9804 72.4241L32.9577 74.7723H32.9539ZM38.1948 76.6462C39.0896 76.8929 39.992 77.1128 40.9034 77.2968L41.402 74.7825C40.5481 74.6035 39.7198 74.4067 38.8787 74.1753L38.1948 76.6462ZM43.6453 77.7506C44.567 77.8695 45.4873 77.9539 46.4153 78.0063L46.5585 75.4498C45.6905 75.3961 44.8328 75.3219 43.9687 75.2069L43.6453 77.7506ZM49.1943 78.0715C50.1044 78.0715 51.0644 78.0178 51.9719 77.9436L51.7585 75.3871C50.9072 75.46 50.0124 75.5149 49.1598 75.5149L49.1943 78.0715ZM54.7356 77.6113C55.6508 77.4694 56.566 77.2943 57.4685 77.0859L56.8907 74.5882C56.0419 74.7787 55.1983 74.9461 54.3342 75.0791L54.7317 77.6113H54.7356ZM60.1567 76.3663C61.0361 76.0953 61.9322 75.7949 62.7874 75.4549L61.8555 73.0671C61.0425 73.379 60.2334 73.6602 59.4012 73.9171L60.1567 76.3663ZM65.3439 74.3581C66.1833 73.9619 67.0073 73.5358 67.8161 73.0798L66.5557 70.848C65.7998 71.2741 65.0299 71.6721 64.2459 72.0419L65.3439 74.3568V74.3581ZM70.1885 71.6329C70.9555 71.1305 71.7224 70.5783 72.4562 70.0158L70.8903 67.986C70.2102 68.5113 69.4957 69.0239 68.776 69.4943L70.1885 71.6329ZM74.5998 68.2467C75.2965 67.6268 75.9586 66.9902 76.6131 66.3293L74.78 64.5397C74.1729 65.161 73.5465 65.7567 72.8972 66.3293L74.5998 68.2467ZM87.7289 39.0371C87.7289 38.4158 87.7148 37.7984 87.6854 37.1785L85.1289 37.3063C85.1596 37.8802 85.1672 38.4567 85.1698 39.0358L87.7289 39.0371ZM87.4566 34.4072C87.3479 33.4843 87.201 32.5729 87.0322 31.6602L84.5153 32.1434C84.6764 32.996 84.8106 33.8512 84.9128 34.7153L87.4566 34.4072ZM86.411 28.9388C86.1745 28.044 85.8997 27.1415 85.5954 26.2736L83.1782 27.1249C83.4582 27.9468 83.7138 28.7688 83.9362 29.6073L86.411 28.9388ZM84.5946 23.6877C84.2341 22.8351 83.8276 21.9914 83.4083 21.1682L81.133 22.3519C81.5293 23.1188 81.9 23.9088 82.24 24.7026L84.5946 23.6877ZM82.0444 18.7421C81.5651 17.9457 81.0538 17.1787 80.5118 16.4194L78.4308 17.9163C78.9331 18.5861 79.424 19.3697 79.8612 20.0893L82.0444 18.7446V18.7421ZM78.8232 14.217C78.2352 13.5012 77.6152 12.8109 76.9761 12.1334L75.1226 13.9025C75.7183 14.5327 76.2948 15.1808 76.8457 15.8481L78.8232 14.217ZM74.9884 10.1879C74.3084 9.56282 73.5925 8.95693 72.8678 8.38682L71.284 10.4039C71.9615 10.9395 72.6287 11.5032 73.2653 12.0861L74.9884 10.1905V10.1879ZM70.6244 6.73658C69.8574 6.21505 69.07 5.71397 68.2673 5.25251L66.989 7.47414C67.7381 7.91258 68.4692 8.36893 69.1864 8.8585L70.6231 6.73658H70.6244ZM65.8117 3.94101C64.9745 3.5358 64.1359 3.16127 63.2744 2.8123L62.3195 5.18988C63.1287 5.51967 63.9122 5.86864 64.6984 6.24956L65.8117 3.94101ZM60.6552 1.86383C59.7681 1.58006 58.8848 1.33335 57.9811 1.10837L57.3739 3.59844C58.2201 3.80935 59.0471 4.04072 59.878 4.3066L60.6552 1.86383ZM55.252 0.545939C54.3355 0.391269 53.4202 0.271111 52.496 0.179076L52.2532 2.73561C53.1198 2.82253 53.9724 2.93374 54.8314 3.07818L55.252 0.549774V0.545939ZM49.7209 0.0103447C48.7865 -0.00627275 47.8738 -0.00627217 46.9407 0.0359106L47.0545 2.59244C47.9262 2.55154 48.7827 2.55409 49.6557 2.56815L49.7209 0.0103447ZM44.1681 0.257051C43.2491 0.354199 42.3249 0.512704 41.416 0.673766L41.8928 3.19195C42.7403 3.036 43.6057 2.89411 44.4621 2.80847L44.1681 0.263441V0.257051ZM38.6997 1.28733C37.796 1.52637 36.9229 1.79864 36.0371 2.09392L36.8718 4.52262C37.6656 4.23374 38.5425 3.98575 39.3606 3.76972L38.6997 1.29245V1.28733ZM33.4384 3.09608C32.5998 3.45144 31.7191 3.8477 30.9164 4.27592L32.0924 6.55251C32.8593 6.1588 33.6467 5.79194 34.4456 5.45192L33.4384 3.09608ZM28.4902 5.6296L29.8183 7.82183C29.0756 8.2705 28.3534 8.74601 27.6453 9.24709L26.165 7.15457C26.9154 6.61898 27.7002 6.10639 28.4902 5.6296Z" fill="#0BAA4B"/>
</svg>
