<svg width="115" height="82" viewBox="0 0 115 82" fill="none" xmlns="http://www.w3.org/2000/svg">
<path d="M70.6429 23.5725C67.5348 23.5725 64.4965 24.4942 61.9122 26.221C59.3279 27.9477 57.3136 30.4021 56.1242 33.2736C54.9348 36.1451 54.6236 39.3049 55.2299 42.3533C55.8363 45.4017 57.333 48.2018 59.5308 50.3996C61.7286 52.5973 64.5287 54.094 67.5771 54.7004C70.6255 55.3068 73.7852 54.9956 76.6568 53.8061C79.5283 52.6167 81.9826 50.6025 83.7094 48.0182C85.4362 45.4339 86.3578 42.3956 86.3578 39.2874C86.3532 35.121 84.696 31.1266 81.7499 28.1804C78.8038 25.2343 74.8093 23.5772 70.6429 23.5725ZM70.6429 52.3832C68.0528 52.3832 65.5209 51.6152 63.3673 50.1762C61.2137 48.7372 59.5352 46.6919 58.544 44.299C57.5528 41.906 57.2935 39.2729 57.7988 36.7326C58.3041 34.1922 59.5513 31.8588 61.3828 30.0273C63.2143 28.1959 65.5477 26.9486 68.0881 26.4433C70.6284 25.938 73.2615 26.1973 75.6544 27.1885C78.0474 28.1797 80.0927 29.8582 81.5317 32.0118C82.9706 34.1654 83.7387 36.6973 83.7387 39.2874C83.7347 42.7594 82.3537 46.0881 79.8986 48.5432C77.4436 50.9982 74.1149 52.3792 70.6429 52.3832Z" fill="#0BAA4B"/>
<path d="M68.0238 43.9833L63.7114 39.6709L61.8596 41.5227L67.0979 46.761C67.2195 46.8826 67.3638 46.9791 67.5227 47.0449C67.6816 47.1108 67.8519 47.1447 68.0238 47.1447C68.1958 47.1447 68.3661 47.1108 68.525 47.0449C68.6838 46.9791 68.8282 46.8826 68.9498 46.761L80.7359 34.9748L78.8841 33.123L68.0238 43.9833Z" fill="#0BAA4B"/>
<path d="M32.2111 75.637L38.5504 70.1664C39.2695 70.599 40.1104 70.7847 40.9448 70.6951C41.7792 70.6055 42.5615 70.2455 43.1724 69.67L49.7369 72.8681C49.7117 73.0231 49.6959 73.1794 49.6897 73.3362C49.6897 74.3782 50.1036 75.3775 50.8404 76.1143C51.5771 76.851 52.5764 77.265 53.6184 77.265C54.6604 77.265 55.6596 76.851 56.3964 76.1143C57.1332 75.3775 57.5471 74.3782 57.5471 73.3362C57.5435 72.8711 57.4565 72.4103 57.2901 71.9759L62.3135 67.7948L60.6382 65.7819L55.6087 69.968C54.8733 69.522 54.0101 69.3339 53.1558 69.4335C52.3015 69.5332 51.5049 69.9148 50.8918 70.518L44.3943 67.3527C44.4271 67.1662 44.4461 66.9776 44.4513 66.7884C44.4513 65.7464 44.0374 64.7471 43.3006 64.0103C42.5639 63.2735 41.5646 62.8596 40.5226 62.8596C39.4806 62.8596 38.4814 63.2735 37.7446 64.0103C37.0078 64.7471 36.5939 65.7464 36.5939 66.7884C36.5971 67.2606 36.6864 67.7284 36.8573 68.1686L30.5 73.6547L32.2111 75.637ZM53.6184 72.0267C53.8774 72.0267 54.1306 72.1035 54.346 72.2474C54.5613 72.3913 54.7292 72.5958 54.8283 72.8351C54.9274 73.0744 54.9533 73.3377 54.9028 73.5917C54.8523 73.8458 54.7275 74.0791 54.5444 74.2622C54.3613 74.4454 54.1279 74.5701 53.8739 74.6207C53.6198 74.6712 53.3565 74.6452 53.1172 74.5461C52.8779 74.447 52.6734 74.2792 52.5295 74.0638C52.3856 73.8484 52.3088 73.5952 52.3088 73.3362C52.3092 72.989 52.4472 72.6561 52.6928 72.4106C52.9383 72.1651 53.2712 72.027 53.6184 72.0267ZM40.5226 65.4788C40.7816 65.4788 41.0348 65.5556 41.2502 65.6995C41.4655 65.8434 41.6334 66.0479 41.7325 66.2872C41.8316 66.5265 41.8576 66.7898 41.807 67.0438C41.7565 67.2979 41.6318 67.5312 41.4486 67.7144C41.2655 67.8975 41.0321 68.0222 40.7781 68.0728C40.5241 68.1233 40.2608 68.0974 40.0215 67.9982C39.7822 67.8991 39.5776 67.7313 39.4337 67.5159C39.2898 67.3006 39.213 67.0474 39.213 66.7884C39.2134 66.4411 39.3515 66.1082 39.597 65.8627C39.8425 65.6172 40.1754 65.4791 40.5226 65.4788Z" fill="#0BAA4B"/>
<path d="M84.6032 70.7356L90.9425 65.265C91.6616 65.6977 92.5024 65.8834 93.3369 65.7938C94.1713 65.7041 94.9536 65.3442 95.5645 64.7687L102.129 67.9668C102.104 68.1217 102.088 68.278 102.082 68.4349C102.082 69.4768 102.496 70.4761 103.232 71.2129C103.969 71.9497 104.969 72.3636 106.01 72.3636C107.052 72.3636 108.052 71.9497 108.789 71.2129C109.525 70.4761 109.939 69.4768 109.939 68.4349C109.936 67.9697 109.849 67.5089 109.682 67.0745L114.706 62.8935L113.03 60.8805L108.001 65.0666C107.265 64.6206 106.402 64.4325 105.548 64.5322C104.694 64.6318 103.897 65.0134 103.284 65.6167L96.7864 62.4513C96.8191 62.2649 96.8382 62.0762 96.8434 61.887C96.8434 60.845 96.4295 59.8457 95.6927 59.109C94.956 58.3722 93.9567 57.9583 92.9147 57.9583C91.8727 57.9583 90.8735 58.3722 90.1367 59.109C89.3999 59.8457 88.986 60.845 88.986 61.887C88.9892 62.3593 89.0785 62.827 89.2493 63.2673L82.8921 68.7534L84.6032 70.7356ZM106.01 67.1253C106.269 67.1253 106.523 67.2021 106.738 67.346C106.953 67.4899 107.121 67.6944 107.22 67.9337C107.319 68.173 107.345 68.4363 107.295 68.6904C107.244 68.9444 107.12 69.1777 106.936 69.3609C106.753 69.544 106.52 69.6688 106.266 69.7193C106.012 69.7698 105.749 69.7439 105.509 69.6448C105.27 69.5456 105.066 69.3778 104.922 69.1624C104.778 68.9471 104.701 68.6939 104.701 68.4349C104.701 68.0877 104.839 67.7548 105.085 67.5092C105.33 67.2637 105.663 67.1256 106.01 67.1253ZM92.9147 60.5774C93.1737 60.5774 93.4269 60.6542 93.6423 60.7981C93.8576 60.942 94.0255 61.1465 94.1246 61.3858C94.2237 61.6251 94.2496 61.8884 94.1991 62.1425C94.1486 62.3965 94.0239 62.6298 93.8407 62.813C93.6576 62.9961 93.4242 63.1209 93.1702 63.1714C92.9162 63.2219 92.6528 63.196 92.4136 63.0969C92.1743 62.9978 91.9697 62.8299 91.8258 62.6145C91.6819 62.3992 91.6051 62.146 91.6051 61.887C91.6055 61.5398 91.7436 61.2069 91.9891 60.9614C92.2346 60.7158 92.5675 60.5778 92.9147 60.5774Z" fill="#0BAA4B"/>
<path d="M107.311 9.16704H87.6673V1.30958C87.6673 1.13759 87.6335 0.967277 87.5677 0.808371C87.5019 0.649466 87.4054 0.505081 87.2838 0.383467C87.1622 0.261852 87.0178 0.165391 86.8589 0.0995946C86.7 0.033798 86.5297 -4.46902e-05 86.3577 4.42909e-08H54.9279C54.7559 -4.46902e-05 54.5856 0.033798 54.4266 0.0995946C54.2677 0.165391 54.1234 0.261852 54.0017 0.383467C53.8801 0.505081 53.7837 0.649466 53.7179 0.808371C53.6521 0.967277 53.6182 1.13759 53.6183 1.30958V9.16704H33.9746C33.8026 9.167 33.6323 9.20084 33.4734 9.26664C33.3145 9.33243 33.1701 9.42889 33.0485 9.55051C32.9269 9.67212 32.8304 9.81651 32.7646 9.97541C32.6988 10.1343 32.665 10.3046 32.665 10.4766V44.5256C32.665 44.6976 32.6988 44.8679 32.7646 45.0268C32.8304 45.1857 32.9269 45.3301 33.0485 45.4517C33.1701 45.5734 33.3145 45.6698 33.4734 45.7356C33.6323 45.8014 33.8026 45.8353 33.9746 45.8352H48.38V43.2161H35.2842V11.7862H53.6183V27.119C51.5669 29.9734 50.2685 33.299 49.8432 36.7882C49.4178 40.2775 49.8792 43.8176 51.1846 47.0813C52.4901 50.3449 54.5975 53.2267 57.3119 55.46C60.0263 57.6933 63.26 59.2061 66.7141 59.8583V62.8597C66.5418 62.8596 66.3712 62.8935 66.212 62.9595C66.0529 63.0255 65.9084 63.1222 65.7867 63.2442C65.665 63.3662 65.5686 63.5109 65.503 63.6702C65.4375 63.8295 65.404 64.0002 65.4045 64.1725L65.4403 79.8874C65.441 80.2342 65.5793 80.5666 65.8248 80.8115C66.0703 81.0565 66.403 81.194 66.7499 81.1938H74.6073C74.7796 81.1939 74.9502 81.16 75.1093 81.094C75.2685 81.028 75.413 80.9313 75.5347 80.8093C75.6563 80.6874 75.7527 80.5426 75.8183 80.3833C75.8839 80.224 75.9174 80.0533 75.9169 79.881L75.8811 64.1661C75.8804 63.8193 75.7421 63.4869 75.4966 63.242C75.251 62.997 74.9183 62.8596 74.5715 62.8597V59.8583C78.0255 59.2061 81.2593 57.6933 83.9737 55.46C86.6881 53.2267 88.7955 50.3449 90.1009 47.0813C91.4064 43.8176 91.8678 40.2775 91.4424 36.7882C91.017 33.299 89.7186 29.9734 87.6673 27.119V11.7862H106.001V43.2161H92.9056V45.8352H107.311C107.483 45.8353 107.653 45.8014 107.812 45.7356C107.971 45.6698 108.115 45.5734 108.237 45.4517C108.359 45.3301 108.455 45.1857 108.521 45.0268C108.587 44.8679 108.621 44.6976 108.621 44.5256V10.4766C108.621 10.3046 108.587 10.1343 108.521 9.97541C108.455 9.81651 108.359 9.67212 108.237 9.55051C108.115 9.42889 107.971 9.33243 107.812 9.26664C107.653 9.20084 107.483 9.167 107.311 9.16704ZM56.2374 2.61915H85.0481V24.111C81.1688 20.4033 76.0091 18.3341 70.6428 18.3341C65.2765 18.3341 60.1168 20.4033 56.2374 24.111V2.61915ZM68.0569 78.5746L68.0262 65.4789H73.2646L73.2953 78.5746H68.0569ZM69.3332 62.8597V60.1742C69.7685 60.2013 70.2008 60.2406 70.6428 60.2406C71.0848 60.2406 71.5171 60.2013 71.9524 60.1742V62.8597H69.3332ZM88.9769 39.2873C88.9769 42.9135 87.9016 46.4582 85.887 49.4732C83.8724 52.4882 81.009 54.8381 77.6589 56.2258C74.3088 57.6135 70.6224 57.9766 67.066 57.2691C63.5095 56.5617 60.2427 54.8155 57.6786 52.2515C55.1146 49.6874 53.3684 46.4206 52.661 42.8641C51.9536 39.3077 52.3166 35.6213 53.7043 32.2712C55.092 28.9211 57.4419 26.0577 60.4569 24.0431C63.4719 22.0285 67.0166 20.9532 70.6428 20.9532C75.5036 20.9587 80.1638 22.8921 83.6009 26.3292C87.0381 29.7663 88.9714 34.4265 88.9769 39.2873Z" fill="#0BAA4B"/>
<path d="M78.5003 10.4766H62.7854V13.0957H78.5003V10.4766Z" fill="#0BAA4B"/>
<path d="M103.382 17.0244H90.2866V19.6436H103.382V17.0244Z" fill="#0BAA4B"/>
<path d="M103.382 24.8818H91.5962V27.501H103.382V24.8818Z" fill="#0BAA4B"/>
<path d="M103.382 32.7395H94.2153V35.3587H103.382V32.7395Z" fill="#0BAA4B"/>
<path d="M50.9991 17.0244H37.9033V19.6436H50.9991V17.0244Z" fill="#0BAA4B"/>
<path d="M49.6895 24.8818H37.9033V27.501H49.6895V24.8818Z" fill="#0BAA4B"/>
<path d="M47.0704 32.7395H37.9033V35.3587H47.0704V32.7395Z" fill="#0BAA4B"/>
<path d="M78.7575 66.8133L78.2434 69.3813L84.791 70.6922L85.3052 68.1242L78.7575 66.8133Z" fill="#0BAA4B"/>
<path d="M73.2617 5.23853H68.0234V7.85768H73.2617V5.23853Z" fill="#0BAA4B"/>
</svg>
