<svg width="113" height="82" viewBox="0 0 113 82" fill="none" xmlns="http://www.w3.org/2000/svg">
<path d="M104.399 29.7506C105.2 29.7506 105.983 29.5131 106.65 29.068C107.316 28.623 107.835 27.9904 108.141 27.2503C108.448 26.5103 108.528 25.6959 108.372 24.9102C108.215 24.1246 107.83 23.4029 107.263 22.8364C106.697 22.27 105.975 21.8843 105.19 21.728C104.404 21.5717 103.589 21.6519 102.849 21.9585C102.109 22.265 101.477 22.7841 101.032 23.4502C100.587 24.1163 100.349 24.8993 100.349 25.7004C100.349 26.7746 100.776 27.8048 101.535 28.5643C102.295 29.3239 103.325 29.7506 104.399 29.7506ZM104.399 24.3503C104.666 24.3503 104.927 24.4295 105.149 24.5778C105.371 24.7262 105.544 24.937 105.647 25.1837C105.749 25.4304 105.776 25.7019 105.724 25.9638C105.671 26.2257 105.543 26.4662 105.354 26.655C105.165 26.8439 104.925 26.9724 104.663 27.0245C104.401 27.0766 104.129 27.0499 103.883 26.9477C103.636 26.8455 103.425 26.6725 103.277 26.4505C103.128 26.2284 103.049 25.9674 103.049 25.7004C103.049 25.3423 103.192 24.9989 103.445 24.7457C103.698 24.4925 104.041 24.3503 104.399 24.3503Z" fill="#0BAA4B"/>
<path d="M108.45 72.9532H108.423L98.8642 46.3647C99.4249 45.9113 99.8531 45.3152 100.104 44.6391C100.354 43.963 100.418 43.2318 100.289 42.5225C100.159 41.8131 99.8409 41.1518 99.3674 40.608C98.8939 40.0642 98.2826 39.6579 97.5978 39.432C97.3626 33.8205 95.2888 28.442 91.6958 24.1251C88.1028 19.8083 83.19 16.7927 77.7143 15.543C72.2386 14.2933 66.504 14.8787 61.3938 17.2092C56.2837 19.5397 52.0816 23.4858 49.4351 28.4397C49.1703 28.3917 48.8992 28.3917 48.6345 28.4397L38.4076 6.96259C39.0917 6.29048 39.5161 5.39806 39.6057 4.44321C39.6952 3.48835 39.4442 2.53259 38.8969 1.74499C38.3497 0.95739 37.5416 0.388711 36.6155 0.139547C35.6893 -0.109618 34.7049 -0.0232096 33.8364 0.383486C32.9679 0.790182 32.2711 1.49096 31.8695 2.36185C31.4678 3.23274 31.3871 4.21762 31.6417 5.14227C31.8962 6.06692 32.4696 6.87176 33.2603 7.41441C34.0511 7.95706 35.0083 8.20255 35.9626 8.10746L46.1841 29.5872C45.7593 30.011 45.4341 30.524 45.2322 31.089C45.0303 31.6541 44.9566 32.257 45.0166 32.854C45.0765 33.451 45.2686 34.0272 45.5789 34.5408C45.8892 35.0544 46.3099 35.4924 46.8105 35.8233C46.1604 39.1637 46.1929 42.6011 46.9059 45.9287C47.6189 49.2563 48.9977 52.4053 50.9593 55.1861L46.2111 59.9384C45.6911 59.628 45.0838 59.4963 44.4819 59.5633C43.8801 59.6303 43.3167 59.8925 42.8777 60.3097L32.3903 70.793C31.7935 71.3836 31.3193 72.0862 30.9949 72.8606C30.6705 73.635 30.5023 74.4658 30.5 75.3054C30.4977 76.145 30.6614 76.9768 30.9816 77.7529C31.3018 78.529 31.7722 79.2342 32.3658 79.828C32.9593 80.4218 33.6644 80.8924 34.4404 81.2128C35.2165 81.5332 36.0482 81.6971 36.8878 81.6951C37.7274 81.6931 38.5583 81.5251 39.3327 81.201C40.1072 80.8768 40.81 80.4028 41.4007 79.8062L51.8814 69.3215C52.2866 68.9125 52.5505 68.3847 52.6345 67.8151C52.7186 67.2456 52.6184 66.6641 52.3485 66.1555L57.1035 61.3992C61.4415 64.5229 66.652 66.2034 71.9976 66.2028C77.5056 66.1703 82.8588 64.3772 87.275 61.0854C91.6912 57.7936 94.9389 53.1757 96.5434 47.9065L105.885 73.8901C105.157 74.498 104.668 75.3429 104.502 76.2762C104.336 77.2095 104.505 78.1714 104.978 78.9925C105.452 79.8137 106.2 80.4414 107.091 80.7653C107.982 81.0892 108.958 81.0885 109.849 80.7633C110.739 80.438 111.486 79.8092 111.959 78.9873C112.431 78.1655 112.598 77.2034 112.431 76.2703C112.264 75.3372 111.773 74.493 111.045 73.8863C110.317 73.2795 109.398 72.9491 108.45 72.9532ZM35.5454 5.44915C35.2784 5.44915 35.0174 5.36997 34.7954 5.22162C34.5733 5.07327 34.4003 4.86242 34.2981 4.61573C34.1959 4.36903 34.1692 4.09758 34.2213 3.83569C34.2734 3.5738 34.402 3.33323 34.5908 3.14442C34.7796 2.95561 35.0202 2.82703 35.282 2.77493C35.5439 2.72284 35.8154 2.74958 36.0621 2.85176C36.3088 2.95395 36.5196 3.12699 36.668 3.34901C36.8163 3.57103 36.8955 3.83205 36.8955 4.09907C36.8955 4.45714 36.7533 4.80053 36.5001 5.05372C36.2469 5.30691 35.9035 5.44915 35.5454 5.44915ZM47.6962 32.4508C47.6962 32.1837 47.7753 31.9227 47.9237 31.7007C48.072 31.4787 48.2829 31.3056 48.5296 31.2034C48.7763 31.1013 49.0477 31.0745 49.3096 31.1266C49.5715 31.1787 49.8121 31.3073 50.0009 31.4961C50.1897 31.6849 50.3183 31.9255 50.3704 32.1874C50.4225 32.4493 50.3957 32.7207 50.2935 32.9674C50.1914 33.2141 50.0183 33.425 49.7963 33.5733C49.5743 33.7217 49.3133 33.8008 49.0462 33.8008C48.6882 33.8008 48.3448 33.6586 48.0916 33.4054C47.8384 33.1522 47.6962 32.8088 47.6962 32.4508ZM39.4917 77.8985C39.1506 78.2394 38.7457 78.5099 38.3001 78.6943C37.8544 78.8788 37.3768 78.9736 36.8946 78.9735C36.4123 78.9734 35.9347 78.8783 35.4892 78.6936C35.0437 78.5089 34.6389 78.2383 34.298 77.8972C33.957 77.556 33.6866 77.1511 33.5022 76.7055C33.3177 76.2599 33.2228 75.7823 33.223 75.3C33.2231 74.8177 33.3182 74.3402 33.5029 73.8947C33.6876 73.4491 33.9582 73.0443 34.2993 72.7034L44.784 62.2187L49.9778 67.4178L39.4917 77.8985ZM50.5313 64.1533L48.1687 61.7907L52.632 57.3273C53.3648 58.1685 54.1513 58.9613 54.9866 59.7008L50.5313 64.1533ZM71.9976 63.5026C65.9126 63.4958 60.0788 61.0756 55.776 56.7728C51.4733 52.4701 49.053 46.6362 49.0462 40.5512C49.0513 39.1791 49.1815 37.8103 49.4351 36.4618C49.9682 36.4107 50.4857 36.2535 50.9572 35.9997C51.4288 35.7458 51.8449 35.4003 52.1811 34.9835L53.7823 35.5492C53.3148 37.1796 53.0838 38.8687 53.0965 40.5647C53.1021 43.5344 53.8011 46.4617 55.1378 49.1134C55.2159 49.2753 55.3255 49.42 55.4602 49.5389C55.5949 49.6579 55.7521 49.7487 55.9224 49.8062C56.0927 49.8636 56.2727 49.8865 56.452 49.8734C56.6312 49.8603 56.806 49.8116 56.9662 49.7301C57.1264 49.6486 57.2687 49.5359 57.3847 49.3987C57.5008 49.2614 57.5882 49.1024 57.642 48.9309C57.6958 48.7594 57.7148 48.5789 57.6979 48.4C57.681 48.2211 57.6286 48.0473 57.5436 47.8889C56.3977 45.6077 55.7995 43.0906 55.7966 40.5377C55.7874 39.1571 55.9691 37.7819 56.3367 36.451L66.6432 40.0868C66.6297 40.2421 66.5959 40.3919 66.5959 40.5512C66.5937 41.8137 67.0347 43.0369 67.8419 44.0076C68.6492 44.9783 69.7715 45.6349 71.0132 45.8629C72.2549 46.0909 73.5373 45.8759 74.6367 45.2553C75.7361 44.6347 76.5829 43.6479 77.0293 42.467L87.8691 43.6726C86.4867 50.8416 79.3474 56.9372 72.0111 56.7522C69.3876 56.73 66.8052 56.0977 64.4682 54.9053C64.1513 54.7384 63.7811 54.7043 63.4391 54.8104C63.097 54.9165 62.8111 55.1541 62.6442 55.471C62.4774 55.7879 62.4432 56.1581 62.5493 56.5001C62.6554 56.8422 62.893 57.1281 63.2099 57.2949C65.9258 58.6917 68.9315 59.4315 71.9854 59.4551C80.6611 59.64 89.0532 52.5103 90.5544 43.975L92.3663 44.1762C92.6035 45.1898 93.2218 46.073 94.093 46.6428C92.7407 51.4714 89.853 55.7284 85.8666 58.7702C81.8802 61.812 77.0119 63.4732 71.9976 63.5026ZM71.9976 35.1509C71.1133 35.1512 70.2426 35.3687 69.462 35.7841C68.6814 36.1996 68.0148 36.8004 67.5207 37.5338L57.2736 33.9183C58.596 31.1125 60.6743 28.7309 63.2752 27.0407C65.8761 25.3506 68.8966 24.4189 71.9976 24.3503C76.3359 24.4542 80.4604 26.2553 83.4853 29.3667C86.5102 32.4782 88.1942 36.6519 88.1756 40.9914L77.321 39.783C77.1383 38.5001 76.4998 37.3259 75.5222 36.4753C74.5446 35.6247 73.2934 35.1545 71.9976 35.1509ZM74.6978 40.5512C74.6978 41.0853 74.5394 41.6073 74.2427 42.0514C73.946 42.4954 73.5243 42.8415 73.0309 43.0459C72.5375 43.2502 71.9946 43.3037 71.4708 43.1995C70.947 43.0953 70.4659 42.8382 70.0883 42.4605C69.7107 42.0829 69.4535 41.6018 69.3493 41.078C69.2451 40.5542 69.2986 40.0113 69.503 39.5179C69.7073 39.0245 70.0534 38.6028 70.4975 38.3061C70.9415 38.0094 71.4636 37.8511 71.9976 37.8511C72.7137 37.8511 73.4005 38.1356 73.9069 38.6419C74.4133 39.1483 74.6978 39.8351 74.6978 40.5512ZM92.6687 41.4963L90.8596 41.2951C90.9321 38.7613 90.4996 36.2384 89.5872 33.8734C88.6747 31.5084 87.3007 29.3487 85.545 27.5202C83.7894 25.6917 81.6874 24.231 79.3615 23.2232C77.0356 22.2154 74.5323 21.6806 71.9976 21.6501C68.3389 21.7235 64.7754 22.8293 61.7179 24.8401C58.6604 26.8509 56.2334 29.6848 54.7166 33.0151L53.0965 32.4508C53.0942 31.9149 52.9857 31.3848 52.7771 30.8911C52.5686 30.3975 52.2641 29.9502 51.8814 29.5751C54.2696 25.1763 58.0328 21.6809 62.5956 19.6234C67.1583 17.5658 72.2695 17.0595 77.1473 18.1818C82.0251 19.304 86.401 21.9931 89.6058 25.8378C92.8106 29.6824 94.6679 34.471 94.8936 39.4712C93.9195 39.8355 93.1228 40.5606 92.6687 41.4963ZM96.299 44.6015C96.032 44.6015 95.771 44.5223 95.549 44.374C95.327 44.2256 95.1539 44.0147 95.0517 43.7681C94.9495 43.5214 94.9228 43.2499 94.9749 42.988C95.027 42.7261 95.1556 42.4856 95.3444 42.2967C95.5332 42.1079 95.7738 41.9794 96.0356 41.9273C96.2975 41.8752 96.569 41.9019 96.8157 42.0041C97.0624 42.1063 97.2732 42.2793 97.4216 42.5013C97.5699 42.7234 97.6491 42.9844 97.6491 43.2514C97.6491 43.6095 97.5069 43.9529 97.2537 44.2061C97.0005 44.4592 96.6571 44.6015 96.299 44.6015ZM108.45 78.3535C108.183 78.3535 107.922 78.2743 107.7 78.126C107.478 77.9776 107.305 77.7668 107.202 77.5201C107.1 77.2734 107.074 77.0019 107.126 76.74C107.178 76.4781 107.306 76.2376 107.495 76.0488C107.684 75.8599 107.924 75.7314 108.186 75.6793C108.448 75.6272 108.72 75.6539 108.966 75.7561C109.213 75.8583 109.424 76.0313 109.572 76.2533C109.721 76.4754 109.8 76.7364 109.8 77.0034C109.8 77.3615 109.658 77.7049 109.404 77.9581C109.151 78.2113 108.808 78.3535 108.45 78.3535Z" fill="#0BAA4B"/>
<path d="M111.15 2.74899H109.8V1.39891C109.8 1.04084 109.657 0.697447 109.404 0.444257C109.151 0.191068 108.808 0.0488281 108.45 0.0488281C108.092 0.0488281 107.748 0.191068 107.495 0.444257C107.242 0.697447 107.1 1.04084 107.1 1.39891V2.74899H105.749C105.391 2.74899 105.048 2.89123 104.795 3.14442C104.542 3.39761 104.399 3.741 104.399 4.09907C104.399 4.45713 104.542 4.80053 104.795 5.05372C105.048 5.30691 105.391 5.44915 105.749 5.44915H107.1V6.79923C107.1 7.15729 107.242 7.50069 107.495 7.75388C107.748 8.00707 108.092 8.14931 108.45 8.14931C108.808 8.14931 109.151 8.00707 109.404 7.75388C109.657 7.50069 109.8 7.15729 109.8 6.79923V5.44915H111.15C111.508 5.44915 111.851 5.30691 112.104 5.05372C112.358 4.80053 112.5 4.45713 112.5 4.09907C112.5 3.741 112.358 3.39761 112.104 3.14442C111.851 2.89123 111.508 2.74899 111.15 2.74899Z" fill="#0BAA4B"/>
<path d="M71.9975 8.14931C72.3556 8.14931 72.699 8.00707 72.9522 7.75388C73.2053 7.50069 73.3476 7.15729 73.3476 6.79923V5.44915H74.6977C75.0557 5.44915 75.3991 5.30691 75.6523 5.05372C75.9055 4.80053 76.0477 4.45713 76.0477 4.09907C76.0477 3.741 75.9055 3.39761 75.6523 3.14442C75.3991 2.89123 75.0557 2.74899 74.6977 2.74899H73.3476V1.39891C73.3476 1.04084 73.2053 0.697447 72.9522 0.444257C72.699 0.191068 72.3556 0.0488281 71.9975 0.0488281C71.6394 0.0488281 71.296 0.191068 71.0429 0.444257C70.7897 0.697447 70.6474 1.04084 70.6474 1.39891V2.74899H69.2973C68.9393 2.74899 68.5959 2.89123 68.3427 3.14442C68.0895 3.39761 67.9473 3.741 67.9473 4.09907C67.9473 4.45713 68.0895 4.80053 68.3427 5.05372C68.5959 5.30691 68.9393 5.44915 69.2973 5.44915H70.6474V6.79923C70.6474 7.15729 70.7897 7.50069 71.0429 7.75388C71.296 8.00707 71.6394 8.14931 71.9975 8.14931Z" fill="#0BAA4B"/>
<path d="M69.2973 77.0034C69.2973 76.2023 69.0597 75.4192 68.6147 74.7532C68.1696 74.0871 67.5371 73.568 66.797 73.2614C66.0569 72.9549 65.2425 72.8747 64.4569 73.031C63.6712 73.1872 62.9495 73.573 62.3831 74.1394C61.8166 74.7059 61.4309 75.4275 61.2746 76.2132C61.1183 76.9989 61.1985 77.8132 61.5051 78.5533C61.8116 79.2934 62.3308 79.926 62.9968 80.371C63.6629 80.8161 64.446 81.0536 65.247 81.0536C66.3212 81.0536 67.3514 80.6269 68.111 79.8673C68.8705 79.1077 69.2973 78.0776 69.2973 77.0034ZM63.8969 77.0034C63.8969 76.7363 63.9761 76.4753 64.1245 76.2533C64.2728 76.0313 64.4837 75.8582 64.7304 75.7561C64.9771 75.6539 65.2485 75.6271 65.5104 75.6792C65.7723 75.7313 66.0129 75.8599 66.2017 76.0487C66.3905 76.2375 66.5191 76.4781 66.5712 76.74C66.6233 77.0019 66.5965 77.2733 66.4943 77.52C66.3921 77.7667 66.2191 77.9776 65.9971 78.1259C65.7751 78.2743 65.514 78.3534 65.247 78.3534C64.889 78.3534 64.5456 78.2112 64.2924 77.958C64.0392 77.7048 63.8969 77.3614 63.8969 77.0034Z" fill="#0BAA4B"/>
<path d="M89.5485 67.5527C89.1905 67.5527 88.8471 67.695 88.5939 67.9482C88.3407 68.2014 88.1985 68.5448 88.1985 68.9028V70.2529H86.8484C86.4903 70.2529 86.1469 70.3951 85.8937 70.6483C85.6405 70.9015 85.4983 71.2449 85.4983 71.603C85.4983 71.961 85.6405 72.3044 85.8937 72.5576C86.1469 72.8108 86.4903 72.9531 86.8484 72.9531H88.1985V74.3031C88.1985 74.6612 88.3407 75.0046 88.5939 75.2578C88.8471 75.511 89.1905 75.6532 89.5485 75.6532C89.9066 75.6532 90.25 75.511 90.5032 75.2578C90.7564 75.0046 90.8986 74.6612 90.8986 74.3031V72.9531H92.2487C92.6068 72.9531 92.9502 72.8108 93.2033 72.5576C93.4565 72.3044 93.5988 71.961 93.5988 71.603C93.5988 71.2449 93.4565 70.9015 93.2033 70.6483C92.9502 70.3951 92.6068 70.2529 92.2487 70.2529H90.8986V68.9028C90.8986 68.5448 90.7564 68.2014 90.5032 67.9482C90.25 67.695 89.9066 67.5527 89.5485 67.5527Z" fill="#0BAA4B"/>
<path d="M35.5454 45.9517C35.1873 45.9517 34.8439 46.0939 34.5907 46.3471C34.3375 46.6003 34.1953 46.9437 34.1953 47.3017V48.6518H32.8452C32.4871 48.6518 32.1437 48.7941 31.8905 49.0472C31.6374 49.3004 31.4951 49.6438 31.4951 50.0019C31.4951 50.36 31.6374 50.7034 31.8905 50.9566C32.1437 51.2097 32.4871 51.352 32.8452 51.352H34.1953V52.7021C34.1953 53.0601 34.3375 53.4035 34.5907 53.6567C34.8439 53.9099 35.1873 54.0521 35.5454 54.0521C35.9034 54.0521 36.2468 53.9099 36.5 53.6567C36.7532 53.4035 36.8954 53.0601 36.8954 52.7021V51.352H38.2455C38.6036 51.352 38.947 51.2097 39.2002 50.9566C39.4534 50.7034 39.5956 50.36 39.5956 50.0019C39.5956 49.6438 39.4534 49.3004 39.2002 49.0472C38.947 48.7941 38.6036 48.6518 38.2455 48.6518H36.8954V47.3017C36.8954 46.9437 36.7532 46.6003 36.5 46.3471C36.2468 46.0939 35.9034 45.9517 35.5454 45.9517Z" fill="#0BAA4B"/>
<path d="M59.8467 54.052C60.5923 54.052 61.1967 53.4475 61.1967 52.7019C61.1967 51.9563 60.5923 51.3518 59.8467 51.3518C59.101 51.3518 58.4966 51.9563 58.4966 52.7019C58.4966 53.4475 59.101 54.052 59.8467 54.052Z" fill="#0BAA4B"/>
</svg>
