<?xml version="1.0" encoding="utf-8"?>
<!-- Generator: Adobe Illustrator 27.3.1, SVG Export Plug-In . SVG Version: 6.00 Build 0)  -->
<svg version="1.1" id="Layer_1" xmlns="http://www.w3.org/2000/svg" xmlns:xlink="http://www.w3.org/1999/xlink" x="0px" y="0px"
	 viewBox="0 0 1068 296" style="enable-background:new 0 0 1068 296;" xml:space="preserve">
<style type="text/css">
	.st0{fill:#FFFFFF;}
	.st1{fill:#226DB4;}
	.st2{fill:#089949;}
</style>
<g>
	<g>
		<path d="M359.6,140.8h45.3c21,0,38.2,6.7,38.2,30.5c0,12.5-6.4,21-18.5,24.4c15.6,3.1,23.3,11.8,23.3,27.7
			c0,24.5-18.4,32.3-39.9,32.3h-48.3V140.8z M402.1,189c12.5,0,19.5-3.7,19.5-17.2c0-12.6-8.9-15.4-19.9-15.4h-20.5V189H402.1z
			 M405.2,240.1c12.7,0,20.8-4.9,20.8-18.1c0-14.6-10-18.2-22.3-18.2h-22.4v36.3H405.2z"/>
		<path d="M503.2,169.8c25.5,0,45.1,17.9,45.1,43.6c0,26.4-20.6,43.8-46,43.8c-25.6,0-46.1-17.7-46.1-43.4
			C456.2,187.5,477.9,169.8,503.2,169.8z M526.8,213.6c0-15.5-7.8-28.3-24.3-28.3c-17,0-23.7,13.5-23.7,28.9
			c0,14.9,7.9,27.6,24.2,27.6C519.7,241.8,526.8,228.3,526.8,213.6z"/>
		<path d="M601.8,169.8c25.5,0,45.1,17.9,45.1,43.6c0,26.4-20.6,43.8-46,43.8c-25.6,0-46.1-17.7-46.1-43.4
			C554.8,187.5,576.5,169.8,601.8,169.8z M625.3,213.6c0-15.5-7.8-28.3-24.3-28.3c-17,0-23.7,13.5-23.7,28.9
			c0,14.9,7.9,27.6,24.2,27.6C618.3,241.8,625.3,228.3,625.3,213.6z"/>
		<path d="M661.6,133.6h20.1v74.7l30.4-36.6h22.1l-33.4,38.5l35.9,45.5h-23.2l-31.9-41v41h-20.1V133.6z"/>
		<path d="M759.8,136.1c6.5,0,11.7,4.8,11.7,11.5c0,6.6-5,11.4-11.6,11.4c-6.5,0-12-4.9-12-11.5
			C747.9,140.8,753.3,136.1,759.8,136.1z M749.7,171.8h20.1v83.9h-20.1V171.8z"/>
		<path d="M792.5,171.6h20.1V185c5.4-10.4,16.7-15.1,28.4-15.1c20.2,0,29.3,14.2,29.3,33.3v52.6h-20.4v-50.6
			c0-11.8-5.3-18.7-17.2-18.7c-12.6,0-20.1,7.8-20.1,19.9v49.4h-20.1V171.6z"/>
		<path d="M904.4,259.4c4.2,9.3,13.9,12.1,23.2,12.1c14.9,0,23.9-7.1,23.9-22.4v-12.6c-5.7,9.7-17,15.8-28.2,15.8
			c-23.8,0-37.6-18.7-37.6-40.6c0-22.6,14.8-41.9,38.1-41.9c11.4,0,21.8,4.6,27.7,14.7v-12.9h20.2v77.8c0,26.4-19.8,37.1-44.1,37.1
			c-15.6,0-32.3-4.4-39.1-20.2L904.4,259.4z M952.3,210.6c0-14.4-7.8-25.3-23-25.3c-16.1,0-22.9,12.2-22.9,26.8
			c0,13.1,8.2,24.7,22.2,24.7C944.3,236.8,952.3,225.2,952.3,210.6z"/>
		<path d="M1002.6,230.6c3.1,8.2,11.7,12.2,20.8,12.2c6.5,0,14.6-2,14.6-10c0-8.4-9.1-10.4-19.5-12.6c-13.5-2.8-28.6-6.1-28.6-25
			c0-17.3,16.1-25.5,31.3-25.5c13.3,0,28.6,5,34.1,18.3l-14.9,6.4c-3.3-7.5-11.5-10.3-18.4-10.3c-6.7,0-13.1,2.7-13.1,9.5
			c0,7.7,8.2,9.3,18.4,11.3c13.7,2.7,30.1,5.8,30.1,25.4c0,19.8-16.6,26.8-34.1,26.8c-14.8,0-30.8-5-36-20.1L1002.6,230.6z"/>
	</g>
	<g>
		<path d="M359.8,104.4l37-53.4h-33.2V40.5h50.6v5.2l-36.1,53.4h35v10.5h-53.3V104.4z"/>
		<path d="M445.8,58c15.4,0,27.2,10.8,27.2,26.3c0,15.9-12.4,26.4-27.7,26.4c-15.4,0-27.8-10.7-27.8-26.1
			C417.5,68.6,430.6,58,445.8,58z M460,84.3c0-9.3-4.7-17.1-14.7-17.1c-10.2,0-14.3,8.1-14.3,17.4c0,9,4.8,16.6,14.6,16.6
			C455.7,101.3,460,93.2,460,84.3z"/>
		<path d="M481.8,36.1h12.1v31c3.3-6.3,9.9-9.1,16.9-9.1C523,58,529,66.5,529,78v31.7h-12.2V79.2c0-7.3-3.8-11.3-10.8-11.3
			c-7.8,0-12.1,4.8-12.1,12v29.7h-12.1V36.1z"/>
		<path d="M565.2,58c15.4,0,27.2,10.8,27.2,26.3c0,15.9-12.4,26.4-27.7,26.4c-15.4,0-27.8-10.7-27.8-26.1
			C536.9,68.6,549.9,58,565.2,58z M579.3,84.3c0-9.3-4.7-17.1-14.7-17.1c-10.2,0-14.3,8.1-14.3,17.4c0,9,4.8,16.6,14.6,16.6
			C575.1,101.3,579.3,93.2,579.3,84.3z"/>
	</g>
</g>
<g>
	<g>
		<path class="st1" d="M287.8,73.3c-4.7-11.1-11.5-21.1-20-29.7c-8.6-8.6-18.6-15.3-29.7-20c-3.7-1.6-7.5-2.9-11.3-3.9v-8
			c0-4.7-3.8-8.5-8.5-8.5c-4.7,0-8.5,3.8-8.5,8.5v4.9c-2.7-0.2-5.4-0.4-8.1-0.4h-85.7c-4.7,0-8.5,3.8-8.5,8.5s3.8,8.5,8.5,8.5h85.7
			c2.7,0,5.4,0.1,8.1,0.4V38c0,4.7,3.8,8.5,8.5,8.5s8.5-3.8,8.5-8.5v-0.6c10.8,3.7,20.7,9.9,29,18.2c14.5,14.5,22.4,33.7,22.4,54.1
			v89.7c0,20.4-8,39.7-22.4,54.1C241.3,268,222.1,276,201.6,276h-20.8c-4.7,0-8.5,3.8-8.5,8.5c0,4.7,3.8,8.5,8.5,8.5h20.8
			c12.6,0,24.9-2.5,36.4-7.4c11.1-4.7,21.1-11.5,29.7-20c8.6-8.6,15.3-18.6,20-29.7c4.9-11.5,7.4-23.8,7.4-36.4v-89.7
			C295.1,97.1,292.7,84.9,287.8,73.3z"/>
		<path class="st1" d="M192.1,199.4c0-12.6-2.5-24.9-7.4-36.4c-4.7-11.1-11.5-21.1-20-29.7s-18.6-15.3-29.7-20
			c-11.5-4.9-23.8-7.4-36.4-7.4s-24.9,2.5-36.4,7.4c-11.1,4.7-21.1,11.5-29.7,20c-3.8,3.8-7.3,8-10.4,12.3v-35.9
			c0-17.8,6.3-35.1,17.6-48.8C48.6,50.1,60.4,42,73.4,37.5v0.4c0,4.7,3.8,8.5,8.5,8.5c4.7,0,8.5-3.8,8.5-8.5V26.5c0,0,0-0.1,0-0.1
			V11.5c0-4.7-3.8-8.5-8.5-8.5c-4.7,0-8.5,3.8-8.5,8.5v8.1C55.2,24.7,38.8,35.4,26.6,50c-6.8,8.2-12.1,17.4-15.8,27.4
			C7,87.8,5.1,98.6,5.1,109.7v89.7c0,12.6,2.5,24.9,7.4,36.4c4.7,11.1,11.5,21.1,20,29.7c8.6,8.6,18.6,15.3,29.7,20
			c11.5,4.9,23.8,7.4,36.4,7.4c0.5,0,0.9,0,1.4-0.1c12.1-0.2,23.9-2.6,35-7.3c11.1-4.7,21.1-11.5,29.7-20c8.6-8.6,15.3-18.6,20-29.7
			C189.6,224.3,192.1,212,192.1,199.4z M152.7,253.5c-14.5,14.5-33.7,22.4-54.1,22.4s-39.7-8-54.1-22.4
			C30,239,22.1,219.8,22.1,199.4s8-39.7,22.4-54.1s33.7-22.4,54.1-22.4s39.7,8,54.1,22.4c14.5,14.5,22.4,33.7,22.4,54.1
			S167.2,239,152.7,253.5z"/>
	</g>
	<g>
		<path class="st2" d="M98.6,208c-2.3,0-4.5-0.9-6.2-2.7l-27.5-29.3c-3.2-3.4-3-8.8,0.4-12c3.4-3.2,8.8-3,12,0.4L99,187.5l78.2-72.8
			c3.4-3.2,8.8-3,12,0.4c3.2,3.4,3,8.8-0.4,12l-84.4,78.6C102.8,207.2,100.7,208,98.6,208z"/>
	</g>
</g>
</svg>
