<?xml version="1.0" encoding="utf-8"?>
<!-- Generator: Adobe Illustrator 16.0.0, SVG Export Plug-In . SVG Version: 6.00 Build 0)  -->
<!DOCTYPE svg PUBLIC "-//W3C//DTD SVG 1.1//EN" "http://www.w3.org/Graphics/SVG/1.1/DTD/svg11.dtd">
<svg version="1.1" id="Layer_1" xmlns="http://www.w3.org/2000/svg" xmlns:xlink="http://www.w3.org/1999/xlink" x="0px" y="0px"
	 width="1394px" height="1058px" viewBox="0 0 1394 1058" enable-background="new 0 0 1394 1058" xml:space="preserve">
<g>
	<path fill="#743A83" d="M696.151,756.842c-210.273-0.602-378.817-170.34-377.556-381.521
		C319.839,167.163,490.697-0.299,698.509,0.717c207.615,1.015,376.979,171.361,375.873,378.705
		C1073.267,588.494,903.96,757.438,696.151,756.842z M696.651,124.392c1.042,1.801,1.821,3.047,2.504,4.345
		c41.961,79.893,83.917,159.789,125.864,239.688c40.634,77.395,81.256,154.795,121.894,232.188c3.188,6.069,3.771,6.123,8.161,1.137
		c0.33-0.375,0.666-0.746,0.983-1.131c65.997-79.69,92.768-170.907,77.96-273.309c-10.94-75.676-44.65-140.729-100.021-193.438
		c-80.229-76.372-176.037-107.737-285.963-93.08c-74.43,9.924-138.772,42.151-191.507,95.391
		c-79.059,79.815-112.137,176.327-98.396,287.979c8.256,67.069,35.744,126.058,79.577,177.441c1.136,1.331,2.528,2.446,4.69,4.516
		c22.793-43.205,45.182-85.643,67.873-128.656c1.223,1.967,2.024,3.356,2.92,4.685c6.42,9.521,12.642,19.19,19.41,28.459
		c2.358,3.228,2.479,5.417,0.633,8.846c-18.793,34.89-37.494,69.829-56.021,104.86c-6.844,12.938-8.63,9.508,4.166,19.631
		c76.42,60.465,163.088,85.455,259.885,73.264c65.256-8.219,123.055-34.215,173.86-75.951c4.121-3.385,4.658-6.018,2.107-10.826
		c-42.358-79.875-84.511-159.854-126.715-239.81c-30.003-56.838-60.005-113.677-90.069-170.482c-0.87-1.644-2.459-2.908-3.712-4.35
		c-1.257,1.447-2.557,2.86-3.749,4.357c-0.511,0.64-0.802,1.456-1.193,2.19c-40.229,75.351-80.458,150.703-120.698,226.048
		c-0.735,1.379-1.611,2.685-2.739,4.549c-8.817-14.401-15.438-29.044-19.705-44.689c-0.485-1.779,0.412-4.262,1.355-6.057
		c43.884-83.396,87.838-166.757,131.805-250.111C686.613,142.968,691.536,133.926,696.651,124.392z"/>
	<path fill="#743A83" d="M230.702,972.928c12.9,12.486,25.514,24.693,38.668,37.427c8.267-12.23,15.24-24.212,17.805-38.173
		c0.976-5.313-3.691-6.489-7.574-7.521c-3.51-0.932-5.322-2.531-3.613-6.658c12.773,0,25.691,0,38.775,0
		c2.209,3.486,1.292,5.945-2.949,6.543c-6.365,0.898-9.721,4.963-12.473,10.283c-6.876,13.293-14.084,26.416-20.927,39.725
		c-0.622,1.209-0.188,3.967,0.791,4.832c8.356,7.377,16.591,14.982,25.618,21.467c4.961,3.564,11.369,5.125,17.145,7.541
		c0.91,0.382,2.256,0.203,2.823,0.818c0.982,1.064,2.139,2.605,2.022,3.832c-0.084,0.881-2.123,2.248-3.291,2.248
		c-11.155,0.004-22.339,0.164-33.451-0.615c-4.203-0.295-8.715-2.227-12.246-4.641c-5.715-3.906-10.736-8.828-16.328-13.555
		c-1.436,1.293-2.77,2.504-4.113,3.703c-18.18,16.219-39.332,20.254-62.412,14.278c-21.118-5.469-30.805-26.856-21.967-47.086
		c4.746-10.862,13.375-18.057,23.043-24.248c1.924-1.229,3.896-2.387,6.118-3.744c-4.479-5.481-8.815-10.471-12.788-15.733
		c-5.043-6.685-8.134-14.199-7.426-22.742c1.163-14.037,9.67-22.225,22.338-26.496c9.898-3.338,20.035-3.148,29.977-0.006
		c16.016,5.061,23.02,20.311,16.588,35.865c-3.2,7.742-8.506,13.85-15.166,18.84C234.243,970.195,232.818,971.307,230.702,972.928z
		 M208.022,985.854c-8.559,8.211-13.453,17.852-13.861,29.536c-0.502,14.354,7.025,23.91,21.125,26.337
		c9.006,1.549,18.004,0.774,26.217-3.591c4.276-2.274,8.093-5.413,12.277-8.272C238.111,1014.793,223.188,1000.439,208.022,985.854z
		 M222.495,966.172c0.904-0.092,1.809-0.184,2.713-0.272c2.46-5.507,5.371-10.859,7.26-16.556c2.087-6.293,1.705-12.84-1.152-18.965
		c-2.881-6.172-9.465-9.498-15.559-8.129c-6.534,1.467-10.81,6.588-10.586,13.76c0.111,3.537,0.715,7.578,2.568,10.438
		C212.195,953.322,217.521,959.633,222.495,966.172z"/>
	<path fill="#743A83" d="M543.521,1054.34c-1.746-3.92-0.771-6.08,3.616-7.235c14.988-3.943,15.143-4.246,15.106-19.556
		c-0.084-36.313-0.203-72.625-0.298-108.938c-0.031-12.144-0.927-13.314-12.982-15.914c-4.139-0.894-8.166-1.644-6.03-7.345
		c5.7,0,11.307-0.002,16.91,0c20.649,0,41.325-0.6,61.94,0.244c11.348,0.463,23.1,1.857,33.795,5.441
		c28.782,9.645,44.096,31.188,47.813,60.729c3.842,30.513-4.755,56.789-29.739,76.179c-15.12,11.731-33.005,15.323-51.667,15.664
		c-25.643,0.467-51.287,0.696-76.933,1.014C544.58,1054.627,544.104,1054.451,543.521,1054.34z M584.171,971.539
		c0.033,0,0.068,0,0.104,0c0,0.666,0,1.332,0,1.998c0.003,19.322-0.005,38.643,0.013,57.965c0.008,8.176,2.123,10.596,10.281,11.738
		c13.32,1.866,26.611,1.356,39.742-1.326c24.576-5.021,39.35-19.523,43.229-44.232c1.758-11.188,1.648-22.897,0.74-34.237
		c-2.254-28.144-18.555-47.713-44.611-55.17c-15.313-4.384-31.017-3.39-46.646-3.388c-3.418,0-2.83,2.638-2.833,4.691
		C584.158,930.232,584.171,950.887,584.171,971.539z"/>
	<path fill="#743A83" d="M320.72,895.813c22.423,0,44.518,0,66.723,0c2.096,5.653,1.225,7.122-4.618,8.09
		c-2.936,0.485-6.253,0.78-8.554,2.379c-2.301,1.598-5.033,4.711-5.033,7.16c-0.002,30.641,0.144,61.293,1.058,91.916
		c0.19,6.373,2.886,13.032,5.789,18.885c6.228,12.547,17.875,16.838,30.989,17.549c5.604,0.305,11.387,0.012,16.891-1.045
		c17.457-3.355,27.165-14.402,29.379-33.723c1.02-8.896,1.043-17.931,1.108-26.904c0.148-20.494,0.05-40.99,0.046-61.486
		c-0.002-10.795-2.213-13.303-13.024-14.818c-6.134-0.86-6.457-1.297-5.721-8.079c16.811,0,33.658,0,50.538,0
		c1.564,5.698,0.7,7.112-4.953,7.961c-10.914,1.637-13.111,4.221-13.121,15.397c-0.022,28.324,0.251,56.652-0.284,84.967
		c-0.139,7.33-2.022,14.896-4.492,21.861c-5.728,16.145-18.128,25.131-34.462,28.699c-17.848,3.897-35.8,3.498-53.458-1.047
		c-22.849-5.881-35.279-21.777-35.93-46.828c-0.764-29.472-0.657-58.963-0.88-88.447c-0.08-10.605-1.75-12.635-12.218-14.283
		C319.914,902.979,319.759,902.768,320.72,895.813z"/>
	<path fill="#743A83" d="M165.886,1055.34c-21.6,0-43.174,0-64.777,0c-1.553-5.703-1.036-6.615,4.33-7.994
		c1.92-0.491,3.866-1.045,5.647-1.891c3.444-1.64,5.035-4.297,3.615-8.15c-4.083-11.08-8.089-22.192-12.432-33.174
		c-0.53-1.342-2.914-2.748-4.458-2.77c-14.82-0.207-29.646-0.056-44.469-0.181c-3.186-0.024-4.291,1.681-5.22,4.234
		c-3.693,10.162-7.515,20.275-11.254,30.422c-2.177,5.904-0.88,8.666,5.035,10.699c1.565,0.537,3.198,1.037,4.833,1.18
		c4.965,0.432,6.175,3.107,4.822,7.672c-16.399,0-32.794,0-49.283,0c-1.816-5.522-1.217-6.977,4.477-7.955
		c7.973-1.371,12.67-5.668,15.787-13.295c18.13-44.35,36.666-88.531,55.069-132.77c0.447-1.074,0.925-2.138,1.411-3.195
		c1.441-3.133,4.058-4.828,7.236-3.795c1.936,0.627,4.102,2.568,4.877,4.449c18.688,45.377,37.335,90.772,55.609,136.317
		c2.857,7.121,7.552,10.529,14.534,11.962C166.965,1048.272,167.655,1049.613,165.886,1055.34z M96.859,989.459
		c-7.122-18.701-13.845-36.352-20.567-54.002c-0.47,0.063-0.939,0.123-1.408,0.186C68.077,953.371,61.27,971.1,54.22,989.459
		C68.681,989.459,82.202,989.459,96.859,989.459z"/>
	<path fill="#743A83" d="M881.402,1054.084c-14.259,0-28.204,0-42.501,0c-1.207-3.342-0.787-5.842,3.68-6.379
		c1.313-0.158,2.612-0.525,3.882-0.918c6.319-1.943,7.97-4.14,7.964-10.849c-0.017-21.487-0.089-42.977-0.118-64.465
		c-0.021-14.659-0.001-29.319-0.006-43.979c-0.004-9.979-1.356-11.85-11.271-13.516c-4.299-0.722-5.285-2.615-4.312-5.722
		c10.66,0,20.946-0.229,31.205,0.203c1.947,0.082,4.201,2.473,5.608,4.332c24.715,32.674,49.318,65.43,73.953,98.166
		c1.482,1.971,3.005,3.914,5.662,5.686c0.093-1.475,0.267-2.948,0.268-4.424c0.015-27.487,0.01-54.975,0.008-82.461
		c-0.001-11.938-1.638-13.979-13.556-15.938c-4.219-0.695-6.09-2.345-4.188-6.588c14.026,0,27.96,0,42.191,0
		c1.338,3.622,0.479,5.77-4.056,6.606c-9.18,1.697-10.729,3.803-10.723,13.07c0.033,40.646,0.078,81.293,0.118,121.938
		c0.002,2.135,0,4.271,0,6.316c-4.957,1.99-7.212-0.975-9.467-3.937c-18.972-24.905-37.943-49.813-56.915-74.721
		c-9.99-13.115-19.979-26.234-29.979-39.344c-1.048-1.373-2.179-2.685-3.271-4.025c-0.454,0.14-0.908,0.275-1.362,0.412
		c0,1.889-0.004,3.775,0,5.662c0.063,31.315,0.131,62.633,0.188,93.951c0.019,10.438,1.356,12.114,11.849,14.182
		C879.922,1048.072,883.448,1048.658,881.402,1054.084z"/>
	<path fill="#743A83" d="M801.376,1000.475c-4.571,1.414-6.43-0.323-7.004-4.582c-0.349-2.588-0.931-5.586-2.521-7.446
		c-1.956-2.289-4.993-4.916-7.699-5.076c-10.13-0.594-20.314-0.162-30.477-0.283c-3.332-0.041-4.319,1.422-4.276,4.525
		c0.219,16.153,0.354,32.309,0.445,48.463c0.022,4.051,2.322,6.313,5.85,7.012c4.709,0.934,9.525,1.535,14.321,1.77
		c5.981,0.296,11.99,0.017,17.986,0.082c11.2,0.125,19.99-4.407,26.292-13.627c2.063-3.016,3.952-6.176,5.632-9.42
		c2.06-3.979,4.599-4.243,7.978-1.686c-2.584,9.758-5.146,19.361-7.666,28.979c-1.045,3.988-3.419,5.406-7.647,5.39
		c-32.803-0.14-65.606-0.049-98.412-0.037c-0.65,0-1.303-0.086-2.176-0.146c-1.551-3.677-0.958-6.074,3.415-6.66
		c0.822-0.109,1.629-0.343,2.441-0.521c9.806-2.184,11.562-4.318,11.548-14.164c-0.046-34.822-0.105-69.643-0.158-104.465
		c-0.017-10.188-1.203-11.693-11.016-13.932c-1.297-0.295-2.901-0.187-3.831-0.931c-1.443-1.153-2.431-2.881-3.609-4.366
		c1.403-0.734,2.811-2.117,4.209-2.107c18.32,0.123,36.64,0.695,54.958,0.625c12.307-0.049,24.614-0.861,36.914-1.479
		c5.564-0.279,7.148,0.643,8.168,6.225c1.632,8.945,3.079,17.924,4.67,27.27c-2.817,1.49-5.204,0.855-6.724-2.641
		c-0.397-0.916-0.92-1.777-1.295-2.701c-5.387-13.281-15.488-18.822-29.513-18.414c-9.156,0.267-18.328,0.168-27.489-0.004
		c-3.716-0.067-5.385,0.918-5.337,5.033c0.188,16.326,0.132,32.654,0.034,48.982c-0.021,3.307,0.936,4.885,4.531,4.791
		c10.32-0.271,20.669,0.01,30.955-0.681c2.525-0.17,5.595-2.744,7.086-5.065c1.709-2.664,1.609-6.429,2.959-9.412
		c0.639-1.414,2.821-2.131,4.306-3.164c0.718,1.387,2.041,2.764,2.059,4.158C801.44,973.896,801.376,987.027,801.376,1000.475z"/>
	<path fill="#743A83" d="M1162.406,1053.26c-14.958,0-29.54,0-44.318,0c-1.577-3.938-0.122-6.143,4.167-6.646
		c8.328-0.979,12.907-5.652,16.073-13.49c16.452-40.727,33.396-81.254,50.171-121.85c0.254-0.615,0.399-1.336,0.817-1.813
		c1.544-1.758,3.181-3.434,4.781-5.141c1.367,1.662,3.246,3.11,4.024,5.014c16.84,41.107,33.751,82.191,50.13,123.482
		c3.151,7.946,7.852,12.403,16.065,13.477c4.271,0.56,5.79,2.729,4.127,7.328c-3.702-0.236-7.473-0.713-11.237-0.676
		c-13.313,0.133-26.625,0.518-39.938,0.58c-1.518,0.008-3.042-1.412-4.563-2.171c1.209-1.434,2.164-3.725,3.665-4.168
		c13.021-3.84,13.209-4.045,8.39-16.666c-3.502-9.17-7.094-18.307-10.474-27.521c-1.064-2.902-2.608-4.156-5.831-4.109
		c-13.99,0.201-27.984,0.23-41.978,0.173c-3.059-0.015-4.84,0.868-5.985,3.924c-4.033,10.748-8.388,21.375-12.536,32.08
		c-2.48,6.397-1.366,8.672,5.104,10.744c1.737,0.555,3.529,1.11,5.33,1.262C1162.39,1047.404,1163.66,1049.326,1162.406,1053.26z
		 M1188.551,936.133c-0.49,0.002-0.982,0.004-1.475,0.006c-7.004,17.822-14.008,35.646-21.194,53.933c14.799,0,28.654,0,43.265,0
		C1202.129,971.693,1195.34,953.912,1188.551,936.133z"/>
	<path fill="#743A83" d="M1029.11,1053.266c-1.205-3.813-0.308-5.844,3.791-6.44c3.759-0.549,7.493-1.553,11.103-2.762
		c4.068-1.363,6.018-4.478,6.001-8.818c-0.145-37.812-0.387-75.623-0.271-113.435c0.016-5.225-1.522-6.604-6.47-6.278
		c-6.637,0.436-13.317,0.217-19.979,0.235c-11.092,0.033-19.021,5.14-24.057,14.919c-0.99,1.924-2.089,3.809-2.901,5.807
		c-1.467,3.602-3.844,4.19-7.458,2.457c2.04-9.74,4.051-19.443,6.115-29.137c0.68-3.191,2.84-3.959,5.934-3.916
		c31.467,0.44,62.934,0.86,94.402,1.059c7.308,0.045,14.659-0.447,21.92-1.301c5.096-0.601,7.398,1.264,8.332,6.057
		c1.589,8.158,3.517,16.25,5.07,24.414c0.19,1.004-1.182,3.305-1.58,3.248c-1.774-0.25-4.074-0.662-5.043-1.904
		c-1.807-2.313-2.766-5.276-4.17-7.922c-4.909-9.24-12.651-13.84-23.088-13.897c-7.33-0.041-14.662,0.104-21.988-0.074
		c-3.312-0.08-4.745,0.781-4.727,4.434c0.2,38.313,0.281,76.627,0.321,114.939c0.006,5.301,2.555,8.483,7.437,9.875
		c3.028,0.862,6.137,1.631,9.26,1.951c4.594,0.473,4.947,2.896,3.755,6.491C1070.229,1053.266,1049.83,1053.266,1029.11,1053.266z"
		/>
	<path fill="#743A83" d="M1280.784,906.678c19.425,0,38.511,0,57.955,0c1.268,3.588,0.854,5.693-3.929,6.566
		c-16.334,2.979-16.663,3.567-16.646,19.963c0.036,33.488,0.082,66.975,0.142,100.463c0.014,6.883,1.844,9.891,8.226,10.147
		c11.792,0.474,23.683,0.72,35.42-0.27c12.775-1.078,19.008-10.563,23.019-21.578c1.587-4.354,3.636-5.744,7.667-2.731
		c-1.683,10.301-3.417,20.592-5.021,30.901c-0.581,3.736-3.149,3.662-5.939,3.603c-15.145-0.336-30.291-0.888-45.437-0.875
		c-17.149,0.014-34.298,0.608-51.448,0.748c-1.703,0.014-4.526-1.033-4.905-2.207c-0.89-2.765,1.294-3.765,3.957-4.369
		c14.019-3.187,14.24-3.521,14.2-17.885c-0.094-33.484-0.23-66.968-0.331-100.451c-0.035-12.049-0.67-12.863-12.647-15.523
		C1280.154,912.09,1280.154,912.09,1280.784,906.678z"/>
	<path fill="#743A83" d="M490.462,159.865c2.221-0.135,4.012-0.333,5.802-0.339c9.164-0.032,18.34,0.231,27.489-0.117
		c4.715-0.179,6.302,1.08,6.244,6.035c-0.26,22.325-0.136,44.655-0.109,66.983c0.054,43.821-1.662,87.736,0.612,131.442
		c3.607,69.309,34.503,124.006,95.239,159.638c24.731,14.511,52.223,19.04,80.896,17.059c47.276-3.271,83.742-25.975,113.132-61.805
		c0.737-0.897,1.493-1.779,2.256-2.657c0.101-0.114,0.285-0.155,0.964-0.506c1.832,3.391,3.699,6.802,5.525,10.235
		c4.454,8.377,9.021,16.701,13.203,25.212c0.716,1.456,0.489,4.389-0.537,5.54c-35.117,39.394-77.838,63.987-131.482,67.349
		c-65.599,4.109-118.35-21.063-160.716-70.109c-32.188-37.266-50.972-80.444-56.503-129.311c-1.271-11.225-1.895-22.58-1.929-33.878
		c-0.183-61.318-0.087-122.638-0.087-183.957C490.462,164.54,490.462,162.401,490.462,159.865z"/>
	<path fill="#743A83" d="M950.836,583.42c-5.36-6.453-5.333-6.777-0.689-12.949c35.137-46.71,56.346-98.964,62.491-157.2
		c16.388-155.247-80.515-298.503-230.651-340.999c-153.894-43.558-318.989,36.957-379.558,185.017
		c-19.391,47.404-27.336,96.621-23.104,147.62c5.025,60.562,25.824,115.296,62.282,163.998c5.125,6.846,5.146,6.83,0.463,14.014
		c-83.085-95.751-111.72-277.391,5.354-415.977C568.181,24,786.518,12.333,921.462,141.593
		C1057.335,271.743,1047.268,468.787,950.836,583.42z"/>
	<path fill="#743A83" d="M881.688,453.039c-6.012-11.438-11.086-22.706-17.616-33.053c-6.188-9.804-7.148-19.201-4.714-30.473
		c2.682-12.423,3.735-25.4,3.812-38.147c0.367-61.463,0.166-122.931,0.166-184.396c0-2.15,0-4.3,0-7.002
		c2.583-0.167,4.825-0.425,7.068-0.436c9.161-0.047,18.325,0.095,27.482-0.074c3.467-0.064,4.613,1.156,4.604,4.618
		c-0.188,67.626,0.19,135.258-0.63,202.876c-0.344,28.313-7.298,55.685-18.015,81.975
		C883.36,450.118,882.651,451.218,881.688,453.039z"/>
	<path fill="#743A83" d="M708.701,374.608c4.773-13.365,2.288-21.792-7.025-25.871c-8.25-3.612-17.72-0.22-21.701,7.776
		c-4.562,9.159-0.419,17.796,12.067,25.164c-6.285,3.271-12.826,6.136-18.811,9.887c-25.945,16.261-26.477,52.608-0.87,69.408
		c13.859,9.095,28.739,9.438,43.041,1.149c14.662-8.497,21.414-21.823,20.728-38.836c-0.144-3.553-1.359-5.547-5.418-5.235
		c-5.799,0.446-11.679,0.128-17.425,0.885c-3.149,0.415-7.072,1.554-8.934,3.791c-4.184,5.027-9.588,5.327-15.149,5.9
		c-2.797,0.288-5.604,0.466-8.438,0.696c3.913-13.549,20.628-25.633,36.158-26.091c5.827-0.172,11.664,0.003,17.492-0.15
		c6.361-0.167,12.017-2.115,16.821-6.571c1.127-1.045,3.499-1.538,5.049-1.186c3.987,0.904,7.834,2.427,11.738,3.702
		c0.257,0.563,0.515,1.127,0.771,1.69c-4.621,3.865-9.002,8.085-13.96,11.456c-2.727,1.854-3.838,3.189-3.3,6.652
		c4.548,29.281-16.546,58.995-45.227,64.021c-31.786,5.57-61.46-13.631-67.317-44.243c-4.529-23.659,2.933-43.412,21.898-58.411
		c2.885-2.28,3.334-4.012,2.451-7.366c-4.214-16.012,3.298-32.038,17.891-38.829c14.177-6.598,31.056-2.041,40.436,11.017
		c5.452,7.589,6.814,16.075,5.236,25.182c-0.583,3.363-2.177,4.792-5.761,4.488C717.215,374.352,713.232,374.608,708.701,374.608z"
		/>
	<path fill="#743A83" d="M486.847,629.383c1.313-2.479,2.534-4.793,4.071-7.701c59.681,48.955,127.674,74.916,204.618,75.117
		c76.833,0.201,144.886-25.201,204.448-73.52c5.688,5.592,5.686,6.836-0.153,11.43c-45.597,35.857-96.898,58.912-154.374,67.168
		c-94.696,13.602-179.537-10.037-254.665-69.047C489.501,631.816,488.315,630.672,486.847,629.383z"/>
</g>
</svg>
