<?xml version="1.0" encoding="utf-8"?>
<!-- Generator: Adobe Illustrator 26.3.1, SVG Export Plug-In . SVG Version: 6.00 Build 0)  -->
<svg version="1.1" id="Layer_1" xmlns="http://www.w3.org/2000/svg" xmlns:xlink="http://www.w3.org/1999/xlink" x="0px" y="0px"
	 viewBox="0 0 1230 296" style="enable-background:new 0 0 1230 296;" xml:space="preserve">
<style type="text/css">
	.st0{fill:#FFFFFF;}
	.st1{fill:#E42527;}
	.st2{fill:#226DB4;}
</style>
<g>
	<g>
		<path d="M463.52,224.05c-1.78,5.44-4.34,10.23-7.69,14.36c-3.35,4.13-7.22,7.6-11.61,10.4c-4.39,2.8-9.21,4.9-14.44,6.32
			c-5.23,1.41-10.62,2.12-16.17,2.12c-9.26,0-17.46-1.41-24.6-4.24c-7.14-2.83-13.14-6.83-18.01-12.01
			c-4.87-5.18-8.55-11.44-11.06-18.79c-2.51-7.35-3.77-15.52-3.77-24.52c0-8.26,1.37-15.96,4.12-23.07
			c2.75-7.11,6.6-13.3,11.57-18.56c4.97-5.26,10.95-9.39,17.93-12.4c6.98-3.01,14.71-4.51,23.19-4.51c5.44,0,10.66,0.66,15.66,1.96
			c5,1.31,9.64,3.26,13.93,5.85c4.29,2.59,8.12,5.82,11.5,9.69c3.38,3.87,6.13,8.37,8.28,13.5l-18.36,7.77
			c-1.2-3.14-2.8-6.03-4.79-8.67c-1.99-2.64-4.28-4.91-6.87-6.79c-2.59-1.88-5.44-3.35-8.55-4.39c-3.11-1.05-6.4-1.57-9.85-1.57
			c-6.07,0-11.27,1.19-15.62,3.57c-4.34,2.38-7.9,5.53-10.67,9.46c-2.77,3.92-4.81,8.41-6.12,13.46c-1.31,5.05-1.96,10.21-1.96,15.5
			c0,5.55,0.69,10.79,2.08,15.73c1.39,4.94,3.52,9.29,6.4,13.03c2.88,3.74,6.51,6.71,10.91,8.91c4.39,2.2,9.57,3.29,15.54,3.29
			c3.77,0,7.28-0.55,10.55-1.65c3.27-1.1,6.22-2.65,8.87-4.67c2.64-2.01,4.96-4.43,6.95-7.26c1.99-2.83,3.63-5.96,4.94-9.42
			L463.52,224.05z"/>
		<path d="M527.4,245.4c-3.19,4.24-7.02,7.27-11.5,9.1c-4.47,1.83-9.33,2.75-14.56,2.75c-3.92,0-7.6-0.5-11.03-1.49
			c-3.43-0.99-6.41-2.51-8.95-4.55c-2.54-2.04-4.54-4.59-6-7.65c-1.47-3.06-2.2-6.66-2.2-10.79c0-3.87,0.64-7.23,1.92-10.08
			c1.28-2.85,3.01-5.27,5.18-7.26c2.17-1.99,4.72-3.61,7.65-4.87c2.93-1.26,6.03-2.24,9.3-2.94c3.27-0.71,6.63-1.19,10.08-1.45
			c3.45-0.26,6.8-0.39,10.04-0.39h9.89v-1.33c0-2.98-0.22-5.69-0.67-8.12c-0.45-2.43-1.27-4.5-2.47-6.2
			c-1.2-1.7-2.86-3.01-4.98-3.92c-2.12-0.91-4.88-1.37-8.28-1.37c-4.08,0-7.83,1.03-11.26,3.1c-3.43,2.07-5.9,5.04-7.42,8.91
			l-15.62-6.75c1.41-3.71,3.4-6.85,5.96-9.42c2.56-2.56,5.47-4.66,8.71-6.28c3.24-1.62,6.72-2.79,10.44-3.49
			c3.71-0.71,7.46-1.06,11.22-1.06c4.97,0,9.55,0.62,13.73,1.84c4.18,1.23,7.81,3.1,10.87,5.61s5.44,5.72,7.14,9.61
			s2.55,8.51,2.55,13.85v54.93H527.4V245.4z M517.12,218.09c-2.3,0-4.85,0.12-7.65,0.35c-2.8,0.24-5.41,0.82-7.85,1.77
			c-2.43,0.94-4.46,2.33-6.08,4.16c-1.62,1.83-2.43,4.34-2.43,7.53c0,2.04,0.34,3.75,1.02,5.14c0.68,1.39,1.63,2.52,2.86,3.41
			c1.23,0.89,2.65,1.53,4.28,1.92c1.62,0.39,3.37,0.59,5.26,0.59c2.56,0,5.07-0.34,7.53-1.02c2.46-0.68,4.67-1.7,6.63-3.06
			c1.96-1.36,3.54-3.1,4.75-5.22c1.2-2.12,1.81-4.59,1.81-7.42v-8.16H517.12z"/>
		<path d="M568.36,171.64h20.09v12.87c1.26-2.41,2.81-4.52,4.67-6.36c1.86-1.83,3.92-3.36,6.2-4.59c2.28-1.23,4.71-2.16,7.3-2.79
			c2.59-0.63,5.24-0.94,7.96-0.94c2.62,0,5.17,0.29,7.65,0.86c2.48,0.58,4.81,1.48,6.98,2.71c2.17,1.23,4.09,2.79,5.77,4.67
			c1.67,1.88,3.01,4.13,4,6.75c3.19-4.81,7.38-8.51,12.56-11.1c5.18-2.59,10.78-3.88,16.79-3.88c4.81,0,9,0.84,12.56,2.51
			c3.56,1.67,6.51,3.96,8.87,6.87s4.11,6.34,5.26,10.32c1.15,3.98,1.73,8.29,1.73,12.95v53.2h-20.01v-51.95
			c0-5.28-1.32-9.5-3.96-12.63c-2.64-3.14-6.66-4.71-12.05-4.71c-2.93,0-5.52,0.48-7.77,1.45c-2.25,0.97-4.13,2.29-5.65,3.96
			c-1.52,1.67-2.67,3.68-3.45,6c-0.79,2.33-1.18,4.85-1.18,7.57v50.3h-20.09v-51.95c0-5.28-1.33-9.5-4-12.63
			c-2.67-3.14-6.7-4.71-12.08-4.71c-2.88,0-5.44,0.48-7.69,1.45c-2.25,0.97-4.15,2.29-5.69,3.96c-1.54,1.67-2.71,3.68-3.49,6
			c-0.78,2.33-1.18,4.85-1.18,7.57v50.3h-20.09V171.64z"/>
		<path d="M717.93,171.64h20.09v13.58c1.46-2.46,3.26-4.64,5.38-6.55c2.12-1.91,4.45-3.52,6.98-4.83c2.54-1.31,5.21-2.3,8-2.98
			c2.8-0.68,5.61-1.02,8.44-1.02c6.43,0,12.03,1.19,16.79,3.57c4.76,2.38,8.71,5.58,11.85,9.61c3.14,4.03,5.49,8.66,7.06,13.89
			c1.57,5.23,2.35,10.72,2.35,16.48c0,5.91-0.81,11.52-2.43,16.83c-1.62,5.31-4.02,9.97-7.18,13.97s-7.09,7.18-11.77,9.53
			c-4.68,2.35-10.06,3.53-16.13,3.53c-2.93,0-5.85-0.3-8.75-0.9c-2.9-0.6-5.65-1.5-8.24-2.71c-2.59-1.2-4.94-2.73-7.06-4.59
			c-2.12-1.86-3.88-4.04-5.3-6.55v41.98h-20.09V171.64z M761.25,241.55c4.45,0,8.13-0.77,11.06-2.31s5.27-3.62,7.02-6.24
			c1.75-2.62,2.99-5.65,3.73-9.1c0.73-3.45,1.1-7.11,1.1-10.99c0-3.56-0.46-6.98-1.37-10.28c-0.92-3.3-2.33-6.21-4.24-8.75
			c-1.91-2.54-4.34-4.56-7.3-6.08c-2.96-1.52-6.5-2.28-10.63-2.28s-7.68,0.77-10.63,2.32c-2.96,1.54-5.38,3.61-7.26,6.2
			c-1.88,2.59-3.26,5.61-4.12,9.06s-1.29,7.06-1.29,10.83c0,3.92,0.46,7.56,1.37,10.91c0.92,3.35,2.35,6.27,4.32,8.75
			c1.96,2.49,4.45,4.43,7.45,5.85C753.46,240.85,757.06,241.55,761.25,241.55z"/>
		<path d="M869.54,245.4c-3.19,4.24-7.02,7.27-11.5,9.1c-4.47,1.83-9.33,2.75-14.56,2.75c-3.92,0-7.6-0.5-11.03-1.49
			c-3.43-0.99-6.41-2.51-8.95-4.55c-2.54-2.04-4.54-4.59-6-7.65c-1.47-3.06-2.2-6.66-2.2-10.79c0-3.87,0.64-7.23,1.92-10.08
			c1.28-2.85,3.01-5.27,5.18-7.26c2.17-1.99,4.72-3.61,7.65-4.87c2.93-1.26,6.03-2.24,9.3-2.94c3.27-0.71,6.63-1.19,10.08-1.45
			c3.45-0.26,6.8-0.39,10.04-0.39h9.89v-1.33c0-2.98-0.22-5.69-0.67-8.12c-0.45-2.43-1.27-4.5-2.47-6.2
			c-1.2-1.7-2.86-3.01-4.98-3.92c-2.12-0.91-4.88-1.37-8.28-1.37c-4.08,0-7.83,1.03-11.26,3.1c-3.43,2.07-5.9,5.04-7.42,8.91
			l-15.62-6.75c1.41-3.71,3.4-6.85,5.96-9.42c2.56-2.56,5.47-4.66,8.71-6.28c3.24-1.62,6.72-2.79,10.44-3.49
			c3.71-0.71,7.46-1.06,11.22-1.06c4.97,0,9.55,0.62,13.73,1.84c4.18,1.23,7.81,3.1,10.87,5.61s5.44,5.72,7.14,9.61
			s2.55,8.51,2.55,13.85v54.93h-19.78V245.4z M859.26,218.09c-2.3,0-4.85,0.12-7.65,0.35c-2.8,0.24-5.41,0.82-7.85,1.77
			c-2.43,0.94-4.46,2.33-6.08,4.16c-1.62,1.83-2.43,4.34-2.43,7.53c0,2.04,0.34,3.75,1.02,5.14c0.68,1.39,1.63,2.52,2.86,3.41
			c1.23,0.89,2.65,1.53,4.28,1.92c1.62,0.39,3.37,0.59,5.26,0.59c2.56,0,5.07-0.34,7.53-1.02c2.46-0.68,4.67-1.7,6.63-3.06
			c1.96-1.36,3.54-3.1,4.75-5.22c1.2-2.12,1.81-4.59,1.81-7.42v-8.16H859.26z"/>
		<path d="M909.24,147.47c0-1.67,0.31-3.2,0.94-4.59c0.63-1.39,1.49-2.59,2.59-3.61c1.1-1.02,2.37-1.8,3.81-2.35
			c1.44-0.55,2.97-0.82,4.59-0.82c1.62,0,3.14,0.29,4.55,0.86c1.41,0.58,2.65,1.37,3.73,2.39c1.07,1.02,1.91,2.22,2.51,3.61
			c0.6,1.39,0.9,2.92,0.9,4.59c0,1.62-0.3,3.14-0.9,4.55s-1.41,2.62-2.43,3.61c-1.02,1-2.24,1.78-3.65,2.35
			c-1.41,0.58-2.96,0.86-4.63,0.86c-1.62,0-3.17-0.29-4.63-0.86c-1.46-0.58-2.75-1.37-3.85-2.39c-1.1-1.02-1.96-2.24-2.59-3.65
			C909.56,150.6,909.24,149.09,909.24,147.47z M911.05,171.79h20.09v83.89h-20.09V171.79z"/>
		<path d="M966.84,259.37c1.05,2.35,2.41,4.3,4.08,5.85c1.67,1.54,3.54,2.77,5.61,3.69c2.07,0.92,4.25,1.57,6.55,1.96
			c2.3,0.39,4.63,0.59,6.98,0.59c7.48,0,13.34-1.82,17.58-5.45c4.24-3.64,6.36-9.27,6.36-16.91v-12.56
			c-1.41,2.41-3.15,4.59-5.22,6.55c-2.07,1.96-4.33,3.62-6.79,4.98c-2.46,1.36-5.06,2.41-7.81,3.14c-2.75,0.73-5.53,1.1-8.36,1.1
			c-5.96,0-11.27-1.08-15.93-3.26c-4.66-2.17-8.59-5.11-11.81-8.83c-3.22-3.71-5.66-8.02-7.34-12.91
			c-1.67-4.89-2.51-10.08-2.51-15.58c0-5.65,0.89-11.01,2.67-16.09c1.78-5.07,4.32-9.52,7.61-13.34c3.3-3.82,7.3-6.85,12.01-9.1
			c4.71-2.25,9.97-3.38,15.77-3.38c5.7,0,11,1.18,15.89,3.53c4.89,2.35,8.83,6.07,11.81,11.14v-12.87h20.17v77.77
			c0,6.59-1.15,12.24-3.45,16.95c-2.3,4.71-5.45,8.55-9.46,11.54c-4,2.98-8.68,5.17-14.05,6.55c-5.36,1.39-11.08,2.08-17.15,2.08
			c-3.92,0-7.85-0.31-11.77-0.94c-3.92-0.63-7.63-1.71-11.1-3.26c-3.48-1.54-6.63-3.61-9.46-6.2c-2.83-2.59-5.08-5.87-6.75-9.85
			L966.84,259.37z M991.09,236.85c3.92,0,7.36-0.68,10.32-2.04c2.96-1.36,5.43-3.22,7.42-5.57c1.99-2.35,3.48-5.13,4.47-8.32
			c0.99-3.19,1.49-6.62,1.49-10.28c0-3.61-0.48-6.96-1.45-10.04c-0.97-3.09-2.41-5.77-4.32-8.04c-1.91-2.28-4.3-4.05-7.18-5.34
			c-2.88-1.28-6.23-1.92-10.04-1.92c-4.03,0-7.48,0.72-10.36,2.16c-2.88,1.44-5.25,3.37-7.1,5.81c-1.86,2.43-3.23,5.27-4.12,8.51
			c-0.89,3.24-1.33,6.7-1.33,10.36c0,3.3,0.5,6.43,1.49,9.42c0.99,2.98,2.44,5.61,4.36,7.89c1.91,2.28,4.24,4.08,6.98,5.42
			C984.46,236.18,987.59,236.85,991.09,236.85z"/>
		<path d="M1056.22,171.64h20.09v13.34c1.36-2.62,3.06-4.87,5.1-6.75c2.04-1.88,4.29-3.45,6.75-4.71c2.46-1.26,5.1-2.18,7.93-2.79
			c2.82-0.6,5.7-0.9,8.63-0.9c5.02,0,9.38,0.84,13.07,2.51c3.69,1.67,6.74,4,9.14,6.98c2.41,2.98,4.19,6.5,5.34,10.55
			c1.15,4.05,1.73,8.46,1.73,13.22v52.58h-20.4v-50.61c0-5.91-1.36-10.5-4.08-13.77c-2.72-3.27-7.09-4.9-13.1-4.9
			c-6.33,0-11.26,1.8-14.79,5.42c-3.53,3.61-5.3,8.45-5.3,14.52v49.36h-20.09V171.64z"/>
		<path d="M1163.97,230.65c0.79,2.04,1.88,3.83,3.3,5.38c1.41,1.54,3.03,2.81,4.87,3.81c1.83,0.99,3.83,1.74,6,2.24
			c2.17,0.5,4.38,0.75,6.63,0.75c1.62,0,3.29-0.14,5.02-0.43c1.73-0.29,3.3-0.81,4.71-1.57c1.41-0.76,2.58-1.78,3.49-3.06
			c0.92-1.28,1.37-2.92,1.37-4.9c0-2.09-0.52-3.82-1.57-5.18c-1.05-1.36-2.47-2.5-4.28-3.41c-1.8-0.92-3.87-1.67-6.2-2.28
			c-2.33-0.6-4.8-1.16-7.42-1.69c-3.35-0.73-6.74-1.56-10.16-2.47c-3.43-0.92-6.5-2.25-9.22-4c-2.72-1.75-4.94-4.09-6.67-7.02
			c-1.73-2.93-2.59-6.75-2.59-11.46c0-4.34,0.91-8.11,2.75-11.3c1.83-3.19,4.22-5.83,7.18-7.93c2.96-2.09,6.3-3.66,10.04-4.71
			c3.74-1.05,7.52-1.57,11.34-1.57c3.35,0,6.75,0.33,10.2,0.98c3.45,0.65,6.71,1.71,9.77,3.18c3.06,1.46,5.83,3.36,8.32,5.69
			c2.48,2.33,4.41,5.14,5.77,8.44l-14.91,6.43c-0.84-1.88-1.94-3.46-3.3-4.75c-1.36-1.28-2.88-2.34-4.55-3.18
			c-1.67-0.84-3.43-1.44-5.26-1.8c-1.83-0.37-3.61-0.55-5.34-0.55c-1.67,0-3.3,0.17-4.87,0.51c-1.57,0.34-2.97,0.89-4.2,1.65
			c-1.23,0.76-2.21,1.74-2.94,2.94c-0.73,1.2-1.1,2.67-1.1,4.39c0,1.94,0.48,3.52,1.45,4.75c0.97,1.23,2.28,2.25,3.92,3.06
			c1.65,0.81,3.6,1.48,5.85,2c2.25,0.52,4.63,1.02,7.14,1.49c3.45,0.68,6.96,1.46,10.51,2.35c3.56,0.89,6.79,2.22,9.69,4
			s5.27,4.17,7.1,7.18c1.83,3.01,2.75,6.97,2.75,11.89c0,4.92-0.96,9.09-2.86,12.52c-1.91,3.43-4.45,6.19-7.61,8.28
			c-3.17,2.09-6.79,3.61-10.87,4.55c-4.08,0.94-8.32,1.41-12.71,1.41c-3.71,0-7.43-0.34-11.14-1.02c-3.71-0.68-7.19-1.8-10.44-3.37
			c-3.24-1.57-6.13-3.64-8.67-6.2c-2.54-2.56-4.46-5.73-5.77-9.5L1163.97,230.65z"/>
	</g>
	<g>
		<g>
			<path d="M362.22,104.43l36.97-53.42h-33.23V40.47h50.63v5.25l-36.07,53.42h35.03v10.54h-53.32V104.43z"/>
			<path d="M419.94,84.48c0-3.97,0.76-7.59,2.29-10.85c1.53-3.26,3.58-6.05,6.17-8.37c2.58-2.32,5.58-4.11,9-5.39
				c3.42-1.28,7.04-1.91,10.85-1.91c3.84,0,7.42,0.64,10.73,1.91c3.31,1.28,6.18,3.07,8.63,5.39s4.36,5.09,5.74,8.32
				c1.39,3.23,2.08,6.78,2.08,10.66c0,3.97-0.73,7.58-2.17,10.83c-1.45,3.25-3.43,6.02-5.93,8.32c-2.51,2.3-5.44,4.08-8.82,5.34
				c-3.37,1.26-6.97,1.89-10.78,1.89c-3.84,0-7.46-0.64-10.85-1.91c-3.39-1.28-6.33-3.06-8.84-5.37c-2.51-2.3-4.48-5.05-5.93-8.25
				C420.66,91.89,419.94,88.35,419.94,84.48z M448.06,101.3c2.52,0,4.69-0.47,6.5-1.42c1.81-0.95,3.3-2.2,4.47-3.76
				c1.17-1.56,2.03-3.36,2.58-5.41c0.55-2.05,0.83-4.18,0.83-6.38c0-2.33-0.3-4.53-0.9-6.59c-0.6-2.06-1.51-3.88-2.72-5.44
				c-1.21-1.56-2.73-2.79-4.56-3.69c-1.83-0.9-3.99-1.35-6.48-1.35c-2.55,0-4.74,0.47-6.55,1.42c-1.81,0.95-3.29,2.21-4.42,3.81
				c-1.13,1.59-1.97,3.44-2.5,5.53c-0.54,2.1-0.8,4.31-0.8,6.64c0,2.24,0.3,4.37,0.9,6.38s1.5,3.78,2.72,5.29
				c1.21,1.51,2.73,2.72,4.54,3.62C443.47,100.86,445.61,101.3,448.06,101.3z"/>
			<path d="M484.28,36.12h12.1v30.96c0.82-1.58,1.83-2.94,3.05-4.09c1.21-1.15,2.55-2.1,4.02-2.84c1.46-0.74,3.04-1.29,4.73-1.65
				c1.69-0.36,3.4-0.54,5.13-0.54c3.03,0,5.67,0.5,7.94,1.51c2.27,1.01,4.16,2.4,5.67,4.18c1.51,1.78,2.65,3.89,3.4,6.33
				c0.76,2.44,1.13,5.11,1.13,8.01v31.67h-12.2V79.18c0-3.66-0.92-6.45-2.77-8.37s-4.53-2.88-8.06-2.88c-3.91,0-6.89,1.09-8.96,3.29
				s-3.1,5.1-3.1,8.72v29.73h-12.1V36.12z"/>
			<path d="M539.3,84.48c0-3.97,0.76-7.59,2.29-10.85c1.53-3.26,3.58-6.05,6.17-8.37c2.58-2.32,5.58-4.11,9-5.39
				c3.42-1.28,7.04-1.91,10.85-1.91c3.84,0,7.42,0.64,10.73,1.91c3.31,1.28,6.18,3.07,8.63,5.39s4.36,5.09,5.74,8.32
				c1.39,3.23,2.08,6.78,2.08,10.66c0,3.97-0.73,7.58-2.17,10.83c-1.45,3.25-3.43,6.02-5.93,8.32c-2.51,2.3-5.44,4.08-8.82,5.34
				c-3.37,1.26-6.97,1.89-10.78,1.89c-3.84,0-7.46-0.64-10.85-1.91c-3.39-1.28-6.33-3.06-8.84-5.37c-2.51-2.3-4.48-5.05-5.93-8.25
				C540.02,91.89,539.3,88.35,539.3,84.48z M567.43,101.3c2.52,0,4.69-0.47,6.5-1.42c1.81-0.95,3.3-2.2,4.47-3.76
				c1.17-1.56,2.03-3.36,2.58-5.41c0.55-2.05,0.83-4.18,0.83-6.38c0-2.33-0.3-4.53-0.9-6.59c-0.6-2.06-1.51-3.88-2.72-5.44
				c-1.21-1.56-2.73-2.79-4.56-3.69c-1.83-0.9-3.99-1.35-6.48-1.35c-2.55,0-4.74,0.47-6.55,1.42c-1.81,0.95-3.29,2.21-4.42,3.81
				c-1.13,1.59-1.97,3.44-2.5,5.53c-0.54,2.1-0.8,4.31-0.8,6.64c0,2.24,0.3,4.37,0.9,6.38s1.5,3.78,2.72,5.29
				c1.21,1.51,2.73,2.72,4.54,3.62C562.83,100.86,564.97,101.3,567.43,101.3z"/>
		</g>
	</g>
</g>
<g>
	<g>
		<path class="st1" d="M297.08,191.03L268.78,30.69c-1.83-10.38-9.69-18.46-20.02-20.57c-10.33-2.11-20.72,2.23-26.49,11.06
			c-2.57,3.94-1.46,9.2,2.48,11.77c3.94,2.57,9.2,1.46,11.77-2.48c2.93-4.49,7.5-3.96,8.83-3.69c1.33,0.27,5.74,1.57,6.67,6.86
			l28.29,160.34c0.6,3.4-0.91,5.81-1.86,6.95c-0.95,1.14-3.07,3.04-6.52,3.04H107.49c-4.7,0-8.51,3.81-8.51,8.51
			s3.81,8.51,8.51,8.51h21.91l-15.49,42.8c-1.21,3.36-4.43,5.61-8,5.61h-6.92c-4.13,0-7.65-2.95-8.38-7.02L60.87,94.71L192.85,32.4
			c4.25-2,6.06-7.07,4.06-11.32c-2-4.25-7.07-6.06-11.32-4.06L22.09,94.21c-10.37,4.9-16.23,16.21-14.24,27.51l13.79,78.22
			c2.15,12.22,12.72,21.09,25.13,21.09H66l7.86,44.33c2.17,12.2,12.73,21.06,25.13,21.06h6.92c10.71,0,20.35-6.77,24-16.83
			l17.59-48.59h124.45c7.56,0,14.69-3.32,19.55-9.12C296.36,206.07,298.39,198.47,297.08,191.03z M46.77,204.01
			c-4.14,0-7.66-2.96-8.38-7.03l-13.79-78.22c-0.66-3.77,1.29-7.54,4.75-9.17l15.57-7.35l18.06,101.77H46.77z"/>
	</g>
	<g>
		<g>
			<path class="st2" d="M148.08,144.85c-3.86,0-7.78-0.88-11.45-2.72l-39.18-19.67c-4.2-2.11-5.89-7.22-3.79-11.42
				c2.11-4.2,7.22-5.89,11.42-3.79l39.18,19.67c3.87,1.94,8.57,0.67,10.94-2.95l67.07-102.8c2.57-3.94,7.84-5.04,11.77-2.48
				c3.94,2.57,5.04,7.84,2.48,11.77l-67.06,102.79C164.6,140.72,156.46,144.85,148.08,144.85z"/>
		</g>
		<g>
			<path class="st2" d="M148.08,144.85c-3.86,0-7.78-0.88-11.45-2.72l-39.18-19.67c-4.2-2.11-5.89-7.22-3.79-11.42
				c2.11-4.2,7.22-5.89,11.42-3.79l39.18,19.67c3.87,1.94,8.57,0.67,10.94-2.95l67.07-102.8c2.57-3.94,7.84-5.04,11.77-2.48
				c3.94,2.57,5.04,7.84,2.48,11.77l-67.06,102.79C164.6,140.72,156.46,144.85,148.08,144.85z"/>
		</g>
	</g>
</g>
</svg>
