<?xml version="1.0" encoding="utf-8"?>
<!-- Generator: Adobe Illustrator 27.3.1, SVG Export Plug-In . SVG Version: 6.00 Build 0)  -->
<svg version="1.1" id="Layer_1" xmlns="http://www.w3.org/2000/svg" xmlns:xlink="http://www.w3.org/1999/xlink" x="0px" y="0px"
	 viewBox="0 0 1084 296" style="enable-background:new 0 0 1084 296;" xml:space="preserve">
<style type="text/css">
	.st0{fill:#FFFFFF;}
	.st1{fill:#226DB4;}
</style>
<g>
	<g>
		<path d="M382.1,140.8h38.7c37.5,0,60.3,19.5,60.3,57.8c0,37.4-24,57.1-60.5,57.1h-38.5V140.8z M420.1,238.3
			c26.8,0,37.8-15.5,37.8-40.7c0-25.9-11.7-39.5-38.1-39.5h-15.4v80.2H420.1z"/>
		<path d="M546.1,245.4c-6.4,8.5-15.7,11.8-26.1,11.8c-15.8,0-28.2-8-28.2-24.5c0-23.3,24.6-27,44.2-27h9.9v-1.3
			c0-12-2.8-19.6-16.4-19.6c-8.2,0-15.7,4.2-18.7,12l-15.6-6.7c5.6-14.8,21.3-20.2,36.3-20.2c19.9,0,34.3,9.6,34.3,30.9v54.9h-19.8
			V245.4z M535.8,218.1c-9.3,0-24,1.1-24,13.8c0,8.1,5.9,11.1,13.4,11.1c10.2,0,20.7-5.3,20.7-16.7v-8.2H535.8z"/>
		<path d="M629.6,255.1c-4.3,1.3-8.8,2-13.8,2c-16,0-25.5-8.3-25.5-25v-45.7H579v-14.8h11.3v-17.3l20.1-8.7v26.1h18.5v14.8h-18.5
			v43.9c0,6.6,2.8,10.7,10.2,10.7c2.8,0,6-0.6,9-1.6V255.1z"/>
		<path d="M694.9,245.4c-6.4,8.5-15.7,11.8-26.1,11.8c-15.8,0-28.2-8-28.2-24.5c0-23.3,24.6-27,44.2-27h9.9v-1.3
			c0-12-2.8-19.6-16.4-19.6c-8.2,0-15.7,4.2-18.7,12l-15.6-6.7c5.6-14.8,21.3-20.2,36.3-20.2c19.9,0,34.3,9.6,34.3,30.9v54.9h-19.8
			V245.4z M684.6,218.1c-9.3,0-24,1.1-24,13.8c0,8.1,5.9,11.1,13.4,11.1c10.2,0,20.7-5.3,20.7-16.7v-8.2H684.6z"/>
		<path d="M736.6,140.8h39.9c24.2,0,43.1,9.7,43.1,36.2c0,29.1-23,35.4-47.6,35.4h-13.2v43.3h-22.3V140.8z M776.4,196.4
			c13.7,0,21.5-5.7,21.5-19.5c0-14.4-8.5-19.1-21.5-19.1h-17.5v38.7H776.4z"/>
		<path d="M834.6,171.6h20.1v15.8c5.7-11.5,14.8-17,27.6-17V189c-16.2,0-27.6,5.3-27.6,23.3v43.4h-20.1V171.6z"/>
		<path d="M972.2,237.4c-7,14.8-22.1,19.9-37.5,19.9c-26.5,0-43.2-17.7-43.2-43.9c0-24.6,17-43.6,42.3-43.6
			c27.2,0,40.4,15.9,40.4,48.3h-62.2c0,14.2,8.2,24.6,23.5,24.6c9.1,0,16.6-3.7,21-12.2L972.2,237.4z M954.1,204.9
			c-0.6-12.7-8.3-20.5-20.2-20.5c-12.6,0-20,8.9-21.7,20.5H954.1z"/>
		<path d="M990.3,171.6h20.1v13.6c5.8-9.8,17.6-15.4,28.8-15.4c25.7,0,38.1,20.6,38.1,43.6c0,23.6-13.2,43.9-37.5,43.9
			c-11.8,0-23.7-4.7-29.3-14.8v42h-20.1V171.6z M1056.5,212.9c0-14.2-7.1-27.4-23.5-27.4c-16.6,0-23.3,13.3-23.3,28.4
			c0,15.6,7.2,27.6,23.9,27.6C1051.4,241.6,1056.5,228.4,1056.5,212.9z"/>
	</g>
	<g>
		<path d="M382.2,104.4l37-53.4H386V40.5h50.6v5.2l-36.1,53.4h35v10.5h-53.3V104.4z"/>
		<path d="M468.3,58c15.4,0,27.2,10.8,27.2,26.3c0,15.9-12.4,26.4-27.7,26.4c-15.4,0-27.8-10.7-27.8-26.1C440,68.6,453,58,468.3,58z
			 M482.4,84.3c0-9.3-4.7-17.1-14.7-17.1c-10.2,0-14.3,8.1-14.3,17.4c0,9,4.8,16.6,14.6,16.6C478.2,101.3,482.4,93.2,482.4,84.3z"/>
		<path d="M504.3,36.1h12.1v31c3.3-6.3,9.9-9.1,16.9-9.1c12.1,0,18.2,8.5,18.2,20v31.7h-12.2V79.2c0-7.3-3.8-11.3-10.8-11.3
			c-7.8,0-12.1,4.8-12.1,12v29.7h-12.1V36.1z"/>
		<path d="M587.6,58c15.4,0,27.2,10.8,27.2,26.3c0,15.9-12.4,26.4-27.7,26.4c-15.4,0-27.8-10.7-27.8-26.1
			C559.3,68.6,572.4,58,587.6,58z M601.8,84.3c0-9.3-4.7-17.1-14.7-17.1c-10.2,0-14.3,8.1-14.3,17.4c0,9,4.8,16.6,14.6,16.6
			C597.6,101.3,601.8,93.2,601.8,84.3z"/>
	</g>
</g>
<g>
	<g>
		<path class="st1" d="M50.4,236.9c-3,0-6-0.6-8.8-1.8c-4-1.7-7.5-4.4-9.9-7.9c-2.7-3.8-4.1-8.3-4.1-13V69.8c0-4.7,1.4-9.3,4.1-13
			c2.5-3.5,5.9-6.2,9.9-7.9c4-1.7,8.4-2.2,12.6-1.4c4.6,0.8,8.7,3,12.1,6.3l58.2,58.2c3.3,3.3,3.3,8.7,0,12c-3.3,3.3-8.7,3.3-12,0
			L54.3,65.7c-2.4-2.4-5.1-1.7-6.2-1.2c-1.1,0.4-3.5,1.8-3.5,5.2v144.5c0,3.4,2.4,4.8,3.5,5.2c1.1,0.4,3.8,1.2,6.2-1.2L242.8,29.7
			c8.8-8.8,23.2-8.8,32,0l4.4,4.4c3.3,3.3,3.3,8.7,0,12c-3.3,3.3-8.7,3.3-12,0l-4.4-4.4c-2.2-2.2-5.8-2.2-8,0L66.3,230.2
			c-3.4,3.4-7.5,5.6-12.1,6.3C52.9,236.8,51.7,236.9,50.4,236.9z"/>
	</g>
	<g>
		<path class="st1" d="M86.4,272.9c-5.8,0-11.6-2.2-16-6.6l-4.4-4.4c-3.3-3.3-3.3-8.7,0-12c3.3-3.3,8.7-3.3,12,0l4.4,4.4
			c2.2,2.2,5.8,2.2,8,0L278.9,65.7c3.4-3.4,7.5-5.6,12.1-6.3c4.2-0.7,8.6-0.2,12.6,1.4c4,1.7,7.5,4.4,9.9,7.9
			c2.7,3.8,4.1,8.3,4.1,13v144.5c0,4.7-1.4,9.3-4.1,13c-2.5,3.5-5.9,6.2-9.9,7.9c-4,1.7-8.4,2.2-12.6,1.4c-4.6-0.8-8.7-3-12.1-6.3
			L220.6,184c-3.3-3.3-3.3-8.7,0-12c3.3-3.3,8.7-3.3,12,0l58.3,58.3c2.4,2.4,5.1,1.7,6.2,1.2c1.1-0.4,3.5-1.8,3.5-5.2V81.8
			c0-3.4-2.4-4.8-3.5-5.2c-1.1-0.4-3.8-1.2-6.2,1.2L102.4,266.3C98,270.7,92.2,272.9,86.4,272.9z"/>
	</g>
</g>
</svg>
