<?xml version="1.0" encoding="utf-8"?>
<!-- Generator: Adobe Illustrator 26.3.1, SVG Export Plug-In . SVG Version: 6.00 Build 0)  -->
<svg version="1.1" id="Layer_1" xmlns="http://www.w3.org/2000/svg" xmlns:xlink="http://www.w3.org/1999/xlink" x="0px" y="0px"
	 viewBox="0 0 1396 296" style="enable-background:new 0 0 1396 296;" xml:space="preserve">
<style type="text/css">
	.st0{fill:#FFFFFF;}
	.st1{fill:#226DB4;}
	.st2{fill:#E42527;}
</style>
<g>
	<g>
		<path d="M369.09,140.8h76.35v17.34h-54.07v30.84h43.94v16.4h-43.94v32.96h56.74v17.34h-79.02V140.8z"/>
		<path d="M464.04,171.64h20.09v12.87c1.26-2.41,2.81-4.52,4.67-6.36c1.86-1.83,3.92-3.36,6.2-4.59c2.28-1.23,4.71-2.16,7.3-2.79
			c2.59-0.63,5.24-0.94,7.96-0.94c2.62,0,5.17,0.29,7.65,0.86c2.48,0.58,4.81,1.48,6.98,2.71c2.17,1.23,4.09,2.79,5.77,4.67
			c1.67,1.88,3.01,4.13,4,6.75c3.19-4.81,7.38-8.51,12.56-11.1c5.18-2.59,10.78-3.88,16.79-3.88c4.81,0,9,0.84,12.56,2.51
			c3.56,1.67,6.51,3.96,8.87,6.87s4.11,6.34,5.26,10.32c1.15,3.98,1.73,8.29,1.73,12.95v53.2h-20.01v-51.95
			c0-5.28-1.32-9.5-3.96-12.63c-2.64-3.14-6.66-4.71-12.05-4.71c-2.93,0-5.52,0.48-7.77,1.45c-2.25,0.97-4.13,2.29-5.65,3.96
			c-1.52,1.67-2.67,3.68-3.45,6c-0.79,2.33-1.18,4.85-1.18,7.57v50.3h-20.09v-51.95c0-5.28-1.33-9.5-4-12.63
			c-2.67-3.14-6.7-4.71-12.08-4.71c-2.88,0-5.44,0.48-7.69,1.45c-2.25,0.97-4.15,2.29-5.69,3.96c-1.54,1.67-2.71,3.68-3.49,6
			c-0.78,2.33-1.18,4.85-1.18,7.57v50.3h-20.09V171.64z"/>
		<path d="M613.61,133.58h20.09v51.63c1.46-2.41,3.26-4.56,5.38-6.47c2.12-1.91,4.43-3.52,6.95-4.83s5.17-2.32,7.96-3.02
			c2.8-0.71,5.58-1.06,8.36-1.06c6.38,0,11.97,1.19,16.75,3.57c4.79,2.38,8.78,5.57,11.97,9.57c3.19,4,5.57,8.63,7.14,13.89
			c1.57,5.26,2.35,10.76,2.35,16.52c0,5.91-0.82,11.52-2.47,16.83c-1.65,5.31-4.05,9.97-7.22,13.97c-3.17,4-7.09,7.18-11.77,9.53
			c-4.68,2.35-10.06,3.53-16.13,3.53c-2.98,0-5.92-0.3-8.83-0.9c-2.9-0.6-5.64-1.53-8.2-2.79c-2.56-1.25-4.91-2.82-7.02-4.71
			c-2.12-1.88-3.86-4.11-5.22-6.67v13.5h-20.09V133.58z M657.24,241.55c4.39,0,8.04-0.77,10.95-2.31s5.22-3.62,6.95-6.24
			c1.73-2.62,2.94-5.65,3.65-9.1c0.71-3.45,1.06-7.11,1.06-10.99c0-3.56-0.45-6.98-1.33-10.28c-0.89-3.3-2.29-6.21-4.2-8.75
			c-1.91-2.54-4.36-4.56-7.34-6.08c-2.98-1.52-6.54-2.28-10.67-2.28s-7.68,0.77-10.63,2.32c-2.96,1.54-5.38,3.61-7.26,6.2
			c-1.88,2.59-3.26,5.6-4.12,9.02c-0.86,3.43-1.29,7-1.29,10.71c0,3.92,0.48,7.59,1.45,10.99c0.97,3.4,2.44,6.34,4.43,8.83
			c1.99,2.49,4.5,4.43,7.53,5.85C649.45,240.85,653.05,241.55,657.24,241.55z"/>
		<path d="M792.13,237.39c-1.73,3.72-3.94,6.84-6.63,9.38c-2.69,2.54-5.68,4.58-8.95,6.12c-3.27,1.54-6.78,2.66-10.52,3.33
			c-3.74,0.68-7.55,1.02-11.42,1.02c-6.64,0-12.63-1.06-17.97-3.18c-5.34-2.12-9.88-5.1-13.62-8.95c-3.74-3.84-6.62-8.46-8.63-13.85
			c-2.01-5.39-3.02-11.35-3.02-17.89c0-6.17,1.02-11.91,3.06-17.22c2.04-5.31,4.92-9.91,8.63-13.81c3.71-3.9,8.16-6.96,13.34-9.18
			c5.18-2.22,10.93-3.33,17.26-3.33c13.6,0,23.74,3.99,30.41,11.97c6.67,7.98,10,20.08,10,36.29h-62.23c0,3.56,0.51,6.84,1.53,9.85
			c1.02,3.01,2.52,5.6,4.51,7.77c1.99,2.17,4.45,3.87,7.38,5.1c2.93,1.23,6.3,1.84,10.12,1.84c4.6,0,8.71-0.97,12.32-2.9
			c3.61-1.93,6.51-5.05,8.71-9.34L792.13,237.39z M774.09,204.91c-0.31-6.38-2.26-11.39-5.85-15.03c-3.58-3.64-8.36-5.45-14.32-5.45
			c-3.14,0-5.96,0.52-8.47,1.57c-2.51,1.05-4.67,2.49-6.47,4.32c-1.8,1.83-3.28,3.99-4.43,6.47c-1.15,2.49-1.94,5.19-2.35,8.12
			H774.09z"/>
		<path d="M871.63,241.55c-1.41,2.41-3.21,4.59-5.38,6.55c-2.17,1.96-4.55,3.61-7.14,4.94c-2.59,1.33-5.31,2.37-8.16,3.1
			c-2.85,0.73-5.66,1.1-8.44,1.1c-6.43,0-12.02-1.17-16.75-3.49c-4.74-2.33-8.66-5.47-11.77-9.42c-3.11-3.95-5.43-8.57-6.94-13.85
			c-1.52-5.28-2.28-10.88-2.28-16.79c0-5.75,0.84-11.29,2.51-16.6c1.67-5.31,4.15-9.98,7.42-14.01c3.27-4.03,7.28-7.25,12.05-9.65
			c4.76-2.41,10.23-3.61,16.4-3.61c5.86,0,11.33,1.19,16.4,3.57c5.07,2.38,9.1,6.11,12.08,11.18v-51.01h20.01v122.1h-20.01V241.55z
			 M848.56,241.55c4.13,0,7.69-0.77,10.67-2.31c2.98-1.54,5.43-3.62,7.34-6.24c1.91-2.62,3.31-5.65,4.2-9.1
			c0.89-3.45,1.33-7.11,1.33-10.99c0-3.82-0.43-7.39-1.29-10.71c-0.86-3.32-2.24-6.23-4.12-8.71c-1.88-2.48-4.3-4.43-7.26-5.85
			c-2.96-1.41-6.53-2.12-10.71-2.12c-4.39,0-8.08,0.79-11.06,2.35c-2.98,1.57-5.4,3.69-7.26,6.36c-1.86,2.67-3.18,5.75-3.96,9.26
			c-0.78,3.5-1.18,7.19-1.18,11.06c0,3.5,0.44,6.89,1.33,10.16c0.89,3.27,2.28,6.15,4.16,8.63c1.88,2.49,4.3,4.47,7.26,5.96
			C840.96,240.81,844.47,241.55,848.56,241.55z"/>
		<path d="M975.05,241.55c-1.41,2.41-3.21,4.59-5.38,6.55c-2.17,1.96-4.55,3.61-7.14,4.94c-2.59,1.33-5.31,2.37-8.16,3.1
			c-2.85,0.73-5.66,1.1-8.44,1.1c-6.43,0-12.02-1.17-16.75-3.49c-4.74-2.33-8.66-5.47-11.77-9.42c-3.11-3.95-5.43-8.57-6.94-13.85
			c-1.52-5.28-2.28-10.88-2.28-16.79c0-5.75,0.84-11.29,2.51-16.6c1.67-5.31,4.15-9.98,7.42-14.01c3.27-4.03,7.28-7.25,12.05-9.65
			c4.76-2.41,10.23-3.61,16.4-3.61c5.86,0,11.33,1.19,16.4,3.57c5.07,2.38,9.1,6.11,12.08,11.18v-51.01h20.01v122.1h-20.01V241.55z
			 M951.98,241.55c4.13,0,7.69-0.77,10.67-2.31c2.98-1.54,5.43-3.62,7.34-6.24c1.91-2.62,3.31-5.65,4.2-9.1
			c0.89-3.45,1.33-7.11,1.33-10.99c0-3.82-0.43-7.39-1.29-10.71c-0.86-3.32-2.24-6.23-4.12-8.71c-1.88-2.48-4.3-4.43-7.26-5.85
			c-2.96-1.41-6.53-2.12-10.71-2.12c-4.39,0-8.08,0.79-11.06,2.35c-2.98,1.57-5.4,3.69-7.26,6.36c-1.86,2.67-3.18,5.75-3.96,9.26
			c-0.78,3.5-1.18,7.19-1.18,11.06c0,3.5,0.44,6.89,1.33,10.16c0.89,3.27,2.28,6.15,4.16,8.63c1.88,2.49,4.3,4.47,7.26,5.96
			C944.38,240.81,947.9,241.55,951.98,241.55z"/>
		<path d="M1092.21,237.39c-1.73,3.72-3.94,6.84-6.63,9.38c-2.69,2.54-5.68,4.58-8.95,6.12c-3.27,1.54-6.78,2.66-10.52,3.33
			c-3.74,0.68-7.55,1.02-11.42,1.02c-6.64,0-12.63-1.06-17.97-3.18c-5.34-2.12-9.88-5.1-13.62-8.95c-3.74-3.84-6.62-8.46-8.63-13.85
			c-2.01-5.39-3.02-11.35-3.02-17.89c0-6.17,1.02-11.91,3.06-17.22c2.04-5.31,4.92-9.91,8.63-13.81c3.71-3.9,8.16-6.96,13.34-9.18
			c5.18-2.22,10.93-3.33,17.26-3.33c13.6,0,23.74,3.99,30.41,11.97c6.67,7.98,10,20.08,10,36.29h-62.23c0,3.56,0.51,6.84,1.53,9.85
			c1.02,3.01,2.52,5.6,4.51,7.77c1.99,2.17,4.45,3.87,7.38,5.1c2.93,1.23,6.3,1.84,10.12,1.84c4.6,0,8.71-0.97,12.32-2.9
			c3.61-1.93,6.51-5.05,8.71-9.34L1092.21,237.39z M1074.16,204.91c-0.31-6.38-2.26-11.39-5.85-15.03
			c-3.58-3.64-8.36-5.45-14.32-5.45c-3.14,0-5.96,0.52-8.47,1.57c-2.51,1.05-4.67,2.49-6.47,4.32c-1.8,1.83-3.28,3.99-4.43,6.47
			c-1.15,2.49-1.94,5.19-2.35,8.12H1074.16z"/>
		<path d="M1171.7,241.55c-1.41,2.41-3.21,4.59-5.38,6.55c-2.17,1.96-4.55,3.61-7.14,4.94c-2.59,1.33-5.31,2.37-8.16,3.1
			c-2.85,0.73-5.66,1.1-8.44,1.1c-6.43,0-12.02-1.17-16.75-3.49c-4.74-2.33-8.66-5.47-11.77-9.42c-3.11-3.95-5.43-8.57-6.94-13.85
			c-1.52-5.28-2.28-10.88-2.28-16.79c0-5.75,0.84-11.29,2.51-16.6c1.67-5.31,4.15-9.98,7.42-14.01c3.27-4.03,7.28-7.25,12.05-9.65
			c4.76-2.41,10.23-3.61,16.4-3.61c5.86,0,11.33,1.19,16.4,3.57c5.07,2.38,9.1,6.11,12.08,11.18v-51.01h20.01v122.1h-20.01V241.55z
			 M1148.63,241.55c4.13,0,7.69-0.77,10.67-2.31c2.98-1.54,5.43-3.62,7.34-6.24c1.91-2.62,3.31-5.65,4.2-9.1
			c0.89-3.45,1.33-7.11,1.33-10.99c0-3.82-0.43-7.39-1.29-10.71c-0.86-3.32-2.24-6.23-4.12-8.71c-1.88-2.48-4.3-4.43-7.26-5.85
			c-2.96-1.41-6.53-2.12-10.71-2.12c-4.39,0-8.08,0.79-11.06,2.35c-2.98,1.57-5.4,3.69-7.26,6.36c-1.86,2.67-3.18,5.75-3.96,9.26
			c-0.78,3.5-1.18,7.19-1.18,11.06c0,3.5,0.44,6.89,1.33,10.16c0.89,3.27,2.28,6.15,4.16,8.63c1.88,2.49,4.3,4.47,7.26,5.96
			C1141.03,240.81,1144.55,241.55,1148.63,241.55z"/>
		<path d="M1249.86,140.8h45.28c5.23,0,10.16,0.47,14.79,1.41s8.68,2.58,12.16,4.9c3.48,2.33,6.22,5.45,8.24,9.38
			c2.01,3.92,3.02,8.87,3.02,14.83c0,6.28-1.57,11.48-4.71,15.62c-3.14,4.13-7.74,7.06-13.81,8.79c7.85,1.57,13.69,4.58,17.54,9.02
			c3.85,4.45,5.77,10.67,5.77,18.68c0,6.12-1.07,11.25-3.22,15.38c-2.15,4.13-5.04,7.44-8.67,9.93c-3.64,2.49-7.87,4.26-12.71,5.34
			c-4.84,1.07-9.95,1.61-15.34,1.61h-48.34V140.8z M1292.39,188.98c3.14,0,5.91-0.26,8.32-0.79c2.41-0.52,4.45-1.44,6.12-2.75
			c1.67-1.31,2.94-3.07,3.81-5.3c0.86-2.22,1.29-5.01,1.29-8.36c0-3.14-0.52-5.7-1.57-7.69c-1.05-1.99-2.47-3.56-4.28-4.71
			c-1.8-1.15-3.91-1.93-6.32-2.35c-2.41-0.42-4.97-0.63-7.69-0.63h-20.48v32.57H1292.39z M1295.45,240.06
			c3.19,0,6.07-0.33,8.63-0.98c2.56-0.65,4.75-1.7,6.55-3.14c1.8-1.44,3.19-3.31,4.16-5.61c0.97-2.3,1.45-5.1,1.45-8.4
			c0-3.66-0.59-6.67-1.77-9.02c-1.18-2.35-2.77-4.21-4.79-5.57c-2.01-1.36-4.37-2.3-7.06-2.83c-2.7-0.52-5.58-0.78-8.67-0.78h-22.36
			v36.33H1295.45z"/>
		<path d="M1356.27,140.8h22.21v114.88h-22.21V140.8z"/>
	</g>
	<g>
		<g>
			<path d="M369.25,104.43l36.97-53.42h-33.23V40.47h50.63v5.25l-36.07,53.42h35.03v10.54h-53.32V104.43z"/>
			<path d="M426.97,84.48c0-3.97,0.76-7.59,2.29-10.85c1.53-3.26,3.58-6.05,6.17-8.37c2.58-2.32,5.58-4.11,9-5.39
				c3.42-1.28,7.04-1.91,10.85-1.91c3.84,0,7.42,0.64,10.73,1.91c3.31,1.28,6.18,3.07,8.63,5.39s4.36,5.09,5.74,8.32
				c1.39,3.23,2.08,6.78,2.08,10.66c0,3.97-0.73,7.58-2.17,10.83c-1.45,3.25-3.43,6.02-5.93,8.32c-2.51,2.3-5.44,4.08-8.82,5.34
				c-3.37,1.26-6.97,1.89-10.78,1.89c-3.84,0-7.46-0.64-10.85-1.91c-3.39-1.28-6.33-3.06-8.84-5.37c-2.51-2.3-4.48-5.05-5.93-8.25
				C427.69,91.89,426.97,88.35,426.97,84.48z M455.1,101.3c2.52,0,4.69-0.47,6.5-1.42c1.81-0.95,3.3-2.2,4.47-3.76
				c1.17-1.56,2.03-3.36,2.58-5.41c0.55-2.05,0.83-4.18,0.83-6.38c0-2.33-0.3-4.53-0.9-6.59c-0.6-2.06-1.51-3.88-2.72-5.44
				c-1.21-1.56-2.73-2.79-4.56-3.69c-1.83-0.9-3.99-1.35-6.48-1.35c-2.55,0-4.74,0.47-6.55,1.42c-1.81,0.95-3.29,2.21-4.42,3.81
				c-1.13,1.59-1.97,3.44-2.5,5.53c-0.54,2.1-0.8,4.31-0.8,6.64c0,2.24,0.3,4.37,0.9,6.38s1.5,3.78,2.72,5.29
				c1.21,1.51,2.73,2.72,4.54,3.62C450.5,100.86,452.64,101.3,455.1,101.3z"/>
			<path d="M491.31,36.12h12.1v30.96c0.82-1.58,1.83-2.94,3.05-4.09c1.21-1.15,2.55-2.1,4.02-2.84c1.46-0.74,3.04-1.29,4.73-1.65
				c1.69-0.36,3.4-0.54,5.13-0.54c3.03,0,5.67,0.5,7.94,1.51c2.27,1.01,4.16,2.4,5.67,4.18c1.51,1.78,2.65,3.89,3.4,6.33
				c0.76,2.44,1.13,5.11,1.13,8.01v31.67h-12.2V79.18c0-3.66-0.92-6.45-2.77-8.37s-4.53-2.88-8.06-2.88c-3.91,0-6.89,1.09-8.96,3.29
				s-3.1,5.1-3.1,8.72v29.73h-12.1V36.12z"/>
			<path d="M546.33,84.48c0-3.97,0.76-7.59,2.29-10.85c1.53-3.26,3.58-6.05,6.17-8.37c2.58-2.32,5.58-4.11,9-5.39
				c3.42-1.28,7.04-1.91,10.85-1.91c3.84,0,7.42,0.64,10.73,1.91c3.31,1.28,6.18,3.07,8.63,5.39s4.36,5.09,5.74,8.32
				c1.39,3.23,2.08,6.78,2.08,10.66c0,3.97-0.73,7.58-2.17,10.83c-1.45,3.25-3.43,6.02-5.93,8.32c-2.51,2.3-5.44,4.08-8.82,5.34
				c-3.37,1.26-6.97,1.89-10.78,1.89c-3.84,0-7.46-0.64-10.85-1.91c-3.39-1.28-6.33-3.06-8.84-5.37c-2.51-2.3-4.48-5.05-5.93-8.25
				C547.06,91.89,546.33,88.35,546.33,84.48z M574.46,101.3c2.52,0,4.69-0.47,6.5-1.42c1.81-0.95,3.3-2.2,4.47-3.76
				c1.17-1.56,2.03-3.36,2.58-5.41c0.55-2.05,0.83-4.18,0.83-6.38c0-2.33-0.3-4.53-0.9-6.59c-0.6-2.06-1.51-3.88-2.72-5.44
				c-1.21-1.56-2.73-2.79-4.56-3.69c-1.83-0.9-3.99-1.35-6.48-1.35c-2.55,0-4.74,0.47-6.55,1.42c-1.81,0.95-3.29,2.21-4.42,3.81
				c-1.13,1.59-1.97,3.44-2.5,5.53c-0.54,2.1-0.8,4.31-0.8,6.64c0,2.24,0.3,4.37,0.9,6.38s1.5,3.78,2.72,5.29
				c1.21,1.51,2.73,2.72,4.54,3.62C569.87,100.86,572,101.3,574.46,101.3z"/>
		</g>
	</g>
</g>
<g>
	<path class="st1" d="M61.5,255.7h-4.43c-14.09-0.02-25.51-11.43-25.53-25.53V109.51C31.56,95.42,42.97,84,57.07,83.99h169.85
		c4.7,0,8.51-3.81,8.51-8.51s-3.81-8.51-8.51-8.51H57.07c-23.46,0-42.54,19.08-42.54,42.54v120.66c0,23.46,19.08,42.54,42.54,42.54
		h4.43c4.7,0,8.51-3.81,8.51-8.51C70.01,259.51,66.2,255.7,61.5,255.7z"/>
	<path class="st2" d="M304.23,57.32l-7.37-27.71c-1.21-4.54-5.87-7.24-10.41-6.03c0,0,0,0,0,0l-27.71,7.37
		c-4.54,1.21-7.25,5.87-6.04,10.41c1.21,4.54,5.87,7.25,10.41,6.04l7.94-2.11l-82.69,143.61l-19-32.92
		c-4.66-8.08-15-10.85-23.08-6.18c-2.57,1.48-4.7,3.61-6.18,6.18l-52.77,91.41c-4.66,8.08-1.89,18.41,6.19,23.07
		c2.57,1.48,5.48,2.26,8.44,2.26h147.81c23.46,0,42.54-19.08,42.54-42.54V109.49c0-4.7-3.81-8.51-8.51-8.51s-8.51,3.81-8.51,8.51
		v120.69c-0.02,14.09-11.44,25.51-25.53,25.53H102.18l52.55-91.02l19,32.92c2.99,5.25,8.58,8.48,14.63,8.45l0,0
		c6.05,0.03,11.64-3.2,14.63-8.46l82.74-143.65l2.07,7.77c0.99,3.73,4.37,6.32,8.22,6.32c0.74,0,1.48-0.1,2.2-0.28
		C302.75,66.51,305.44,61.85,304.23,57.32z"/>
</g>
</svg>
