<?xml version="1.0" encoding="utf-8"?>
<!-- Generator: Adobe Illustrator 27.4.0, SVG Export Plug-In . SVG Version: 6.00 Build 0)  -->
<svg version="1.1" id="Layer_1" xmlns="http://www.w3.org/2000/svg" xmlns:xlink="http://www.w3.org/1999/xlink" x="0px" y="0px"
	 viewBox="0 0 1060 296" style="enable-background:new 0 0 1060 296;" xml:space="preserve">
<style type="text/css">
	.st0{fill:#FFFFFF;}
	.st1{fill:#E42527;}
</style>
<g>
	<g>
		<path d="M382.17,140.79h76.36v17.34h-54.07v30.84h43.95v16.4h-43.95v32.96h56.74v17.34h-79.03V140.79z"/>
		<path d="M498.7,212.6l-27.39-40.96h23.23l17.5,27l17.26-27h20.95l-27.23,39.55l30.13,44.5h-23.39l-19.46-30.21l-20.09,30.21
			h-20.95L498.7,212.6z"/>
		<path d="M567.2,171.63h20.09v13.58c5.81-9.81,17.58-15.38,28.8-15.38c25.66,0,38.06,20.64,38.06,43.55
			c0,23.62-13.18,43.87-37.51,43.87c-11.77,0-23.7-4.71-29.35-14.75v41.98H567.2V171.63z M633.44,212.91
			c0-14.2-7.06-27.39-23.54-27.39c-16.56,0-23.31,13.26-23.31,28.41c0,15.62,7.22,27.62,23.93,27.62
			C628.26,241.55,633.44,228.37,633.44,212.91z"/>
		<path d="M745.73,237.39c-6.98,14.83-22.05,19.85-37.51,19.85c-26.53,0-43.24-17.74-43.24-43.87c0-24.64,17.03-43.55,42.3-43.55
			c27.15,0,40.42,15.85,40.42,48.26h-62.23c0,14.2,8.24,24.56,23.54,24.56c9.1,0,16.64-3.69,21.03-12.24L745.73,237.39z
			 M727.68,204.9c-0.63-12.71-8.32-20.48-20.17-20.48c-12.63,0-20.01,8.87-21.74,20.48H727.68z"/>
		<path d="M763.85,171.63h20.09v13.34c5.42-10.36,16.71-15.15,28.41-15.15c20.17,0,29.27,14.2,29.27,33.27v52.58h-20.4v-50.62
			c0-11.77-5.26-18.68-17.19-18.68c-12.63,0-20.09,7.85-20.09,19.93v49.36h-20.09V171.63z"/>
		<path d="M871.6,230.64c3.14,8.24,11.69,12.16,20.8,12.16c6.51,0,14.6-2.04,14.6-9.97c0-8.4-9.1-10.36-19.46-12.56
			c-13.5-2.83-28.64-6.12-28.64-24.96c0-17.26,16.09-25.5,31.31-25.5c13.34,0,28.56,5.02,34.06,18.29l-14.91,6.43
			c-3.3-7.46-11.54-10.28-18.44-10.28c-6.67,0-13.11,2.67-13.11,9.5c0,7.69,8.24,9.34,18.36,11.3c13.73,2.67,30.06,5.81,30.06,25.43
			c0,19.78-16.56,26.76-34.06,26.76c-14.83,0-30.76-5.02-36.02-20.09L871.6,230.64z"/>
		<path d="M1017.32,237.39c-6.98,14.83-22.05,19.85-37.51,19.85c-26.53,0-43.24-17.74-43.24-43.87c0-24.64,17.03-43.55,42.3-43.55
			c27.15,0,40.42,15.85,40.42,48.26h-62.23c0,14.2,8.24,24.56,23.54,24.56c9.1,0,16.64-3.69,21.03-12.24L1017.32,237.39z
			 M999.27,204.9c-0.63-12.71-8.32-20.48-20.17-20.48c-12.63,0-20.01,8.87-21.74,20.48H999.27z"/>
	</g>
	<g>
		<path d="M382.32,104.43l36.97-53.42h-33.23V40.47h50.63v5.25l-36.07,53.42h35.03v10.54h-53.32V104.43z"/>
		<path d="M468.36,57.96c15.36,0,27.18,10.78,27.18,26.28c0,15.93-12.43,26.38-27.7,26.38c-15.41,0-27.8-10.68-27.8-26.14
			C440.04,68.59,453.14,57.96,468.36,57.96z M482.54,84.33c0-9.31-4.73-17.06-14.65-17.06c-10.21,0-14.28,8.13-14.28,17.4
			c0,8.98,4.77,16.64,14.56,16.64C478.29,101.3,482.54,93.17,482.54,84.33z"/>
		<path d="M504.38,36.12h12.1v30.96c3.26-6.29,9.93-9.12,16.92-9.12c12.1,0,18.15,8.51,18.15,20.04v31.67h-12.2V79.18
			c0-7.28-3.78-11.25-10.83-11.25c-7.75,0-12.05,4.77-12.05,12.01v29.73h-12.1V36.12z"/>
		<path d="M587.72,57.96c15.36,0,27.18,10.78,27.18,26.28c0,15.93-12.43,26.38-27.7,26.38c-15.41,0-27.8-10.68-27.8-26.14
			C559.41,68.59,572.5,57.96,587.72,57.96z M601.9,84.33c0-9.31-4.73-17.06-14.65-17.06c-10.21,0-14.28,8.13-14.28,17.4
			c0,8.98,4.77,16.64,14.56,16.64C597.65,101.3,601.9,93.17,601.9,84.33z"/>
	</g>
</g>
<g>
	<path class="st1" d="M267.22,288.26c-22.33,0-44.03-7.96-62.77-23.03c-1.8-1.45-4.41-1.31-6.05,0.32l-16.43,16.43
		c-8.35,8.33-21.87,8.33-30.22,0l-15.86-15.86c-1.77-1.77-4.64-1.77-6.41,0c0,0,0,0,0,0l-16.05,16.02
		c-8.16,8.15-21.38,8.15-29.53-0.01c-0.26-0.27-0.52-0.54-0.77-0.82C22.32,213.57,10.36,115.03,53.2,34.7
		C62.05,18.09,79.35,7.72,98.17,7.74h157.64c15.96,0,31,10.58,42.35,29.8c10.29,17.41,17.19,41.29,19.45,67.24
		c1.24,14.03-9.12,26.41-23.15,27.65c-0.75,0.07-1.49,0.1-2.24,0.1h-81.87c0.2,4.77,0.57,9.5,1.07,14.13c0,0.12,0.02,0.23,0.03,0.35
		c0.96,14.08,3.61,27.99,7.91,41.43c4.1,12.69,9.58,24.35,16.3,34.7c6.61,10.17,14.25,18.79,22.7,25.63
		c8.45,6.84,17.56,11.74,27.04,14.55c6.39,1.89,10.03,8.6,8.14,14.98c-1.29,4.37-4.93,7.63-9.41,8.45
		C278.55,287.75,272.89,288.26,267.22,288.26z M98.17,24.73c-12.55-0.01-24.08,6.9-29.98,17.97
		C28.67,116.72,39.7,207.56,95.78,269.97c1.43,1.6,3.89,1.73,5.49,0.3c0.05-0.05,0.11-0.1,0.16-0.15l16.02-16.02
		c8.41-8.39,22.03-8.39,30.44,0l15.87,15.87c1.71,1.71,4.48,1.71,6.2,0l16.43-16.43c7.76-7.79,20.15-8.45,28.71-1.55
		c13.85,11.14,29.52,17.63,45.66,19c-4.59-2.67-8.96-5.69-13.08-9.03c-9.84-7.96-18.69-17.91-26.27-29.58
		c-15.37-23.64-24.67-52.69-26.9-84.02c-0.89-8.09-1.34-16.22-1.33-24.35c0-30.09,5.95-58.51,16.76-80.03
		c3.79-7.54,8.05-13.99,12.68-19.26L98.17,24.73z M210.35,115.53h81.88c4.7-0.01,8.5-3.82,8.5-8.52c0-0.25-0.01-0.5-0.03-0.75
		c-2.04-23.47-8.13-44.81-17.15-60.07c-8.17-13.83-18.02-21.45-27.72-21.45c-5.25,0-10.5,2.18-15.6,6.47
		c-5.48,4.62-10.7,11.68-15.09,20.42C216.48,68.83,211.32,91.26,210.35,115.53z"/>
	<g>
		<path class="st1" d="M150.7,132.52h-63c-4.69,0-8.5-3.8-8.5-8.5c0-4.69,3.8-8.5,8.5-8.5l0,0h63c4.69,0,8.5,3.8,8.5,8.5
			C159.2,128.71,155.39,132.52,150.7,132.52z"/>
	</g>
	<g>
		<path class="st1" d="M119.92,175.01H89.49c-4.69,0-8.5-3.8-8.5-8.5s3.8-8.5,8.5-8.5h30.43c4.69,0,8.5,3.8,8.5,8.5
			S124.61,175.01,119.92,175.01z"/>
	</g>
	<g>
		<path class="st1" d="M154.66,90.05H95.35c-4.69,0-8.5-3.8-8.5-8.5s3.8-8.5,8.5-8.5h59.32c4.69,0,8.5,3.8,8.5,8.5
			S159.36,90.05,154.66,90.05z"/>
	</g>
</g>
</svg>
