<?xml version="1.0" encoding="utf-8"?>
<!-- Generator: Adobe Illustrator 27.4.0, SVG Export Plug-In . SVG Version: 6.00 Build 0)  -->
<svg version="1.1" id="Layer_1" xmlns="http://www.w3.org/2000/svg" xmlns:xlink="http://www.w3.org/1999/xlink" x="0px" y="0px"
	 viewBox="0 0 1130 296" style="enable-background:new 0 0 1130 296;" xml:space="preserve">
<style type="text/css">
	.st0{fill:#FFFFFF;}
	.st1{fill:#E42527;}
	.st2{fill:#F9B21D;}
</style>
<g>
	<g>
		<path d="M382.95,140.79h22.21v114.89h-22.21V140.79z"/>
		<path d="M429.17,171.63h20.09v13.34c5.42-10.36,16.71-15.15,28.41-15.15c20.17,0,29.27,14.2,29.27,33.27v52.58h-20.4v-50.62
			c0-11.77-5.26-18.68-17.19-18.68c-12.63,0-20.09,7.85-20.09,19.93v49.36h-20.09V171.63z"/>
		<path d="M514.78,171.63h21.5l21.74,63.64l21.5-63.64h19.62l-30.29,84.05h-23.54L514.78,171.63z"/>
		<path d="M683.42,237.39c-6.98,14.83-22.05,19.85-37.51,19.85c-26.53,0-43.24-17.74-43.24-43.87c0-24.64,17.03-43.55,42.3-43.55
			c27.15,0,40.42,15.85,40.42,48.26h-62.23c0,14.2,8.24,24.56,23.54,24.56c9.1,0,16.64-3.69,21.03-12.24L683.42,237.39z
			 M665.38,204.9c-0.63-12.71-8.32-20.48-20.17-20.48c-12.63,0-20.01,8.87-21.74,20.48H665.38z"/>
		<path d="M701.55,171.63h20.09v13.34c5.42-10.36,16.71-15.15,28.41-15.15c20.17,0,29.27,14.2,29.27,33.27v52.58h-20.4v-50.62
			c0-11.77-5.26-18.68-17.19-18.68c-12.63,0-20.09,7.85-20.09,19.93v49.36h-20.09V171.63z"/>
		<path d="M842.96,255.05c-4.32,1.26-8.79,2.04-13.81,2.04c-16.01,0-25.5-8.32-25.5-25.03v-45.67h-11.3v-14.75h11.3v-17.34
			l20.09-8.71v26.05h18.52v14.75h-18.52v43.87c0,6.59,2.83,10.67,10.2,10.67c2.83,0,5.96-0.63,9.03-1.65V255.05z"/>
		<path d="M896.87,169.83c25.5,0,45.12,17.89,45.12,43.63c0,26.45-20.64,43.79-45.99,43.79c-25.58,0-46.14-17.74-46.14-43.4
			C849.86,187.48,871.6,169.83,896.87,169.83z M920.41,213.62c0-15.46-7.85-28.33-24.33-28.33c-16.95,0-23.7,13.5-23.7,28.88
			c0,14.91,7.93,27.62,24.17,27.62C913.35,241.79,920.41,228.29,920.41,213.62z"/>
		<path d="M956.66,171.63h20.09v15.77c5.65-11.54,14.83-17.03,27.62-17.03v18.6c-16.24,0-27.62,5.34-27.62,23.31v43.4h-20.09V171.63
			z"/>
		<path d="M1045.1,247.13l-32.96-75.49h21.5l22.05,53.68l20.56-53.68h19.54l-46.22,112.85h-19.7L1045.1,247.13z"/>
	</g>
	<g>
		<path d="M382.32,104.43l36.97-53.42h-33.23V40.47h50.63v5.25l-36.07,53.42h35.03v10.54h-53.32V104.43z"/>
		<path d="M468.36,57.96c15.36,0,27.18,10.78,27.18,26.28c0,15.93-12.43,26.38-27.7,26.38c-15.41,0-27.8-10.68-27.8-26.14
			C440.04,68.59,453.14,57.96,468.36,57.96z M482.54,84.33c0-9.31-4.73-17.06-14.65-17.06c-10.21,0-14.28,8.13-14.28,17.4
			c0,8.98,4.77,16.64,14.56,16.64C478.29,101.3,482.54,93.17,482.54,84.33z"/>
		<path d="M504.38,36.12h12.1v30.96c3.26-6.29,9.93-9.12,16.92-9.12c12.1,0,18.15,8.51,18.15,20.04v31.67h-12.2V79.18
			c0-7.28-3.78-11.25-10.83-11.25c-7.75,0-12.05,4.77-12.05,12.01v29.73h-12.1V36.12z"/>
		<path d="M587.72,57.96c15.36,0,27.18,10.78,27.18,26.28c0,15.93-12.43,26.38-27.7,26.38c-15.41,0-27.8-10.68-27.8-26.14
			C559.41,68.59,572.5,57.96,587.72,57.96z M601.9,84.33c0-9.31-4.73-17.06-14.65-17.06c-10.21,0-14.28,8.13-14.28,17.4
			c0,8.98,4.77,16.64,14.56,16.64C597.65,101.3,601.9,93.17,601.9,84.33z"/>
	</g>
</g>
<g>
	<g>
		<path class="st1" d="M102.24,248.11c-4.12,0-7.64-2.96-8.35-7.02L57.23,33.2c-0.66-3.81-3.41-6.92-7.1-8.06l-16.37-5.09
			c-4.49-1.35-7.03-6.09-5.68-10.58s6.09-7.03,10.58-5.68c0.05,0.01,0.1,0.03,0.15,0.05l16.37,5.09
			c9.77,3.02,17.02,11.25,18.78,21.33l36.65,207.88c0.82,4.62-2.27,9.02-6.88,9.84c0,0,0,0,0,0
			C103.23,248.06,102.73,248.11,102.24,248.11z"/>
	</g>
	<path class="st1" d="M142.6,276.37c-4.69,0-8.49-3.8-8.49-8.49c0-4.12,2.96-7.65,7.02-8.36l150.61-26.56
		c5.62-0.95,9.4-6.28,8.45-11.9c-0.95-5.62-6.28-9.4-11.9-8.45c-0.04,0.01-0.09,0.01-0.13,0.02l-129.35,22.81
		c-14.85,2.62-29.01-7.3-31.63-22.14c0,0,0,0,0,0L104.38,83.95c-2.62-14.85,7.3-29.01,22.14-31.63c0,0,0,0,0,0l129.35-22.81
		c14.85-2.62,29.01,7.3,31.63,22.14c0,0,0,0,0,0l21.11,119.73c0.75,4.63-2.39,8.99-7.02,9.74c-4.54,0.74-8.84-2.28-9.7-6.8
		L270.78,54.61c-0.99-5.61-6.34-9.36-11.95-8.37L129.47,69.04c-5.61,0.99-9.36,6.34-8.37,11.95c0,0,0,0,0,0l22.81,129.35
		c0.99,5.61,6.34,9.36,11.95,8.37c0,0,0,0,0.01,0l129.35-22.81c14.8-2.87,29.13,6.8,32,21.61c2.87,14.8-6.8,29.13-21.61,32
		c-0.3,0.06-0.61,0.11-0.91,0.16l-150.61,26.56C143.6,276.33,143.1,276.37,142.6,276.37z"/>
	<g>
		<path class="st2" d="M176.77,111.21c-4.69,0-8.49-3.8-8.49-8.49c0-4.12,2.96-7.65,7.02-8.36l49.11-8.66
			c4.62-0.81,9.02,2.27,9.83,6.89c0.81,4.62-2.27,9.02-6.89,9.83l-49.11,8.66C177.76,111.17,177.27,111.21,176.77,111.21z"/>
	</g>
	<g>
		<path class="st1" d="M118.89,292.57c-18.75,0-33.95-15.21-33.95-33.96s15.21-33.95,33.96-33.95s33.95,15.21,33.95,33.96
			c0,16.46-11.81,30.55-28.02,33.43C122.87,292.4,120.88,292.57,118.89,292.57z M118.99,241.82c-1,0-1.99,0.09-2.97,0.26
			c-9.14,1.63-15.24,10.36-13.61,19.5c1.63,9.14,10.36,15.24,19.5,13.61c9.14-1.63,15.24-10.36,13.61-19.5
			C134.1,247.68,127.14,241.83,118.99,241.82z"/>
	</g>
</g>
</svg>
