<?xml version="1.0" encoding="utf-8"?>
<!-- Generator: Adobe Illustrator 27.3.1, SVG Export Plug-In . SVG Version: 6.00 Build 0)  -->
<svg version="1.1" id="Layer_1" xmlns="http://www.w3.org/2000/svg" xmlns:xlink="http://www.w3.org/1999/xlink" x="0px" y="0px"
	 viewBox="0 0 1460 296" style="enable-background:new 0 0 1460 296;" xml:space="preserve">
<style type="text/css">
	.st0{fill:#FFFFFF;}
	.st1{fill:#E42527;}
</style>
<g>
	<g>
		<path d="M329.5,140.8h28.2l33.1,83.7l32.9-83.7h27.5v114.9h-20.6v-87.6l-36.2,87.6h-9.9l-35-87.6v87.6h-20.1V140.8z"/>
		<path d="M522.2,245.4c-6.4,8.5-15.7,11.8-26.1,11.8c-15.8,0-28.2-8-28.2-24.5c0-23.3,24.6-27,44.2-27h9.9v-1.3
			c0-12-2.8-19.6-16.4-19.6c-8.2,0-15.7,4.2-18.7,12l-15.6-6.7c5.6-14.8,21.3-20.2,36.3-20.2c19.9,0,34.3,9.6,34.3,30.9v54.9h-19.8
			V245.4z M511.9,218.1c-9.3,0-24,1.1-24,13.8c0,8.1,5.9,11.1,13.4,11.1c10.2,0,20.7-5.3,20.7-16.7v-8.2H511.9z"/>
		<path d="M563.2,171.6h20.1v15.8c5.7-11.5,14.8-17,27.6-17V189c-16.2,0-27.6,5.3-27.6,23.3v43.4h-20.1V171.6z"/>
		<path d="M626.8,133.6h20.1v74.7l30.4-36.6h22.1L666,210.2l35.9,45.5h-23.2l-31.9-41v41h-20.1V133.6z"/>
		<path d="M784,237.4c-7,14.8-22.1,19.9-37.5,19.9c-26.5,0-43.2-17.7-43.2-43.9c0-24.6,17-43.6,42.3-43.6
			c27.2,0,40.4,15.9,40.4,48.3h-62.2c0,14.2,8.2,24.6,23.5,24.6c9.1,0,16.6-3.7,21-12.2L784,237.4z M765.9,204.9
			c-0.6-12.7-8.3-20.5-20.2-20.5c-12.6,0-20,8.9-21.7,20.5H765.9z"/>
		<path d="M844.6,255.1c-4.3,1.3-8.8,2-13.8,2c-16,0-25.5-8.3-25.5-25v-45.7H794v-14.8h11.3v-17.3l20.1-8.7v26.1h18.5v14.8h-18.5
			v43.9c0,6.6,2.8,10.7,10.2,10.7c2.8,0,6-0.6,9-1.6V255.1z"/>
		<path d="M872,136.1c6.5,0,11.7,4.8,11.7,11.5c0,6.6-5,11.4-11.6,11.4c-6.5,0-12-4.9-12-11.5C860.1,140.8,865.5,136.1,872,136.1z
			 M861.9,171.8H882v83.9h-20.1V171.8z"/>
		<path d="M904.7,171.6h20.1V185c5.4-10.4,16.7-15.1,28.4-15.1c20.2,0,29.3,14.2,29.3,33.3v52.6h-20.4v-50.6
			c0-11.8-5.3-18.7-17.2-18.7c-12.6,0-20.1,7.8-20.1,19.9v49.4h-20.1V171.6z"/>
		<path d="M1016.6,259.4c4.2,9.3,13.9,12.1,23.2,12.1c14.9,0,23.9-7.1,23.9-22.4v-12.6c-5.7,9.7-17,15.8-28.2,15.8
			c-23.8,0-37.6-18.7-37.6-40.6c0-22.6,14.8-41.9,38.1-41.9c11.4,0,21.8,4.6,27.7,14.7v-12.9h20.2v77.8c0,26.4-19.8,37.1-44.1,37.1
			c-15.6,0-32.3-4.4-39.1-20.2L1016.6,259.4z M1064.5,210.6c0-14.4-7.8-25.3-23-25.3c-16.1,0-22.9,12.2-22.9,26.8
			c0,13.1,8.2,24.7,22.2,24.7C1056.5,236.8,1064.5,225.2,1064.5,210.6z"/>
		<path d="M1142,140.8h39.9c24.2,0,43.1,9.7,43.1,36.2c0,29.1-23,35.4-47.6,35.4h-13.2v43.3H1142V140.8z M1181.8,196.4
			c13.7,0,21.5-5.7,21.5-19.5c0-14.4-8.5-19.1-21.5-19.1h-17.5v38.7H1181.8z"/>
		<path d="M1240.6,137.6l20.1-8.7v126.8h-20.1V137.6z"/>
		<path d="M1339.6,242.5c-5.3,10.2-16.1,14.8-27.7,14.8c-19.3,0-29.5-12.7-29.5-31.8v-53.8h20.1V223c0,11.5,5.3,18.5,17,18.5
			c12.6,0,20.2-8.1,20.2-20.1v-49.8h20v84h-20V242.5z"/>
		<path d="M1390.6,230.6c3.1,8.2,11.7,12.2,20.8,12.2c6.5,0,14.6-2,14.6-10c0-8.4-9.1-10.4-19.5-12.6c-13.5-2.8-28.6-6.1-28.6-25
			c0-17.3,16.1-25.5,31.3-25.5c13.3,0,28.6,5,34.1,18.3l-14.9,6.4c-3.3-7.5-11.5-10.3-18.4-10.3c-6.7,0-13.1,2.7-13.1,9.5
			c0,7.7,8.2,9.3,18.4,11.3c13.7,2.7,30.1,5.8,30.1,25.4c0,19.8-16.6,26.8-34.1,26.8c-14.8,0-30.8-5-36-20.1L1390.6,230.6z"/>
	</g>
	<g>
		<path d="M329.7,104.4l37-53.4h-33.2V40.5h50.6v5.2L348,99.1h35v10.5h-53.3V104.4z"/>
		<path d="M415.7,58c15.4,0,27.2,10.8,27.2,26.3c0,15.9-12.4,26.4-27.7,26.4c-15.4,0-27.8-10.7-27.8-26.1
			C387.4,68.6,400.5,58,415.7,58z M429.9,84.3c0-9.3-4.7-17.1-14.7-17.1c-10.2,0-14.3,8.1-14.3,17.4c0,9,4.8,16.6,14.6,16.6
			C425.7,101.3,429.9,93.2,429.9,84.3z"/>
		<path d="M451.8,36.1h12.1v31c3.3-6.3,9.9-9.1,16.9-9.1c12.1,0,18.2,8.5,18.2,20v31.7h-12.2V79.2c0-7.3-3.8-11.3-10.8-11.3
			c-7.8,0-12.1,4.8-12.1,12v29.7h-12.1V36.1z"/>
		<path d="M535.1,58c15.4,0,27.2,10.8,27.2,26.3c0,15.9-12.4,26.4-27.7,26.4c-15.4,0-27.8-10.7-27.8-26.1
			C506.8,68.6,519.9,58,535.1,58z M549.3,84.3c0-9.3-4.7-17.1-14.7-17.1c-10.2,0-14.3,8.1-14.3,17.4c0,9,4.8,16.6,14.6,16.6
			C545,101.3,549.3,93.2,549.3,84.3z"/>
	</g>
</g>
<path class="st1" d="M265.1,78.3c0-2-1.1-3.9-2.8-4.9L141.6,3.8c-1.8-1-3.9-1-5.7,0L15.3,73.4c-1.8,1-2.8,2.9-2.8,4.9v139.3
	c0,2,1.1,3.9,2.8,4.9l120.7,69.7c1.8,1,3.9,1,5.7,0l120.7-69.7l0.1,0l0.1-0.1c0.1-0.1,0.2-0.1,0.3-0.2l0.1-0.1
	c0.1-0.1,0.2-0.2,0.4-0.3l0,0c0.1-0.1,0.2-0.2,0.3-0.3c0,0,0.1-0.1,0.1-0.1c0.1-0.1,0.1-0.2,0.2-0.3l0.1-0.1
	c0.1-0.1,0.2-0.2,0.3-0.3c0,0,0.1-0.1,0.1-0.1c0,0,0.1-0.2,0.1-0.3c0-0.1,0.1-0.1,0.1-0.2c0.1-0.1,0.1-0.2,0.1-0.3
	c0-0.1,0-0.1,0.1-0.2c0-0.1,0.1-0.2,0.1-0.3c0-0.1,0-0.1,0-0.2c0-0.1,0.1-0.2,0.1-0.4c0,0,0-0.1,0-0.1c0-0.2,0.1-0.3,0.1-0.5
	c0,0,0,0,0,0c0,0,0,0,0-0.1c0-0.1,0-0.3,0-0.4c0,0,0-0.1,0-0.1c0,0,0,0,0,0L265.1,78.3z M144.5,210.2l81.8,9.4
	c0.6,0.2,1.1,0.3,1.7,0.3c0.1,0,0.3,0,0.4,0l13.3,1.5l-97.2,56.1V210.2z M144.5,151.2l77.8-45v101.5l-77.8-8.9V151.2z M133.1,197.5
	l-20.3-2.3v-25.7l20.3-11.7V197.5z M233.7,209V99.6L253.7,88v123.3L233.7,209z M138.8,15.2l109.1,63l-61.1,35.3l-45.2-26.2
	c-1.8-1-3.9-1-5.7,0l-45.1,26.2L29.7,78.2L138.8,15.2z M23.8,87.9l64,37c0.2,0.1,0.3,0.2,0.5,0.3l26.5,15.3c2.6,1.7,6.2,1,7.9-1.7
	c1.7-2.6,1-6.2-1.7-7.9c-0.2-0.1-0.3-0.2-0.5-0.3l-18.2-10.5l36.6-21.2l36.7,21.3l-38.8,22.4c-0.6,0.2-1.1,0.5-1.6,0.9l-30.9,17.8
	c-1.8,1-2.8,2.9-2.8,4.9v34.1c0,2.9,2.2,5.3,5,5.6l26.6,3v68.6L23.8,214.4V87.9z"/>
</svg>
