<?xml version="1.0" encoding="utf-8"?>
<!-- Generator: Adobe Illustrator 27.3.1, SVG Export Plug-In . SVG Version: 6.00 Build 0)  -->
<svg version="1.1" id="Layer_1" xmlns="http://www.w3.org/2000/svg" xmlns:xlink="http://www.w3.org/1999/xlink" x="0px" y="0px"
	 viewBox="0 0 1196 296" style="enable-background:new 0 0 1196 296;" xml:space="preserve">
<style type="text/css">
	.st0{fill:#FFFFFF;}
	.st1{fill:#089949;}
	.st2{fill:#E42527;}
	.st3{fill:#226DB4;}
</style>
<g>
	<g>
		<path d="M359.4,140.8h39.9c24.2,0,43.1,9.7,43.1,36.2c0,29.1-23,35.4-47.6,35.4h-13.2v43.3h-22.3V140.8z M399.2,196.4
			c13.7,0,21.5-5.7,21.5-19.5c0-14.4-8.5-19.1-21.5-19.1h-17.5v38.7H399.2z"/>
		<path d="M501.3,245.4c-6.4,8.5-15.7,11.8-26.1,11.8c-15.8,0-28.2-8-28.2-24.5c0-23.3,24.6-27,44.2-27h9.9v-1.3
			c0-12-2.8-19.6-16.4-19.6c-8.2,0-15.7,4.2-18.7,12l-15.6-6.7c5.6-14.8,21.3-20.2,36.3-20.2c19.9,0,34.3,9.6,34.3,30.9v54.9h-19.8
			V245.4z M491,218.1c-9.3,0-24,1.1-24,13.8c0,8.1,5.9,11.1,13.4,11.1c10.2,0,20.7-5.3,20.7-16.7v-8.2H491z"/>
		<path d="M555.2,259.4c4.2,9.3,13.9,12.1,23.2,12.1c14.9,0,23.9-7.1,23.9-22.4v-12.6c-5.7,9.7-17,15.8-28.2,15.8
			c-23.8,0-37.6-18.7-37.6-40.6c0-22.6,14.8-41.9,38.1-41.9c11.4,0,21.8,4.6,27.7,14.7v-12.9h20.2v77.8c0,26.4-19.8,37.1-44.1,37.1
			c-15.6,0-32.3-4.4-39.1-20.2L555.2,259.4z M603.1,210.6c0-14.4-7.8-25.3-23-25.3c-16.1,0-22.9,12.2-22.9,26.8
			c0,13.1,8.2,24.7,22.2,24.7C595.1,236.8,603.1,225.2,603.1,210.6z"/>
		<path d="M719.6,237.4c-7,14.8-22.1,19.9-37.5,19.9c-26.5,0-43.2-17.7-43.2-43.9c0-24.6,17-43.6,42.3-43.6
			c27.2,0,40.4,15.9,40.4,48.3h-62.2c0,14.2,8.2,24.6,23.5,24.6c9.1,0,16.6-3.7,21-12.2L719.6,237.4z M701.6,204.9
			c-0.6-12.7-8.3-20.5-20.2-20.5c-12.6,0-20,8.9-21.7,20.5H701.6z"/>
		<path d="M747.4,221.1c4.7,13.1,16.3,19.9,30.3,19.9c10.6,0,21.7-5.6,21.7-17.6c0-12.7-12.6-15-26.5-17.5
			c-17.8-3.2-37.4-7-37.4-33.4c0-22.1,19.8-33.3,39.6-33.3c18.4,0,34.6,7.5,41.7,25.4l-16.3,7.4c-4.9-10.1-14-16.2-25.7-16.2
			c-9.3,0-18.7,3.9-18.7,15.1c0,12.4,11.6,14.6,25.6,17.1c18,3.2,38.8,6.8,38.8,33.7c0,23.3-21.7,35.6-42.9,35.6
			c-20.6,0-41.4-7.4-47.6-28.7L747.4,221.1z"/>
		<path d="M912.7,237.4c-7,14.8-22.1,19.9-37.5,19.9c-26.5,0-43.2-17.7-43.2-43.9c0-24.6,17-43.6,42.3-43.6
			c27.2,0,40.4,15.9,40.4,48.3h-62.2c0,14.2,8.2,24.6,23.5,24.6c9.1,0,16.6-3.7,21-12.2L912.7,237.4z M894.6,204.9
			c-0.6-12.7-8.3-20.5-20.2-20.5c-12.6,0-20,8.9-21.7,20.5H894.6z"/>
		<path d="M930.8,171.6h20.1V185c5.4-10.4,16.7-15.1,28.4-15.1c20.2,0,29.3,14.2,29.3,33.3v52.6h-20.4v-50.6
			c0-11.8-5.3-18.7-17.2-18.7c-12.6,0-20.1,7.8-20.1,19.9v49.4h-20.1V171.6z"/>
		<path d="M1038.6,230.6c3.1,8.2,11.7,12.2,20.8,12.2c6.5,0,14.6-2,14.6-10c0-8.4-9.1-10.4-19.5-12.6c-13.5-2.8-28.6-6.1-28.6-25
			c0-17.3,16.1-25.5,31.3-25.5c13.3,0,28.6,5,34.1,18.3l-14.9,6.4c-3.3-7.5-11.5-10.3-18.4-10.3c-6.7,0-13.1,2.7-13.1,9.5
			c0,7.7,8.2,9.3,18.4,11.3c13.7,2.7,30.1,5.8,30.1,25.4c0,19.8-16.6,26.8-34.1,26.8c-14.8,0-30.8-5-36-20.1L1038.6,230.6z"/>
		<path d="M1184.3,237.4c-7,14.8-22.1,19.9-37.5,19.9c-26.5,0-43.2-17.7-43.2-43.9c0-24.6,17-43.6,42.3-43.6
			c27.2,0,40.4,15.9,40.4,48.3H1124c0,14.2,8.2,24.6,23.5,24.6c9.1,0,16.6-3.7,21-12.2L1184.3,237.4z M1166.2,204.9
			c-0.6-12.7-8.3-20.5-20.2-20.5c-12.6,0-20,8.9-21.7,20.5H1166.2z"/>
	</g>
	<g>
		<path d="M359.5,104.4l37-53.4h-33.2V40.5h50.6v5.2l-36.1,53.4h35v10.5h-53.3V104.4z"/>
		<path d="M445.6,58c15.4,0,27.2,10.8,27.2,26.3c0,15.9-12.4,26.4-27.7,26.4c-15.4,0-27.8-10.7-27.8-26.1
			C417.3,68.6,430.3,58,445.6,58z M459.7,84.3c0-9.3-4.7-17.1-14.7-17.1c-10.2,0-14.3,8.1-14.3,17.4c0,9,4.8,16.6,14.6,16.6
			C455.5,101.3,459.7,93.2,459.7,84.3z"/>
		<path d="M481.6,36.1h12.1v31c3.3-6.3,9.9-9.1,16.9-9.1c12.1,0,18.2,8.5,18.2,20v31.7h-12.2V79.2c0-7.3-3.8-11.3-10.8-11.3
			c-7.8,0-12.1,4.8-12.1,12v29.7h-12.1V36.1z"/>
		<path d="M564.9,58c15.4,0,27.2,10.8,27.2,26.3c0,15.9-12.4,26.4-27.7,26.4c-15.4,0-27.8-10.7-27.8-26.1
			C536.6,68.6,549.7,58,564.9,58z M579.1,84.3c0-9.3-4.7-17.1-14.7-17.1c-10.2,0-14.3,8.1-14.3,17.4c0,9,4.8,16.6,14.6,16.6
			C574.9,101.3,579.1,93.2,579.1,84.3z"/>
	</g>
</g>
<g>
	<g>
		<path class="st1" d="M248.9,242.1c-1.2,0-2.4-0.1-3.6-0.3l-26.5-3.7c-4.6-0.7-7.9-5-7.2-9.6c0.7-4.6,5-7.9,9.6-7.2l26.5,3.7
			c4.6,0.7,8.9-2.6,9.6-7.2l20.5-146.1c0.3-2.2-0.3-4.5-1.6-6.3c-1.4-1.8-3.3-3-5.6-3.3L136.2,43.3c-4.6-0.7-8.9,2.6-9.6,7.2
			l-2.5,17.6c-0.7,4.6-5,7.9-9.6,7.2c-4.6-0.7-7.9-5-7.2-9.6l2.5-17.6c2-13.9,14.9-23.6,28.8-21.7L273,45.3
			c6.7,0.9,12.7,4.4,16.8,9.9c4.1,5.4,5.8,12.1,4.9,18.9l-20.5,146.1C272.3,232.9,261.4,242.1,248.9,242.1z"/>
	</g>
	<g>
		<path class="st2" d="M36.5,269.8c-4.2,0-7.8-3.1-8.4-7.3L5.2,99.6C4.2,92.9,6,86.2,10,80.8c4.1-5.4,10.1-8.9,16.8-9.9L161.2,52
			c13.9-2,26.8,7.8,28.8,21.7l19.1,135.7c0.7,4.6-2.6,8.9-7.2,9.6c-4.6,0.7-8.9-2.6-9.6-7.2L173.2,76c-0.7-4.6-5-7.9-9.6-7.2
			L29.2,87.7C27,88,25,89.2,23.6,91s-1.9,4-1.6,6.3l22.9,162.9c0.7,4.6-2.6,8.9-7.2,9.6C37.3,269.8,36.9,269.8,36.5,269.8z"/>
	</g>
	<path class="st3" d="M259.3,108.7c0-14-11.4-25.5-25.5-25.5s-25.5,11.4-25.5,25.5c0,8.8,4.4,16.5,11.2,21.1L200.8,202
		c-4.7,0.4-9,2.1-12.7,4.7l-60.7-40.8c0.5-2,0.8-4.2,0.8-6.3c0-14-11.4-25.5-25.5-25.5s-25.5,11.4-25.5,25.5c0,5.8,2,11.2,5.2,15.5
		l-53.2,81.6c-2.6,3.9-1.4,9.2,2.5,11.8c1.4,0.9,3,1.4,4.6,1.4c2.8,0,5.5-1.4,7.1-3.9l53.2-81.6c1.9,0.5,3.9,0.7,6,0.7
		c5.7,0,10.9-1.9,15.2-5l60.5,40.7c-0.6,2.1-0.9,4.4-0.9,6.7c0,14,11.4,25.5,25.5,25.5c14,0,25.5-11.4,25.5-25.5
		c0-8.8-4.5-16.6-11.3-21.1l18.7-72.1C249,133,259.3,122,259.3,108.7z M233.8,100.3c4.7,0,8.5,3.8,8.5,8.5s-3.8,8.5-8.5,8.5
		s-8.5-3.8-8.5-8.5S229.1,100.3,233.8,100.3z M94.3,159.6c0-4.7,3.8-8.5,8.5-8.5c4.7,0,8.5,3.8,8.5,8.5c0,1.6-0.4,3.1-1.2,4.3
		c-0.1,0.1-0.2,0.3-0.3,0.4c-0.1,0.1-0.2,0.3-0.3,0.4c-1.6,2-4,3.4-6.7,3.4C98.1,168,94.3,164.3,94.3,159.6z M203.1,235.8
		c-4.7,0-8.5-3.8-8.5-8.5s3.8-8.5,8.5-8.5c4.7,0,8.5,3.8,8.5,8.5C211.6,232,207.8,235.8,203.1,235.8z"/>
</g>
</svg>
