<?xml version="1.0" encoding="UTF-8"?>
<svg id="Layer_1" data-name="Layer 1" xmlns="http://www.w3.org/2000/svg" viewBox="0 0 1000.15 290">
  <defs>
    <style>
      .cls-1 {
        fill: #f9b21d;
      }

      .cls-2 {
        fill: #e42527;
      }

      .cls-3 {
        fill: #226db4;
      }

      .cls-4 {
        fill: #089949;
      }
    </style>
  </defs>
  <g>
    <path d="m298.92,22.71h47.62c26.32,0,49.5,9.7,49.5,39.53,0,18.78-11.23,30.91-29.11,35.31l37.02,56.69h-27.49l-34.23-53.01h-17.79v53.01h-25.52V22.71Zm46.9,60.91c14.64,0,25.43-5.57,25.43-21.29s-11.5-20.12-25.43-20.12h-21.38v41.42h21.38Z"/>
    <path d="m462.8,55.95c29.2,0,51.66,20.48,51.66,49.95s-23.63,50.13-52.65,50.13-52.83-20.3-52.83-49.68,24.89-50.4,53.82-50.4Zm26.95,50.13c0-17.7-8.98-32.43-27.85-32.43s-27.13,15.45-27.13,33.06,9.07,31.62,27.67,31.62,27.31-15.45,27.31-32.25Z"/>
    <path d="m595.76,139.15c-6.02,11.68-18.42,16.89-31.71,16.89-22.1,0-33.78-14.55-33.78-36.39v-61.63h23v58.85c0,13.12,6.02,21.2,19.41,21.2,14.38,0,23.09-9.25,23.09-23v-57.05h22.91v96.22h-22.91v-15.09Z"/>
    <path d="m692.62,153.52c-4.94,1.44-10.06,2.34-15.81,2.34-18.33,0-29.2-9.52-29.2-28.66v-52.29h-12.94v-16.89h12.94v-19.86l23-9.97v29.83h21.2v16.89h-21.2v50.22c0,7.55,3.23,12.22,11.68,12.22,3.23,0,6.83-.72,10.33-1.89v18.06Z"/>
    <path d="m795.94,133.31c-8,16.98-25.25,22.73-42.95,22.73-30.37,0-49.5-20.3-49.5-50.22,0-28.21,19.5-49.86,48.43-49.86,31.09,0,46.27,18.15,46.27,55.25h-71.25c0,16.26,9.43,28.12,26.95,28.12,10.42,0,19.05-4.22,24.08-14.02l17.97,8Zm-20.66-37.2c-.72-14.55-9.52-23.45-23.09-23.45-14.46,0-22.91,10.15-24.89,23.45h47.98Z"/>
    <path d="m818.49,22.71h25.43v131.53h-25.43V22.71Z"/>
    <path d="m959.09,151.63c-8.36,2.96-17.16,4.4-26.32,4.4-40.16,0-67.2-28.21-67.2-68.19s28.66-67.02,68.28-67.02,66.3,28.12,66.3,67.56c0,20.57-7.37,39.44-22.82,52.83l14.64,15.63-14.64,14.29-18.24-19.5Zm-12.76-43.75l15.36,16.53c8.98-10.24,12.04-23.63,12.04-36.93,0-24.98-13.48-46.63-41.51-46.63s-40.07,22.01-40.07,48.25c0,24.71,14.55,47.26,41.33,47.26,3.41,0,6.92-.36,10.15-1.26l-12.31-13.21,15-14.02Z"/>
  </g>
  <g>
    <path d="m301.69,229.2h-5.26v-4.89h5.26v-1.61c0-2.1.08-4.08.24-5.96.16-1.88.6-3.54,1.33-4.97.73-1.44,1.83-2.57,3.32-3.42,1.48-.84,3.53-1.26,6.15-1.26.8,0,1.61.05,2.44.15.83.1,1.66.28,2.48.53l-1.88,4.48c-1.09-.18-2.04-.27-2.84-.27-1.03,0-1.88.15-2.56.46-.68.31-1.24.74-1.67,1.3-.43.56-.74,1.22-.92,1.98-.18.76-.27,1.6-.27,2.51v6.08h8.96v4.89h-8.96v31.72h-5.81v-31.72Z"/>
    <path d="m338.81,261.53c-2.73,0-5.21-.49-7.43-1.47-2.22-.98-4.11-2.32-5.67-4.02-1.56-1.7-2.76-3.69-3.61-5.98-.84-2.29-1.26-4.75-1.26-7.37s.45-5.23,1.35-7.55,2.15-4.33,3.76-6.03c1.61-1.7,3.54-3.03,5.79-4s4.73-1.45,7.42-1.45,5.22.49,7.45,1.47c2.23.98,4.14,2.32,5.71,4.03s2.79,3.71,3.64,6c.86,2.29,1.28,4.75,1.28,7.37s-.45,5.2-1.35,7.52-2.17,4.34-3.79,6.03c-1.63,1.7-3.57,3.03-5.83,4-2.26.97-4.74,1.45-7.45,1.45Zm.1-4.85c2.1,0,3.92-.39,5.47-1.16,1.55-.77,2.83-1.81,3.84-3.11s1.77-2.8,2.26-4.5c.49-1.7.74-3.47.74-5.31s-.26-3.72-.77-5.42c-.51-1.7-1.29-3.19-2.32-4.48-1.04-1.29-2.33-2.31-3.88-3.06-1.55-.75-3.35-1.13-5.4-1.13s-3.87.38-5.38,1.14c-1.52.76-2.76,1.79-3.74,3.09-.98,1.3-1.7,2.8-2.17,4.49-.47,1.7-.7,3.49-.7,5.38s.25,3.83.75,5.54c.5,1.71,1.26,3.2,2.27,4.46,1.01,1.27,2.27,2.26,3.78,2.97,1.5.72,3.26,1.08,5.26,1.08Z"/>
    <path d="m366.01,224.31h5.81v6.56c1.32-2.46,2.97-4.25,4.94-5.38,1.97-1.13,4.33-1.74,7.09-1.83v5.47c-2.01.07-3.76.32-5.26.77-1.5.44-2.76,1.13-3.76,2.05-1,.92-1.75,2.11-2.26,3.55-.5,1.45-.75,3.22-.75,5.31v20.1h-5.81v-36.61Z"/>
    <path d="m402.45,258.39l29.19-42.55h-26.66v-4.96h34.25v2.5l-28.44,42.35h27.99v5.2h-36.33v-2.53Z"/>
    <path d="m462.57,261.53c-2.73,0-5.21-.49-7.43-1.47-2.22-.98-4.11-2.32-5.67-4.02-1.56-1.7-2.76-3.69-3.61-5.98-.84-2.29-1.26-4.75-1.26-7.37s.45-5.23,1.35-7.55,2.15-4.33,3.76-6.03c1.61-1.7,3.54-3.03,5.79-4s4.73-1.45,7.42-1.45,5.22.49,7.45,1.47c2.23.98,4.14,2.32,5.71,4.03s2.79,3.71,3.64,6c.86,2.29,1.28,4.75,1.28,7.37s-.45,5.2-1.35,7.52-2.17,4.34-3.79,6.03c-1.63,1.7-3.57,3.03-5.83,4-2.26.97-4.74,1.45-7.45,1.45Zm.1-4.85c2.1,0,3.92-.39,5.47-1.16,1.55-.77,2.83-1.81,3.84-3.11s1.77-2.8,2.26-4.5c.49-1.7.74-3.47.74-5.31s-.26-3.72-.77-5.42c-.51-1.7-1.29-3.19-2.32-4.48-1.04-1.29-2.33-2.31-3.88-3.06-1.55-.75-3.35-1.13-5.4-1.13s-3.87.38-5.38,1.14c-1.52.76-2.76,1.79-3.74,3.09-.98,1.3-1.7,2.8-2.17,4.49-.47,1.7-.7,3.49-.7,5.38s.25,3.83.75,5.54c.5,1.71,1.26,3.2,2.27,4.46,1.01,1.27,2.27,2.26,3.78,2.97,1.5.72,3.26,1.08,5.26,1.08Z"/>
    <path d="m489.78,207.73h5.81v22.39c1.16-2.26,2.77-3.9,4.82-4.92s4.33-1.54,6.84-1.54c2.26,0,4.24.38,5.95,1.14,1.71.76,3.13,1.82,4.27,3.18,1.14,1.36,2,2.96,2.58,4.8.58,1.85.87,3.85.87,6.02v22.11h-5.81v-22.52c0-3.17-.78-5.57-2.32-7.21-1.55-1.64-3.84-2.46-6.87-2.46-3.26,0-5.79.89-7.61,2.68-1.81,1.79-2.72,4.23-2.72,7.33v22.18h-5.81v-53.18Z"/>
    <path d="m547.34,261.53c-2.73,0-5.21-.49-7.43-1.47-2.22-.98-4.11-2.32-5.67-4.02-1.56-1.7-2.76-3.69-3.61-5.98-.84-2.29-1.26-4.75-1.26-7.37s.45-5.23,1.35-7.55,2.15-4.33,3.76-6.03c1.61-1.7,3.54-3.03,5.79-4s4.73-1.45,7.42-1.45,5.22.49,7.45,1.47c2.23.98,4.14,2.32,5.71,4.03s2.79,3.71,3.64,6c.86,2.29,1.28,4.75,1.28,7.37s-.45,5.2-1.35,7.52-2.17,4.34-3.79,6.03c-1.63,1.7-3.57,3.03-5.83,4-2.26.97-4.74,1.45-7.45,1.45Zm.1-4.85c2.1,0,3.92-.39,5.47-1.16,1.55-.77,2.83-1.81,3.84-3.11s1.77-2.8,2.26-4.5c.49-1.7.74-3.47.74-5.31s-.26-3.72-.77-5.42c-.51-1.7-1.29-3.19-2.32-4.48-1.04-1.29-2.33-2.31-3.88-3.06-1.55-.75-3.35-1.13-5.4-1.13s-3.87.38-5.38,1.14c-1.52.76-2.76,1.79-3.74,3.09-.98,1.3-1.7,2.8-2.17,4.49-.47,1.7-.7,3.49-.7,5.38s.25,3.83.75,5.54c.5,1.71,1.26,3.2,2.27,4.46,1.01,1.27,2.27,2.26,3.78,2.97,1.5.72,3.26,1.08,5.26,1.08Z"/>
    <path d="m631.45,246.63c-.84,2.12-1.96,4.08-3.35,5.9-1.39,1.81-2.99,3.38-4.79,4.72-1.8,1.33-3.77,2.38-5.9,3.14-2.13.76-4.36,1.14-6.68,1.14-3.87,0-7.3-.65-10.27-1.96-2.97-1.31-5.47-3.12-7.5-5.42-2.03-2.3-3.56-5.04-4.6-8.2-1.04-3.17-1.55-6.6-1.55-10.29,0-3.42.55-6.67,1.66-9.76,1.1-3.09,2.68-5.8,4.72-8.13,2.04-2.33,4.51-4.19,7.42-5.55,2.91-1.37,6.15-2.05,9.72-2.05,2.23,0,4.41.33,6.54.97,2.13.65,4.11,1.58,5.93,2.79,1.82,1.21,3.44,2.67,4.85,4.38,1.41,1.71,2.52,3.62,3.32,5.74l-4.96,2.15c-.64-1.66-1.47-3.18-2.5-4.56s-2.21-2.56-3.54-3.54c-1.33-.98-2.81-1.74-4.43-2.29-1.62-.55-3.34-.82-5.16-.82-3.03,0-5.63.6-7.81,1.79-2.18,1.2-3.96,2.77-5.37,4.72-1.4,1.95-2.44,4.18-3.11,6.68-.67,2.51-1.01,5.07-1.01,7.69,0,2.8.37,5.46,1.11,7.96.74,2.51,1.85,4.71,3.33,6.6,1.48,1.89,3.33,3.39,5.55,4.5,2.22,1.11,4.81,1.66,7.78,1.66,1.8,0,3.53-.32,5.18-.96,1.65-.64,3.17-1.5,4.56-2.6,1.39-1.09,2.61-2.36,3.67-3.81,1.06-1.45,1.91-2.98,2.55-4.6l4.61,2.02Z"/>
    <path d="m640.58,210.88h16.51c2.3,0,4.51.25,6.61.75,2.11.5,3.96,1.3,5.57,2.41,1.61,1.11,2.89,2.54,3.84,4.31s1.44,3.92,1.44,6.48c0,2.01-.31,3.79-.92,5.35s-1.47,2.92-2.56,4.07c-1.09,1.15-2.4,2.1-3.91,2.85-1.52.75-3.19,1.32-5.01,1.71l15.35,22.18h-6.8l-14.87-21.77h-9.13v21.77h-6.12v-50.11Zm16.92,23.45c1.59,0,3.06-.17,4.41-.51,1.34-.34,2.5-.89,3.47-1.64.97-.75,1.72-1.73,2.26-2.94.53-1.21.8-2.68.8-4.41s-.28-3.21-.84-4.38-1.33-2.09-2.31-2.79c-.98-.7-2.14-1.18-3.47-1.47-1.33-.28-2.78-.43-4.32-.43h-10.8v18.56h10.8Z"/>
    <path d="m685.83,210.88h8.48l16.03,39.68,15.83-39.68h8.41v50.04h-6.08v-42.14l-16.95,42.14h-2.6l-17.5-42.14v42.14h-5.61v-50.04Z"/>
  </g>
  <g>
    <circle class="cls-4" cx="117.2" cy="273" r="17"/>
    <circle class="cls-1" cx="23.9" cy="62.3" r="17"/>
    <circle class="cls-2" cx="153.5" cy="173" r="17"/>
    <path class="cls-3" d="m88.3,263.4c-1.7,0-3.5-.5-5-1.6-15.2-11.1-36.8-29.5-54-54.3C9.9,179.4,0,149,0,117.2c0-8.6.9-17.1,2.8-25.4,1-4.6,5.6-7.5,10.2-6.5,4.6,1,7.5,5.6,6.5,10.2-1.6,7.1-2.4,14.4-2.4,21.7,0,28.3,8.9,55.4,26.3,80.6,15.8,22.8,35.9,39.9,50,50.2,3.8,2.8,4.6,8.1,1.8,11.9-1.6,2.3-4.3,3.5-6.9,3.5Z"/>
    <path class="cls-3" d="m163.7,249.2c-1.2,0-2.5-.3-3.7-.8-24.6-11.7-50.7-30.6-69.7-50.8-24.8-26.1-37.9-53.6-37.9-79.5,0-17.3,6.7-33.5,19-45.8,12.3-12.3,28.5-19,45.8-19s33.5,6.7,45.8,19c12.3,12.2,19,28.5,19,45.8,0,9.1-1.5,18.4-4.5,27.5-1.4,4.5-6.3,6.9-10.7,5.4-4.5-1.4-6.9-6.3-5.4-10.7,2.4-7.4,3.7-14.9,3.7-22.2,0-26.3-21.4-47.7-47.7-47.7s-48,21.3-48,47.6c0,15,5.8,38.8,33.2,67.8,16.4,17.3,38.4,33.7,59.6,44.6,15-13.8,27.1-28.8,36.2-44.5,12.5-21.8,18.9-44.9,18.9-68.8,0-26.8-10.4-51.9-29.3-70.8-18.9-18.9-44.1-29.3-70.8-29.3-24.5,0-48.1,9-66.4,25.2-3.5,3.1-8.9,2.8-12-.7-3.1-3.5-2.8-8.9.7-12C60.9,10.4,88.5,0,117.2,0c15.8,0,31.2,3.1,45.6,9.2,14,5.9,26.5,14.4,37.2,25.1,10.7,10.7,19.2,23.3,25.1,37.2,6.1,14.4,9.2,29.8,9.2,45.6,0,26.9-7.1,52.9-21.1,77.3-10.8,18.8-25.5,36.4-43.9,52.6-1.6,1.5-3.6,2.2-5.6,2.2Z"/>
  </g>
</svg>