<?xml version="1.0" encoding="utf-8"?>
<!-- Generator: Adobe Illustrator 27.3.1, SVG Export Plug-In . SVG Version: 6.00 Build 0)  -->
<svg version="1.1" id="Layer_1" xmlns="http://www.w3.org/2000/svg" xmlns:xlink="http://www.w3.org/1999/xlink" x="0px" y="0px"
	 viewBox="0 0 940 296" style="enable-background:new 0 0 940 296;" xml:space="preserve">
<style type="text/css">
	.st0{fill:#FFFFFF;}
	.st1{fill:#E42527;}
</style>
<g>
	<g>
		<path d="M368.9,221.1c4.7,13.1,16.3,19.9,30.3,19.9c10.6,0,21.7-5.6,21.7-17.6c0-12.7-12.6-15-26.5-17.5
			c-17.8-3.2-37.4-7-37.4-33.4c0-22.1,19.8-33.3,39.6-33.3c18.4,0,34.6,7.5,41.7,25.4l-16.3,7.4c-4.9-10.1-14-16.2-25.7-16.2
			c-9.3,0-18.7,3.9-18.7,15.1c0,12.4,11.6,14.6,25.6,17.1c18,3.2,38.8,6.8,38.8,33.7c0,23.3-21.7,35.6-42.9,35.6
			c-20.6,0-41.4-7.4-47.6-28.7L368.9,221.1z"/>
		<path d="M507.2,245.4c-6.4,8.5-15.7,11.8-26.1,11.8c-15.8,0-28.2-8-28.2-24.5c0-23.3,24.6-27,44.2-27h9.9v-1.3
			c0-12-2.8-19.6-16.4-19.6c-8.2,0-15.7,4.2-18.7,12l-15.6-6.7c5.6-14.8,21.3-20.2,36.3-20.2c19.9,0,34.3,9.6,34.3,30.9v54.9h-19.8
			V245.4z M497,218.1c-9.3,0-24,1.1-24,13.8c0,8.1,5.9,11.1,13.4,11.1c10.2,0,20.7-5.3,20.7-16.7v-8.2H497z"/>
		<path d="M548.8,137.6l20.1-8.7v126.8h-20.1V137.6z"/>
		<path d="M666.5,237.4c-7,14.8-22.1,19.9-37.5,19.9c-26.5,0-43.2-17.7-43.2-43.9c0-24.6,17-43.6,42.3-43.6
			c27.2,0,40.4,15.9,40.4,48.3h-62.2c0,14.2,8.2,24.6,23.5,24.6c9.1,0,16.6-3.7,21-12.2L666.5,237.4z M648.5,204.9
			c-0.6-12.7-8.3-20.5-20.2-20.5c-12.6,0-20,8.9-21.7,20.5H648.5z"/>
		<path d="M693.9,230.6c3.1,8.2,11.7,12.2,20.8,12.2c6.5,0,14.6-2,14.6-10c0-8.4-9.1-10.4-19.5-12.6c-13.5-2.8-28.6-6.1-28.6-25
			c0-17.3,16.1-25.5,31.3-25.5c13.3,0,28.6,5,34.1,18.3l-14.9,6.4c-3.3-7.5-11.5-10.3-18.4-10.3c-6.7,0-13.1,2.7-13.1,9.5
			c0,7.7,8.2,9.3,18.4,11.3c13.7,2.7,30.1,5.8,30.1,25.4c0,19.8-16.6,26.8-34.1,26.8c-14.8,0-30.8-5-36-20.1L693.9,230.6z"/>
		<path d="M766.1,140.8h22.2v114.9h-22.2V140.8z"/>
		<path d="M888.9,253.4c-7.3,2.6-15,3.8-23,3.8c-35.1,0-58.7-24.6-58.7-59.6c0-33.9,25-58.5,59.6-58.5c34.5,0,57.9,24.6,57.9,59
			c0,18-6.4,34.5-19.9,46.1l12.8,13.7l-12.8,12.5L888.9,253.4z M877.8,215.2l13.4,14.4c7.8-8.9,10.5-20.6,10.5-32.3
			c0-21.8-11.8-40.7-36.3-40.7c-24.6,0-35,19.2-35,42.1c0,21.6,12.7,41.3,36.1,41.3c3,0,6-0.3,8.9-1.1l-10.8-11.5L877.8,215.2z"/>
	</g>
	<g>
		<path d="M360.2,104.4l37-53.4h-33.2V40.5h50.6v5.2l-36.1,53.4h35v10.5h-53.3V104.4z"/>
		<path d="M446.2,58c15.4,0,27.2,10.8,27.2,26.3c0,15.9-12.4,26.4-27.7,26.4c-15.4,0-27.8-10.7-27.8-26.1
			C417.9,68.6,431,58,446.2,58z M460.4,84.3c0-9.3-4.7-17.1-14.7-17.1c-10.2,0-14.3,8.1-14.3,17.4c0,9,4.8,16.6,14.6,16.6
			C456.1,101.3,460.4,93.2,460.4,84.3z"/>
		<path d="M482.2,36.1h12.1v31c3.3-6.3,9.9-9.1,16.9-9.1c12.1,0,18.2,8.5,18.2,20v31.7h-12.2V79.2c0-7.3-3.8-11.3-10.8-11.3
			c-7.8,0-12.1,4.8-12.1,12v29.7h-12.1V36.1z"/>
		<path d="M565.6,58c15.4,0,27.2,10.8,27.2,26.3c0,15.9-12.4,26.4-27.7,26.4c-15.4,0-27.8-10.7-27.8-26.1
			C537.3,68.6,550.4,58,565.6,58z M579.8,84.3c0-9.3-4.7-17.1-14.7-17.1c-10.2,0-14.3,8.1-14.3,17.4c0,9,4.8,16.6,14.6,16.6
			C575.5,101.3,579.8,93.2,579.8,84.3z"/>
	</g>
</g>
<g>
	<path class="st1" d="M293.2,278.4L259,244.3c10.5-11.9,19-25.2,25.2-39.9c7.5-17.9,11.4-36.8,11.4-56.4c0-19.6-3.8-38.6-11.4-56.4
		c-7.3-17.3-17.8-32.8-31.1-46.1c-13.3-13.3-28.8-23.8-46.1-31.1C189.1,6.8,170.2,3,150.6,3S112,6.8,94.1,14.4
		C76.9,21.7,61.4,32.2,48,45.5S24.3,74.3,17,91.6C9.4,109.4,5.6,128.4,5.6,148s3.8,38.6,11.4,56.4c7.3,17.3,17.8,32.8,31.1,46.1
		c13.3,13.3,28.8,23.8,46.1,31.1C112,289.2,131,293,150.6,293l136.6-0.1c3.4,0,6.5-2.1,7.9-5.3C296.4,284.5,295.7,280.8,293.2,278.4
		z M150.6,276c-17.3,0-34-3.4-49.8-10.1c-15.2-6.4-28.9-15.7-40.7-27.4s-21-25.4-27.4-40.7C26,182,22.6,165.3,22.6,148
		s3.4-34,10.1-49.8c6.4-15.2,15.7-28.9,27.4-40.7c11.8-11.8,25.4-21,40.7-27.4c15.8-6.7,32.5-10.1,49.8-10.1s34,3.4,49.8,10.1
		c15.2,6.4,28.9,15.7,40.7,27.4c11.8,11.8,21,25.4,27.4,40.7c6.7,15.8,10.1,32.5,10.1,49.8c0,17.3-3.4,34-10,49.7
		c-5.3,12.6-12.6,24.2-21.6,34.5l-75.8-75.7h11.3c4.7,0,8.5-3.8,8.5-8.5s-3.8-8.5-8.5-8.5h-31.7c0,0,0,0-0.1,0
		c-2.2,0-4.4,0.8-6.1,2.5c-2,2-2.8,4.9-2.4,7.5v30.2c0,4.7,3.8,8.5,8.5,8.5s8.5-3.8,8.5-8.5v-11.1l107.5,107.3L150.6,276z"/>
	<path class="st1" d="M150.6,205.2c-31.5,0-57.2-25.7-57.2-57.2s25.7-57.2,57.2-57.2s57.2,25.7,57.2,57.2c0,5-0.6,9.9-1.9,14.6
		c-1.2,4.5,1.5,9.2,6.1,10.4c4.5,1.2,9.2-1.5,10.4-6.1c1.6-6.2,2.4-12.5,2.4-19c0-19.8-7.7-38.5-21.7-52.5
		c-14-14-32.6-21.7-52.5-21.7s-38.5,7.7-52.5,21.7S76.5,128.2,76.5,148s7.7,38.5,21.7,52.5c14,14,32.6,21.7,52.5,21.7
		c6.7,0,13.3-0.9,19.7-2.6c4.5-1.2,7.2-5.9,6-10.5c-1.2-4.5-5.9-7.2-10.5-6C160.9,204.5,155.8,205.2,150.6,205.2z"/>
</g>
</svg>
