<?xml version="1.0" encoding="utf-8"?>
<!-- Generator: Adobe Illustrator 27.3.1, SVG Export Plug-In . SVG Version: 6.00 Build 0)  -->
<svg version="1.1" id="Layer_1" xmlns="http://www.w3.org/2000/svg" xmlns:xlink="http://www.w3.org/1999/xlink" x="0px" y="0px"
	 viewBox="0 0 660 296" style="enable-background:new 0 0 660 296;" xml:space="preserve">
<style type="text/css">
	.st0{fill:#FFFFFF;}
	.st1{fill:#226DB4;}
	.st2{fill:#F7B21B;enable-background:new    ;}
</style>
<g>
	<g>
		<path d="M336,221.1c4.7,13.1,16.3,19.9,30.3,19.9c10.6,0,21.7-5.6,21.7-17.6c0-12.7-12.6-15-26.5-17.5c-17.8-3.2-37.4-7-37.4-33.4
			c0-22.1,19.8-33.3,39.6-33.3c18.4,0,34.6,7.5,41.7,25.4l-16.3,7.4c-4.9-10.1-14-16.2-25.7-16.2c-9.3,0-18.7,3.9-18.7,15.1
			c0,12.4,11.6,14.6,25.6,17.1c18,3.2,38.8,6.8,38.8,33.7c0,23.3-21.7,35.6-42.9,35.6c-20.6,0-41.4-7.4-47.6-28.7L336,221.1z"/>
		<path d="M436.8,136.1c6.5,0,11.7,4.8,11.7,11.5c0,6.6-5,11.4-11.6,11.4c-6.5,0-12-4.9-12-11.5
			C424.9,140.8,430.3,136.1,436.8,136.1z M426.7,171.8h20.1v83.9h-20.1V171.8z"/>
		<path d="M482.5,259.4c4.2,9.3,13.9,12.1,23.2,12.1c14.9,0,23.9-7.1,23.9-22.4v-12.6c-5.7,9.7-17,15.8-28.2,15.8
			c-23.8,0-37.6-18.7-37.6-40.6c0-22.6,14.8-41.9,38.1-41.9c11.4,0,21.8,4.6,27.7,14.7v-12.9h20.2v77.8c0,26.4-19.8,37.1-44.1,37.1
			c-15.6,0-32.3-4.4-39.1-20.2L482.5,259.4z M530.4,210.6c0-14.4-7.8-25.3-23-25.3c-16.1,0-22.9,12.2-22.9,26.8
			c0,13.1,8.2,24.7,22.2,24.7C522.4,236.8,530.4,225.2,530.4,210.6z"/>
		<path d="M571.9,171.6H592V185c5.4-10.4,16.7-15.1,28.4-15.1c20.2,0,29.3,14.2,29.3,33.3v52.6h-20.4v-50.6
			c0-11.8-5.3-18.7-17.2-18.7c-12.6,0-20.1,7.8-20.1,19.9v49.4h-20.1V171.6z"/>
	</g>
	<g>
		<path d="M327.3,104.4l37-53.4H331V40.5h50.6v5.2l-36.1,53.4h35v10.5h-53.3V104.4z"/>
		<path d="M413.3,58c15.4,0,27.2,10.8,27.2,26.3c0,15.9-12.4,26.4-27.7,26.4c-15.4,0-27.8-10.7-27.8-26.1
			C385,68.6,398.1,58,413.3,58z M427.5,84.3c0-9.3-4.7-17.1-14.7-17.1c-10.2,0-14.3,8.1-14.3,17.4c0,9,4.8,16.6,14.6,16.6
			C423.2,101.3,427.5,93.2,427.5,84.3z"/>
		<path d="M449.3,36.1h12.1v31c3.3-6.3,9.9-9.1,16.9-9.1c12.1,0,18.2,8.5,18.2,20v31.7h-12.2V79.2c0-7.3-3.8-11.3-10.8-11.3
			c-7.8,0-12.1,4.8-12.1,12v29.7h-12.1V36.1z"/>
		<path d="M532.7,58c15.4,0,27.2,10.8,27.2,26.3c0,15.9-12.4,26.4-27.7,26.4c-15.4,0-27.8-10.7-27.8-26.1
			C504.4,68.6,517.5,58,532.7,58z M546.9,84.3c0-9.3-4.7-17.1-14.7-17.1c-10.2,0-14.3,8.1-14.3,17.4c0,9,4.8,16.6,14.6,16.6
			C542.6,101.3,546.9,93.2,546.9,84.3z"/>
	</g>
</g>
<g>
	<g>
		<path class="st1" d="M186,71.2H66.9c-4.7,0-8.5-3.8-8.5-8.5c0-4.7,3.8-8.5,8.5-8.5H186c4.7,0,8.5,3.8,8.5,8.5
			C194.5,67.4,190.7,71.2,186,71.2z"/>
	</g>
	<g>
		<path class="st1" d="M151.8,113.7H66.9c-4.7,0-8.5-3.8-8.5-8.5c0-4.7,3.8-8.5,8.5-8.5h84.9c4.7,0,8.5,3.8,8.5,8.5
			C160.3,109.9,156.5,113.7,151.8,113.7z"/>
	</g>
	<g>
		<path class="st1" d="M225.8,293H44.2c-20.3,0-36.9-16.5-36.9-36.9V39.9C7.3,19.5,23.8,3,44.2,3h181.6c20.3,0,36.9,16.5,36.9,36.9
			v144c0,4.7-3.8,8.5-8.5,8.5c-4.7,0-8.5-3.8-8.5-8.5v-144c0-11-8.9-19.9-19.9-19.9H44.2c-11,0-19.9,8.9-19.9,19.9v216.2
			c0,11,8.9,19.9,19.9,19.9h181.6c11,0,19.9-8.9,19.9-19.9v-29.8c0-4.7,3.8-8.5,8.5-8.5c4.7,0,8.5,3.8,8.5,8.5v29.8
			C262.7,276.5,246.1,293,225.8,293z"/>
	</g>
	<path class="st2" d="M259.3,177.1c-3.7-2.9-9.1-2.1-11.9,1.6c-0.1,0.1-7.4,9.5-16.7,17.1c-4.2,3.4-14.7,11-20.5,7.6
		c-6.6-3.9-12-6.2-17.4-4.7c-5.5,1.5-8,6-9.9,9.5c-1.6,2.8-3.3,6-6.9,9.4c-0.2,0.2-0.4,0.3-0.5,0.4c-1.7-1.9-4-7.1-5.1-11.6
		c-0.8-3.4-3.6-5.9-7-6.5c-3.4-0.5-6.8,1.1-8.6,4.1c-5.8,9.9-13.8,22.2-23.8,29.2c-1,0.7-2.9,1.8-4.3,0.9c-0.9-0.5-1.6-1.8-1.4-3.5
		c1.4-10.4,10.4-25.8,25.5-43.4c12.1-14.1,23.8-24.8,23.9-24.9c3-2.7,3.7-7.2,1.6-10.7c-2.1-3.5-6.4-5-10.2-3.6
		c-9.1,3.3-14.3,5.8-20.8,9c-5.5,2.7-11.7,5.7-22.3,10.2c-17.3,7.3-32.2,8.4-37.9,8c-0.3,0-0.7-0.1-1.1-0.1c-4.7,0-8.5,3.8-8.5,8.5
		c0,4.4,3.4,8.1,7.7,8.5v0c0.8,0.1,20.3,1.9,46.4-9.3c1.4-0.6,2.7-1.2,4-1.7c-15,18.5-23.5,34.4-25.2,47.3
		c-1.1,8.2,2.6,16.1,9.5,20.3c3.1,1.9,6.5,2.8,10,2.8c4.4,0,8.8-1.5,13-4.4c7.9-5.5,14.5-13.1,19.9-20.8c3,4.4,6.4,7.1,10.4,8.3
		c7.6,2.3,13.7-2.1,16.6-4.9c5.5-5.2,8.3-10.3,10.1-13.6c0.1-0.1,0.1-0.2,0.2-0.4c0.9,0.4,2,1,3.6,2c4.4,2.6,11.8,5,22,1.5
		c5.6-1.9,11.6-5.4,17.8-10.5c11.1-9,19.5-19.9,19.6-20C263.8,185.3,263.1,180,259.3,177.1z"/>
</g>
</svg>
