<?xml version="1.0" encoding="utf-8"?>
<!-- Generator: Adobe Illustrator 27.6.1, SVG Export Plug-In . SVG Version: 6.00 Build 0)  -->
<svg version="1.1" xmlns="http://www.w3.org/2000/svg" xmlns:xlink="http://www.w3.org/1999/xlink" x="0px" y="0px"
	 viewBox="0 0 782 296" style="enable-background:new 0 0 782 296;" xml:space="preserve">
<style type="text/css">
	.st0{fill:#089949;}
</style>
<g id="Layer_1">
	<g>
		<path d="M337.1,25.7H389c24,0,43.8,7.6,43.8,34.9c0,14.3-7.4,24-21.2,27.9c17.9,3.6,26.7,13.5,26.7,31.7c0,28-21,36.9-45.7,36.9
			h-55.3V25.7z M385.8,80.9c14.3,0,22.4-4.2,22.4-19.7c0-14.4-10.2-17.6-22.7-17.6H362v37.3H385.8z M389.3,139.4
			c14.6,0,23.8-5.7,23.8-20.8c0-16.7-11.4-20.8-25.5-20.8H362v41.6H389.3z"/>
		<path d="M469.4,20.3c7.5,0,13.4,5.5,13.4,13.1c0,7.5-5.8,13-13.3,13c-7.5,0-13.7-5.6-13.7-13.1C455.7,25.7,461.9,20.3,469.4,20.3z
			 M457.8,61.2h23v96h-23V61.2z"/>
		<path d="M521.7,161.5c4.8,10.7,15.9,13.8,26.6,13.8c17.1,0,27.4-8.2,27.4-25.6v-14.4c-6.6,11.1-19.4,18.1-32.3,18.1
			c-27.2,0-43-21.4-43-46.4c0-25.9,16.9-48,43.6-48c13,0,25,5.3,31.7,16.8V61h23.1v89c0,30.3-22.6,42.5-50.5,42.5
			c-17.9,0-37-5-44.7-23.2L521.7,161.5z M576.6,105.7c0-16.4-8.9-29-26.3-29c-18.4,0-26.2,14-26.2,30.7c0,15,9.4,28.3,25.4,28.3
			C567.4,135.7,576.6,122.4,576.6,105.7z"/>
		<path d="M636.2,20.3c7.5,0,13.4,5.5,13.4,13.1c0,7.5-5.8,13-13.3,13c-7.5,0-13.7-5.6-13.7-13.1C622.6,25.7,628.8,20.3,636.2,20.3z
			 M624.6,61.2h23v96h-23V61.2z"/>
		<path d="M673.7,61h23v15.3c6.2-11.9,19.1-17.3,32.5-17.3c23.1,0,33.5,16.3,33.5,38.1v60.2h-23.4V99.3c0-13.5-6-21.4-19.7-21.4
			c-14.5,0-23,9-23,22.8v56.5h-23V61z"/>
	</g>
	<g>
		<path d="M337.1,210.7h5.8v22.7c0.7-1,1.5-2,2.5-2.8c1-0.8,2-1.6,3.2-2.2c1.2-0.6,2.4-1,3.6-1.4c1.3-0.3,2.5-0.5,3.7-0.5
			c2.8,0,5.2,0.5,7.3,1.5c2.1,1,3.8,2.4,5.2,4.1c1.4,1.7,2.5,3.7,3.2,6c0.7,2.3,1.1,4.7,1.1,7.2c0,2.6-0.4,5-1.1,7.3
			s-1.8,4.4-3.2,6.1c-1.4,1.8-3.2,3.2-5.2,4.2c-2.1,1-4.4,1.6-7.1,1.6c-1.3,0-2.6-0.1-3.8-0.4c-1.3-0.3-2.5-0.7-3.6-1.2
			c-1.1-0.5-2.2-1.2-3.1-2.1c-1-0.8-1.8-1.8-2.5-2.9v6h-5.8V210.7z M355.2,259.7c2.2,0,4-0.4,5.5-1.2c1.5-0.8,2.6-1.8,3.5-3.1
			c0.9-1.3,1.5-2.8,1.9-4.6c0.4-1.7,0.5-3.5,0.5-5.4c0-1.8-0.2-3.5-0.7-5.1c-0.5-1.7-1.2-3.1-2.1-4.4c-0.9-1.3-2.1-2.3-3.6-3.1
			c-1.4-0.8-3.1-1.2-5.1-1.2c-2.1,0-4,0.4-5.6,1.1c-1.6,0.8-2.9,1.8-3.9,3.1s-1.8,2.8-2.3,4.5c-0.5,1.7-0.8,3.5-0.8,5.5
			c0,2,0.3,3.9,0.8,5.6s1.3,3.2,2.4,4.4c1,1.2,2.4,2.2,3.9,2.9C351.3,259.3,353.1,259.7,355.2,259.7z"/>
		<path d="M390.4,260.1l-14.2-32.8h6.2l11,26.2l10.2-26.2h5.9l-20.2,49.4h-5.9L390.4,260.1z"/>
		<path d="M427.3,261.4l29.2-42.6h-26.7v-5h34.2v2.5l-28.4,42.3h28v5.2h-36.3V261.4z"/>
		<path d="M487.5,264.5c-2.7,0-5.2-0.5-7.4-1.5c-2.2-1-4.1-2.3-5.7-4c-1.6-1.7-2.8-3.7-3.6-6c-0.8-2.3-1.3-4.7-1.3-7.4
			c0-2.7,0.4-5.2,1.3-7.6s2.2-4.3,3.8-6c1.6-1.7,3.5-3,5.8-4s4.7-1.5,7.4-1.5c2.7,0,5.2,0.5,7.5,1.5c2.2,1,4.1,2.3,5.7,4
			s2.8,3.7,3.6,6c0.9,2.3,1.3,4.7,1.3,7.4c0,2.7-0.5,5.2-1.4,7.5s-2.2,4.3-3.8,6c-1.6,1.7-3.6,3-5.8,4
			C492.6,264,490.2,264.5,487.5,264.5z M487.6,259.7c2.1,0,3.9-0.4,5.5-1.2c1.5-0.8,2.8-1.8,3.8-3.1c1-1.3,1.8-2.8,2.3-4.5
			c0.5-1.7,0.7-3.5,0.7-5.3c0-1.9-0.3-3.7-0.8-5.4c-0.5-1.7-1.3-3.2-2.3-4.5c-1-1.3-2.3-2.3-3.9-3.1c-1.5-0.8-3.3-1.1-5.4-1.1
			c-2.1,0-3.9,0.4-5.4,1.1c-1.5,0.8-2.8,1.8-3.7,3.1c-1,1.3-1.7,2.8-2.2,4.5c-0.5,1.7-0.7,3.5-0.7,5.4c0,2,0.2,3.8,0.8,5.5
			c0.5,1.7,1.3,3.2,2.3,4.5c1,1.3,2.3,2.3,3.8,3C483.8,259.3,485.5,259.7,487.6,259.7z"/>
		<path d="M514.7,210.7h5.8v22.4c1.2-2.3,2.8-3.9,4.8-4.9s4.3-1.5,6.8-1.5c2.3,0,4.2,0.4,5.9,1.1c1.7,0.8,3.1,1.8,4.3,3.2
			c1.1,1.4,2,3,2.6,4.8c0.6,1.8,0.9,3.9,0.9,6v22.1H540v-22.5c0-3.2-0.8-5.6-2.3-7.2c-1.5-1.6-3.8-2.5-6.9-2.5
			c-3.3,0-5.8,0.9-7.6,2.7c-1.8,1.8-2.7,4.2-2.7,7.3v22.2h-5.8V210.7z"/>
		<path d="M572.2,264.5c-2.7,0-5.2-0.5-7.4-1.5c-2.2-1-4.1-2.3-5.7-4c-1.6-1.7-2.8-3.7-3.6-6c-0.8-2.3-1.3-4.7-1.3-7.4
			c0-2.7,0.4-5.2,1.3-7.6s2.2-4.3,3.8-6c1.6-1.7,3.5-3,5.8-4s4.7-1.5,7.4-1.5c2.7,0,5.2,0.5,7.5,1.5c2.2,1,4.1,2.3,5.7,4
			s2.8,3.7,3.6,6c0.9,2.3,1.3,4.7,1.3,7.4c0,2.7-0.5,5.2-1.4,7.5s-2.2,4.3-3.8,6c-1.6,1.7-3.6,3-5.8,4
			C577.4,264,574.9,264.5,572.2,264.5z M572.3,259.7c2.1,0,3.9-0.4,5.5-1.2c1.5-0.8,2.8-1.8,3.8-3.1c1-1.3,1.8-2.8,2.3-4.5
			c0.5-1.7,0.7-3.5,0.7-5.3c0-1.9-0.3-3.7-0.8-5.4c-0.5-1.7-1.3-3.2-2.3-4.5c-1-1.3-2.3-2.3-3.9-3.1c-1.5-0.8-3.3-1.1-5.4-1.1
			c-2.1,0-3.9,0.4-5.4,1.1c-1.5,0.8-2.8,1.8-3.7,3.1c-1,1.3-1.7,2.8-2.2,4.5c-0.5,1.7-0.7,3.5-0.7,5.4c0,2,0.2,3.8,0.8,5.5
			c0.5,1.7,1.3,3.2,2.3,4.5c1,1.3,2.3,2.3,3.8,3C568.6,259.3,570.3,259.7,572.3,259.7z"/>
		<path d="M656.3,249.6c-0.8,2.1-2,4.1-3.3,5.9c-1.4,1.8-3,3.4-4.8,4.7c-1.8,1.3-3.8,2.4-5.9,3.1c-2.1,0.8-4.4,1.1-6.7,1.1
			c-3.9,0-7.3-0.7-10.3-2c-3-1.3-5.5-3.1-7.5-5.4c-2-2.3-3.6-5-4.6-8.2c-1-3.2-1.6-6.6-1.6-10.3c0-3.4,0.6-6.7,1.7-9.8
			c1.1-3.1,2.7-5.8,4.7-8.1c2-2.3,4.5-4.2,7.4-5.6c2.9-1.4,6.1-2.1,9.7-2.1c2.2,0,4.4,0.3,6.5,1c2.1,0.7,4.1,1.6,5.9,2.8
			c1.8,1.2,3.4,2.7,4.9,4.4c1.4,1.7,2.5,3.6,3.3,5.7l-5,2.2c-0.6-1.7-1.5-3.2-2.5-4.6s-2.2-2.6-3.5-3.5c-1.3-1-2.8-1.7-4.4-2.3
			c-1.6-0.5-3.3-0.8-5.2-0.8c-3,0-5.6,0.6-7.8,1.8c-2.2,1.2-4,2.8-5.4,4.7c-1.4,1.9-2.4,4.2-3.1,6.7c-0.7,2.5-1,5.1-1,7.7
			c0,2.8,0.4,5.5,1.1,8c0.7,2.5,1.9,4.7,3.3,6.6c1.5,1.9,3.3,3.4,5.6,4.5c2.2,1.1,4.8,1.7,7.8,1.7c1.8,0,3.5-0.3,5.2-1
			c1.7-0.6,3.2-1.5,4.6-2.6c1.4-1.1,2.6-2.4,3.7-3.8c1.1-1.4,1.9-3,2.5-4.6L656.3,249.6z"/>
		<path d="M665.5,213.9H682c2.3,0,4.5,0.3,6.6,0.8c2.1,0.5,4,1.3,5.6,2.4c1.6,1.1,2.9,2.5,3.8,4.3s1.4,3.9,1.4,6.5
			c0,2-0.3,3.8-0.9,5.3s-1.5,2.9-2.6,4.1c-1.1,1.2-2.4,2.1-3.9,2.9c-1.5,0.8-3.2,1.3-5,1.7l15.3,22.2h-6.8l-14.9-21.8h-9.1V264h-6.1
			V213.9z M682.4,237.3c1.6,0,3.1-0.2,4.4-0.5c1.3-0.3,2.5-0.9,3.5-1.6c1-0.8,1.7-1.7,2.3-2.9c0.5-1.2,0.8-2.7,0.8-4.4
			c0-1.8-0.3-3.2-0.8-4.4s-1.3-2.1-2.3-2.8c-1-0.7-2.1-1.2-3.5-1.5c-1.3-0.3-2.8-0.4-4.3-0.4h-10.8v18.6H682.4z"/>
		<path d="M710.7,213.9h8.5l16,39.7l15.8-39.7h8.4v50h-6.1v-42.1l-17,42.1h-2.6l-17.5-42.1v42.1h-5.6V213.9z"/>
	</g>
	<g>
		<path class="st0" d="M136.5,293c-11,0-19.8-8.9-19.8-19.8v-59.2c0-0.5-0.1-1-0.4-1.4L12.6,32.8C9,26.6,9,19,12.6,12.9
			c3.5-6.2,10.1-10,17.2-9.9l0,0l190.9,0.1c7.1,0,13.7,3.8,17.2,9.9c3.6,6.1,3.6,13.7,0,19.8l-14.3,24.8h29c11,0,19.8,8.9,19.8,19.9
			c0,3.5-0.9,6.9-2.7,9.9L197.3,213c-0.2,0.4-0.4,0.9-0.4,1.4v44c0,8.3-5.2,15.8-13,18.6l-40.5,14.8
			C141.1,292.6,138.8,293,136.5,293z M29.8,20c-1.6,0-2.8,1.3-2.8,2.8c0,0.5,0.1,1,0.4,1.4L131,204c1.7,3,2.7,6.4,2.7,9.9v59.2
			c0,1.6,1.3,2.8,2.8,2.8c0.3,0,0.7-0.1,1-0.2L178,261c1.1-0.4,1.9-1.5,1.9-2.7v-44c0-3.5,0.9-6.9,2.7-9.9l72.6-125.6
			c0.8-1.4,0.3-3.1-1-3.9c-0.4-0.2-0.9-0.4-1.4-0.4h-43.2c-0.4,0-0.8,0-1.1,0l-89,0l37.4,64.7L183,93.8c2.3-4.1,7.6-5.5,11.6-3.1
			c4.1,2.3,5.5,7.6,3.1,11.6l0,0l-28.8,49.9c-2.5,4.4-7.2,7.1-12.3,7.1l0,0c-5.1,0-9.8-2.7-12.3-7.1l-42.3-73.3
			c-3.9-6.8-1.6-15.4,5.2-19.4c2.2-1.2,4.6-1.9,7.1-1.9l0,0l89.6,0l19.2-33.3c0.8-1.4,0.3-3.1-1-3.9c-0.4-0.2-0.9-0.4-1.4-0.4
			L29.8,20z"/>
	</g>
</g>
<g id="Layer_2">
</g>
</svg>
