<svg width="104" height="103" viewBox="0 0 104 103" fill="none" xmlns="http://www.w3.org/2000/svg">
<mask id="path-1-outside-1_491_603" maskUnits="userSpaceOnUse" x="0.280273" y="-0.272461" width="104" height="103" fill="black">
<rect fill="white" x="0.280273" y="-0.272461" width="104" height="103"/>
<path d="M101.875 68.0379C101.358 67.1539 100.663 66.3872 99.8339 65.7863C99.0046 65.1854 98.0595 64.7636 97.0585 64.5476C95.9272 64.2913 94.7555 64.2694 93.6154 64.4832C92.4754 64.6971 91.3912 65.142 90.4297 65.7907L74.0543 76.8958C73.8995 76.4917 73.7135 76.1003 73.4981 75.7249C72.9648 74.7905 72.2515 73.9711 71.3993 73.3142C70.5472 72.6573 69.5732 72.176 68.5338 71.8981L43.0266 65.0663H43.0197L34.5734 62.801C31.7541 62.0547 28.7633 62.3074 26.1093 63.5163C23.4552 64.7252 21.3015 66.8157 20.0142 69.4326C19.8199 69.2986 19.6174 69.177 19.4079 69.0683C18.7569 68.7556 18.0504 68.5754 17.3292 68.5382C16.608 68.5009 15.8866 68.6074 15.207 68.8514L2.2747 73.4569C1.90099 73.59 1.5954 73.866 1.42513 74.2243C1.25485 74.5826 1.23382 74.9938 1.36666 75.3676L10.3567 100.622C10.4609 100.912 10.6521 101.163 10.9041 101.341C11.1561 101.519 11.4568 101.615 11.7653 101.616C11.936 101.616 12.1054 101.586 12.2659 101.528L25.1982 96.9227C25.8795 96.6818 26.5061 96.3079 27.0418 95.8229C27.5774 95.3378 28.0114 94.7512 28.3186 94.0971C28.3728 93.9845 28.3993 93.8649 28.4452 93.7495H35.5607C38.2904 94.4447 40.7809 95.0858 43.0697 95.6768C53.741 98.4357 60.0346 100.036 64.9823 100.036C71.917 100.036 76.1805 96.8866 86.0966 89.3692C89.6607 86.6687 94.0938 83.3077 99.6964 79.3223C101.405 78.0545 102.576 76.1926 102.979 74.1037C103.383 72.0148 102.989 69.8507 101.875 68.0379ZM25.614 92.815C25.474 93.1135 25.2762 93.3813 25.032 93.6028C24.7878 93.8243 24.5021 93.9952 24.1914 94.1055L12.665 98.2104L4.6776 75.7736L16.204 71.6673C16.8322 71.4481 17.5215 71.4858 18.1221 71.7723C18.7226 72.0588 19.1857 72.5707 19.4107 73.1969L25.7127 90.9085C25.8229 91.2171 25.8709 91.5444 25.8539 91.8716C25.837 92.1988 25.7554 92.5195 25.614 92.815ZM97.9554 76.8805C92.3153 80.8909 87.8613 84.2672 84.282 86.9802C68.2904 99.1045 68.2904 99.1059 43.8165 92.7775C41.4775 92.1712 38.9231 91.512 36.1183 90.8001L35.9278 90.7542H28.7441C28.695 90.4624 28.6224 90.175 28.5272 89.8948L22.2265 72.1887C22.2126 72.1498 22.1904 72.1178 22.1751 72.0789C22.9195 69.7243 24.5421 67.7468 26.706 66.5569C28.87 65.3671 31.409 65.0564 33.7961 65.6892L44.5034 68.5607L67.7592 74.7933C68.4231 74.9669 69.0462 75.2701 69.5925 75.6855C70.1388 76.1008 70.5976 76.62 70.9425 77.2132C71.2874 77.8065 71.5117 78.4621 71.6023 79.1423C71.693 79.8225 71.6482 80.514 71.4707 81.1768C71.2932 81.8397 70.9864 82.461 70.5679 83.0049C70.1494 83.5487 69.6276 84.0045 69.0323 84.346C68.4371 84.6875 67.7802 84.9079 67.0995 84.9946C66.4187 85.0813 65.7276 85.0326 65.0657 84.8512L39.5572 78.0166C39.3657 77.9595 39.1647 77.9415 38.9661 77.9634C38.7675 77.9854 38.5753 78.0469 38.4009 78.1444C38.2265 78.242 38.0734 78.3734 37.9507 78.5311C37.828 78.6888 37.7381 78.8695 37.6864 79.0625C37.6347 79.2555 37.6222 79.4569 37.6497 79.6548C37.6772 79.8528 37.7441 80.0432 37.8464 80.2148C37.9487 80.3864 38.0844 80.5358 38.2455 80.654C38.4065 80.7723 38.5896 80.8571 38.784 80.9034L64.2953 87.7339C65.3349 88.0135 66.4193 88.0853 67.4867 87.9453C68.554 87.8054 69.5833 87.4563 70.5155 86.9181C71.4478 86.3799 72.2648 85.6631 72.9197 84.8088C73.5747 83.9545 74.0547 82.9794 74.3325 81.9394C74.488 81.3518 74.578 80.7488 74.6008 80.1414L92.1067 68.2646C92.7296 67.8496 93.4299 67.5647 94.1656 67.4268C94.9013 67.2889 95.6573 67.301 96.3882 67.4622C96.9884 67.588 97.556 67.8371 98.0549 68.1938C98.5537 68.5504 98.973 69.0069 99.2862 69.5341C100.037 70.6992 100.317 72.106 100.07 73.4699C99.8232 74.8338 99.0673 76.0529 97.9554 76.8805ZM32.2233 27.8603L32.3707 38.3757L37.8899 40.0833C38.5394 42.3979 39.4938 44.6158 40.728 46.6788L38.1805 51.8587L45.716 59.1869L50.8263 56.4948C52.9232 57.6718 55.1679 58.5632 57.501 59.1452L59.3602 64.6129L69.8743 64.4739L71.5819 58.9533C73.8972 58.3052 76.1157 57.3512 78.1788 56.1166L83.3558 58.6641L90.6883 51.1272L87.9906 46.0141C89.1686 43.9174 90.0609 41.6726 90.6438 39.3394L96.1115 37.4788L95.9627 26.9675L90.4463 25.2585C89.7976 22.943 88.8427 20.7245 87.6068 18.6617L90.1599 13.486L82.6202 6.15353L77.5127 8.84984C75.4157 7.6719 73.171 6.77871 70.838 6.19385L68.9788 0.727539L58.4647 0.87633L56.7571 6.3941C54.4416 7.04214 52.223 7.99663 50.1602 9.23224L44.9804 6.68055L37.6521 14.2202L40.3442 19.3347C39.1675 21.4318 38.2757 23.6765 37.6924 26.0094L32.2233 27.8603ZM40.4207 27.4653C40.9827 24.8778 41.9669 22.4005 43.334 20.1329L43.7692 19.4084L41.3107 14.7458L45.6103 10.3211L50.3382 12.6503L51.0488 12.1941C53.277 10.7629 55.7263 9.70949 58.2978 9.0765L59.1169 8.87209L60.6743 3.83128L66.8429 3.74507L68.5435 8.73859L69.3695 8.91937C71.9573 9.48394 74.4346 10.4705 76.702 11.8396L77.4251 12.2748L82.0946 9.81211L86.5194 14.1131L84.1902 18.8411L84.6463 19.5516C86.0773 21.7795 87.1307 24.2283 87.7639 26.7993L87.9669 27.6197L93.0091 29.1799L93.0954 35.3457L88.0991 37.0519L87.9211 37.8751C87.3569 40.4617 86.3703 42.9377 85.0009 45.2034L84.5629 45.9279L87.0255 50.5919L82.7245 55.0139L77.9966 52.6874L77.286 53.1435C75.0586 54.5737 72.6102 55.6262 70.0398 56.2584L69.2193 56.4614L67.6591 61.505L61.492 61.5898L59.7899 56.6019L58.9653 56.4225C56.3776 55.8612 53.9002 54.8769 51.6329 53.5093L50.9084 53.0712L46.2458 55.5284L41.8224 51.2287L44.1488 46.5008L43.6927 45.7916C42.2626 43.5631 41.2089 41.1146 40.5737 38.544L40.3707 37.7236L35.3312 36.1606L35.2436 29.9892L40.2386 28.2913L40.4207 27.4653ZM64.1563 49.2736H64.3955C68.7368 49.242 72.8887 47.4911 75.9418 44.4044C78.9949 41.3178 80.7003 37.147 80.6844 32.8056C80.6686 28.4641 78.9329 24.3058 75.8574 21.2415C72.7819 18.1772 68.6174 16.4567 64.2759 16.4567C59.9344 16.4567 55.7698 18.1772 52.6943 21.2415C49.6189 24.3058 47.8831 28.4641 47.8673 32.8056C47.8515 37.147 49.5569 41.3178 52.6099 44.4044C55.663 47.4911 59.8149 49.242 64.1563 49.2736ZM54.407 23.1838C55.9674 21.5786 57.8995 20.3829 60.0323 19.7028C62.1651 19.0226 64.4327 18.879 66.6343 19.2846C68.8359 19.6902 70.9034 20.6326 72.6538 22.0281C74.4042 23.4237 75.7834 25.2294 76.6692 27.2853C77.555 29.3412 77.9201 31.5839 77.7321 33.8146C77.5441 36.0453 76.8089 38.1952 75.5915 40.0739C74.3742 41.9526 72.7123 43.502 70.753 44.585C68.7938 45.668 66.5977 46.251 64.3593 46.2825H64.1563C61.4813 46.281 58.866 45.4914 56.6371 44.0124C54.4082 42.5333 52.6645 40.4302 51.6238 37.966C50.5831 35.5017 50.2915 32.7854 50.7856 30.1564C51.2796 27.5274 52.5372 25.1022 54.4015 23.1838H54.407Z"/>
</mask>
<path d="M101.875 68.0379C101.358 67.1539 100.663 66.3872 99.8339 65.7863C99.0046 65.1854 98.0595 64.7636 97.0585 64.5476C95.9272 64.2913 94.7555 64.2694 93.6154 64.4832C92.4754 64.6971 91.3912 65.142 90.4297 65.7907L74.0543 76.8958C73.8995 76.4917 73.7135 76.1003 73.4981 75.7249C72.9648 74.7905 72.2515 73.9711 71.3993 73.3142C70.5472 72.6573 69.5732 72.176 68.5338 71.8981L43.0266 65.0663H43.0197L34.5734 62.801C31.7541 62.0547 28.7633 62.3074 26.1093 63.5163C23.4552 64.7252 21.3015 66.8157 20.0142 69.4326C19.8199 69.2986 19.6174 69.177 19.4079 69.0683C18.7569 68.7556 18.0504 68.5754 17.3292 68.5382C16.608 68.5009 15.8866 68.6074 15.207 68.8514L2.2747 73.4569C1.90099 73.59 1.5954 73.866 1.42513 74.2243C1.25485 74.5826 1.23382 74.9938 1.36666 75.3676L10.3567 100.622C10.4609 100.912 10.6521 101.163 10.9041 101.341C11.1561 101.519 11.4568 101.615 11.7653 101.616C11.936 101.616 12.1054 101.586 12.2659 101.528L25.1982 96.9227C25.8795 96.6818 26.5061 96.3079 27.0418 95.8229C27.5774 95.3378 28.0114 94.7512 28.3186 94.0971C28.3728 93.9845 28.3993 93.8649 28.4452 93.7495H35.5607C38.2904 94.4447 40.7809 95.0858 43.0697 95.6768C53.741 98.4357 60.0346 100.036 64.9823 100.036C71.917 100.036 76.1805 96.8866 86.0966 89.3692C89.6607 86.6687 94.0938 83.3077 99.6964 79.3223C101.405 78.0545 102.576 76.1926 102.979 74.1037C103.383 72.0148 102.989 69.8507 101.875 68.0379ZM25.614 92.815C25.474 93.1135 25.2762 93.3813 25.032 93.6028C24.7878 93.8243 24.5021 93.9952 24.1914 94.1055L12.665 98.2104L4.6776 75.7736L16.204 71.6673C16.8322 71.4481 17.5215 71.4858 18.1221 71.7723C18.7226 72.0588 19.1857 72.5707 19.4107 73.1969L25.7127 90.9085C25.8229 91.2171 25.8709 91.5444 25.8539 91.8716C25.837 92.1988 25.7554 92.5195 25.614 92.815ZM97.9554 76.8805C92.3153 80.8909 87.8613 84.2672 84.282 86.9802C68.2904 99.1045 68.2904 99.1059 43.8165 92.7775C41.4775 92.1712 38.9231 91.512 36.1183 90.8001L35.9278 90.7542H28.7441C28.695 90.4624 28.6224 90.175 28.5272 89.8948L22.2265 72.1887C22.2126 72.1498 22.1904 72.1178 22.1751 72.0789C22.9195 69.7243 24.5421 67.7468 26.706 66.5569C28.87 65.3671 31.409 65.0564 33.7961 65.6892L44.5034 68.5607L67.7592 74.7933C68.4231 74.9669 69.0462 75.2701 69.5925 75.6855C70.1388 76.1008 70.5976 76.62 70.9425 77.2132C71.2874 77.8065 71.5117 78.4621 71.6023 79.1423C71.693 79.8225 71.6482 80.514 71.4707 81.1768C71.2932 81.8397 70.9864 82.461 70.5679 83.0049C70.1494 83.5487 69.6276 84.0045 69.0323 84.346C68.4371 84.6875 67.7802 84.9079 67.0995 84.9946C66.4187 85.0813 65.7276 85.0326 65.0657 84.8512L39.5572 78.0166C39.3657 77.9595 39.1647 77.9415 38.9661 77.9634C38.7675 77.9854 38.5753 78.0469 38.4009 78.1444C38.2265 78.242 38.0734 78.3734 37.9507 78.5311C37.828 78.6888 37.7381 78.8695 37.6864 79.0625C37.6347 79.2555 37.6222 79.4569 37.6497 79.6548C37.6772 79.8528 37.7441 80.0432 37.8464 80.2148C37.9487 80.3864 38.0844 80.5358 38.2455 80.654C38.4065 80.7723 38.5896 80.8571 38.784 80.9034L64.2953 87.7339C65.3349 88.0135 66.4193 88.0853 67.4867 87.9453C68.554 87.8054 69.5833 87.4563 70.5155 86.9181C71.4478 86.3799 72.2648 85.6631 72.9197 84.8088C73.5747 83.9545 74.0547 82.9794 74.3325 81.9394C74.488 81.3518 74.578 80.7488 74.6008 80.1414L92.1067 68.2646C92.7296 67.8496 93.4299 67.5647 94.1656 67.4268C94.9013 67.2889 95.6573 67.301 96.3882 67.4622C96.9884 67.588 97.556 67.8371 98.0549 68.1938C98.5537 68.5504 98.973 69.0069 99.2862 69.5341C100.037 70.6992 100.317 72.106 100.07 73.4699C99.8232 74.8338 99.0673 76.0529 97.9554 76.8805ZM32.2233 27.8603L32.3707 38.3757L37.8899 40.0833C38.5394 42.3979 39.4938 44.6158 40.728 46.6788L38.1805 51.8587L45.716 59.1869L50.8263 56.4948C52.9232 57.6718 55.1679 58.5632 57.501 59.1452L59.3602 64.6129L69.8743 64.4739L71.5819 58.9533C73.8972 58.3052 76.1157 57.3512 78.1788 56.1166L83.3558 58.6641L90.6883 51.1272L87.9906 46.0141C89.1686 43.9174 90.0609 41.6726 90.6438 39.3394L96.1115 37.4788L95.9627 26.9675L90.4463 25.2585C89.7976 22.943 88.8427 20.7245 87.6068 18.6617L90.1599 13.486L82.6202 6.15353L77.5127 8.84984C75.4157 7.6719 73.171 6.77871 70.838 6.19385L68.9788 0.727539L58.4647 0.87633L56.7571 6.3941C54.4416 7.04214 52.223 7.99663 50.1602 9.23224L44.9804 6.68055L37.6521 14.2202L40.3442 19.3347C39.1675 21.4318 38.2757 23.6765 37.6924 26.0094L32.2233 27.8603ZM40.4207 27.4653C40.9827 24.8778 41.9669 22.4005 43.334 20.1329L43.7692 19.4084L41.3107 14.7458L45.6103 10.3211L50.3382 12.6503L51.0488 12.1941C53.277 10.7629 55.7263 9.70949 58.2978 9.0765L59.1169 8.87209L60.6743 3.83128L66.8429 3.74507L68.5435 8.73859L69.3695 8.91937C71.9573 9.48394 74.4346 10.4705 76.702 11.8396L77.4251 12.2748L82.0946 9.81211L86.5194 14.1131L84.1902 18.8411L84.6463 19.5516C86.0773 21.7795 87.1307 24.2283 87.7639 26.7993L87.9669 27.6197L93.0091 29.1799L93.0954 35.3457L88.0991 37.0519L87.9211 37.8751C87.3569 40.4617 86.3703 42.9377 85.0009 45.2034L84.5629 45.9279L87.0255 50.5919L82.7245 55.0139L77.9966 52.6874L77.286 53.1435C75.0586 54.5737 72.6102 55.6262 70.0398 56.2584L69.2193 56.4614L67.6591 61.505L61.492 61.5898L59.7899 56.6019L58.9653 56.4225C56.3776 55.8612 53.9002 54.8769 51.6329 53.5093L50.9084 53.0712L46.2458 55.5284L41.8224 51.2287L44.1488 46.5008L43.6927 45.7916C42.2626 43.5631 41.2089 41.1146 40.5737 38.544L40.3707 37.7236L35.3312 36.1606L35.2436 29.9892L40.2386 28.2913L40.4207 27.4653ZM64.1563 49.2736H64.3955C68.7368 49.242 72.8887 47.4911 75.9418 44.4044C78.9949 41.3178 80.7003 37.147 80.6844 32.8056C80.6686 28.4641 78.9329 24.3058 75.8574 21.2415C72.7819 18.1772 68.6174 16.4567 64.2759 16.4567C59.9344 16.4567 55.7698 18.1772 52.6943 21.2415C49.6189 24.3058 47.8831 28.4641 47.8673 32.8056C47.8515 37.147 49.5569 41.3178 52.6099 44.4044C55.663 47.4911 59.8149 49.242 64.1563 49.2736ZM54.407 23.1838C55.9674 21.5786 57.8995 20.3829 60.0323 19.7028C62.1651 19.0226 64.4327 18.879 66.6343 19.2846C68.8359 19.6902 70.9034 20.6326 72.6538 22.0281C74.4042 23.4237 75.7834 25.2294 76.6692 27.2853C77.555 29.3412 77.9201 31.5839 77.7321 33.8146C77.5441 36.0453 76.8089 38.1952 75.5915 40.0739C74.3742 41.9526 72.7123 43.502 70.753 44.585C68.7938 45.668 66.5977 46.251 64.3593 46.2825H64.1563C61.4813 46.281 58.866 45.4914 56.6371 44.0124C54.4082 42.5333 52.6645 40.4302 51.6238 37.966C50.5831 35.5017 50.2915 32.7854 50.7856 30.1564C51.2796 27.5274 52.5372 25.1022 54.4015 23.1838H54.407Z" fill="url(#paint0_linear_491_603)"/>
<path d="M101.875 68.0379C101.358 67.1539 100.663 66.3872 99.8339 65.7863C99.0046 65.1854 98.0595 64.7636 97.0585 64.5476C95.9272 64.2913 94.7555 64.2694 93.6154 64.4832C92.4754 64.6971 91.3912 65.142 90.4297 65.7907L74.0543 76.8958C73.8995 76.4917 73.7135 76.1003 73.4981 75.7249C72.9648 74.7905 72.2515 73.9711 71.3993 73.3142C70.5472 72.6573 69.5732 72.176 68.5338 71.8981L43.0266 65.0663H43.0197L34.5734 62.801C31.7541 62.0547 28.7633 62.3074 26.1093 63.5163C23.4552 64.7252 21.3015 66.8157 20.0142 69.4326C19.8199 69.2986 19.6174 69.177 19.4079 69.0683C18.7569 68.7556 18.0504 68.5754 17.3292 68.5382C16.608 68.5009 15.8866 68.6074 15.207 68.8514L2.2747 73.4569C1.90099 73.59 1.5954 73.866 1.42513 74.2243C1.25485 74.5826 1.23382 74.9938 1.36666 75.3676L10.3567 100.622C10.4609 100.912 10.6521 101.163 10.9041 101.341C11.1561 101.519 11.4568 101.615 11.7653 101.616C11.936 101.616 12.1054 101.586 12.2659 101.528L25.1982 96.9227C25.8795 96.6818 26.5061 96.3079 27.0418 95.8229C27.5774 95.3378 28.0114 94.7512 28.3186 94.0971C28.3728 93.9845 28.3993 93.8649 28.4452 93.7495H35.5607C38.2904 94.4447 40.7809 95.0858 43.0697 95.6768C53.741 98.4357 60.0346 100.036 64.9823 100.036C71.917 100.036 76.1805 96.8866 86.0966 89.3692C89.6607 86.6687 94.0938 83.3077 99.6964 79.3223C101.405 78.0545 102.576 76.1926 102.979 74.1037C103.383 72.0148 102.989 69.8507 101.875 68.0379ZM25.614 92.815C25.474 93.1135 25.2762 93.3813 25.032 93.6028C24.7878 93.8243 24.5021 93.9952 24.1914 94.1055L12.665 98.2104L4.6776 75.7736L16.204 71.6673C16.8322 71.4481 17.5215 71.4858 18.1221 71.7723C18.7226 72.0588 19.1857 72.5707 19.4107 73.1969L25.7127 90.9085C25.8229 91.2171 25.8709 91.5444 25.8539 91.8716C25.837 92.1988 25.7554 92.5195 25.614 92.815ZM97.9554 76.8805C92.3153 80.8909 87.8613 84.2672 84.282 86.9802C68.2904 99.1045 68.2904 99.1059 43.8165 92.7775C41.4775 92.1712 38.9231 91.512 36.1183 90.8001L35.9278 90.7542H28.7441C28.695 90.4624 28.6224 90.175 28.5272 89.8948L22.2265 72.1887C22.2126 72.1498 22.1904 72.1178 22.1751 72.0789C22.9195 69.7243 24.5421 67.7468 26.706 66.5569C28.87 65.3671 31.409 65.0564 33.7961 65.6892L44.5034 68.5607L67.7592 74.7933C68.4231 74.9669 69.0462 75.2701 69.5925 75.6855C70.1388 76.1008 70.5976 76.62 70.9425 77.2132C71.2874 77.8065 71.5117 78.4621 71.6023 79.1423C71.693 79.8225 71.6482 80.514 71.4707 81.1768C71.2932 81.8397 70.9864 82.461 70.5679 83.0049C70.1494 83.5487 69.6276 84.0045 69.0323 84.346C68.4371 84.6875 67.7802 84.9079 67.0995 84.9946C66.4187 85.0813 65.7276 85.0326 65.0657 84.8512L39.5572 78.0166C39.3657 77.9595 39.1647 77.9415 38.9661 77.9634C38.7675 77.9854 38.5753 78.0469 38.4009 78.1444C38.2265 78.242 38.0734 78.3734 37.9507 78.5311C37.828 78.6888 37.7381 78.8695 37.6864 79.0625C37.6347 79.2555 37.6222 79.4569 37.6497 79.6548C37.6772 79.8528 37.7441 80.0432 37.8464 80.2148C37.9487 80.3864 38.0844 80.5358 38.2455 80.654C38.4065 80.7723 38.5896 80.8571 38.784 80.9034L64.2953 87.7339C65.3349 88.0135 66.4193 88.0853 67.4867 87.9453C68.554 87.8054 69.5833 87.4563 70.5155 86.9181C71.4478 86.3799 72.2648 85.6631 72.9197 84.8088C73.5747 83.9545 74.0547 82.9794 74.3325 81.9394C74.488 81.3518 74.578 80.7488 74.6008 80.1414L92.1067 68.2646C92.7296 67.8496 93.4299 67.5647 94.1656 67.4268C94.9013 67.2889 95.6573 67.301 96.3882 67.4622C96.9884 67.588 97.556 67.8371 98.0549 68.1938C98.5537 68.5504 98.973 69.0069 99.2862 69.5341C100.037 70.6992 100.317 72.106 100.07 73.4699C99.8232 74.8338 99.0673 76.0529 97.9554 76.8805ZM32.2233 27.8603L32.3707 38.3757L37.8899 40.0833C38.5394 42.3979 39.4938 44.6158 40.728 46.6788L38.1805 51.8587L45.716 59.1869L50.8263 56.4948C52.9232 57.6718 55.1679 58.5632 57.501 59.1452L59.3602 64.6129L69.8743 64.4739L71.5819 58.9533C73.8972 58.3052 76.1157 57.3512 78.1788 56.1166L83.3558 58.6641L90.6883 51.1272L87.9906 46.0141C89.1686 43.9174 90.0609 41.6726 90.6438 39.3394L96.1115 37.4788L95.9627 26.9675L90.4463 25.2585C89.7976 22.943 88.8427 20.7245 87.6068 18.6617L90.1599 13.486L82.6202 6.15353L77.5127 8.84984C75.4157 7.6719 73.171 6.77871 70.838 6.19385L68.9788 0.727539L58.4647 0.87633L56.7571 6.3941C54.4416 7.04214 52.223 7.99663 50.1602 9.23224L44.9804 6.68055L37.6521 14.2202L40.3442 19.3347C39.1675 21.4318 38.2757 23.6765 37.6924 26.0094L32.2233 27.8603ZM40.4207 27.4653C40.9827 24.8778 41.9669 22.4005 43.334 20.1329L43.7692 19.4084L41.3107 14.7458L45.6103 10.3211L50.3382 12.6503L51.0488 12.1941C53.277 10.7629 55.7263 9.70949 58.2978 9.0765L59.1169 8.87209L60.6743 3.83128L66.8429 3.74507L68.5435 8.73859L69.3695 8.91937C71.9573 9.48394 74.4346 10.4705 76.702 11.8396L77.4251 12.2748L82.0946 9.81211L86.5194 14.1131L84.1902 18.8411L84.6463 19.5516C86.0773 21.7795 87.1307 24.2283 87.7639 26.7993L87.9669 27.6197L93.0091 29.1799L93.0954 35.3457L88.0991 37.0519L87.9211 37.8751C87.3569 40.4617 86.3703 42.9377 85.0009 45.2034L84.5629 45.9279L87.0255 50.5919L82.7245 55.0139L77.9966 52.6874L77.286 53.1435C75.0586 54.5737 72.6102 55.6262 70.0398 56.2584L69.2193 56.4614L67.6591 61.505L61.492 61.5898L59.7899 56.6019L58.9653 56.4225C56.3776 55.8612 53.9002 54.8769 51.6329 53.5093L50.9084 53.0712L46.2458 55.5284L41.8224 51.2287L44.1488 46.5008L43.6927 45.7916C42.2626 43.5631 41.2089 41.1146 40.5737 38.544L40.3707 37.7236L35.3312 36.1606L35.2436 29.9892L40.2386 28.2913L40.4207 27.4653ZM64.1563 49.2736H64.3955C68.7368 49.242 72.8887 47.4911 75.9418 44.4044C78.9949 41.3178 80.7003 37.147 80.6844 32.8056C80.6686 28.4641 78.9329 24.3058 75.8574 21.2415C72.7819 18.1772 68.6174 16.4567 64.2759 16.4567C59.9344 16.4567 55.7698 18.1772 52.6943 21.2415C49.6189 24.3058 47.8831 28.4641 47.8673 32.8056C47.8515 37.147 49.5569 41.3178 52.6099 44.4044C55.663 47.4911 59.8149 49.242 64.1563 49.2736ZM54.407 23.1838C55.9674 21.5786 57.8995 20.3829 60.0323 19.7028C62.1651 19.0226 64.4327 18.879 66.6343 19.2846C68.8359 19.6902 70.9034 20.6326 72.6538 22.0281C74.4042 23.4237 75.7834 25.2294 76.6692 27.2853C77.555 29.3412 77.9201 31.5839 77.7321 33.8146C77.5441 36.0453 76.8089 38.1952 75.5915 40.0739C74.3742 41.9526 72.7123 43.502 70.753 44.585C68.7938 45.668 66.5977 46.251 64.3593 46.2825H64.1563C61.4813 46.281 58.866 45.4914 56.6371 44.0124C54.4082 42.5333 52.6645 40.4302 51.6238 37.966C50.5831 35.5017 50.2915 32.7854 50.7856 30.1564C51.2796 27.5274 52.5372 25.1022 54.4015 23.1838H54.407Z" stroke="url(#paint1_linear_491_603)" mask="url(#path-1-outside-1_491_603)"/>
<defs>
<linearGradient id="paint0_linear_491_603" x1="46.5305" y1="25.6546" x2="1.37662" y2="144.752" gradientUnits="userSpaceOnUse">
<stop stop-color="#0BAA4B"/>
<stop offset="1" stop-color="#ACD6BD" stop-opacity="0.74"/>
</linearGradient>
<linearGradient id="paint1_linear_491_603" x1="46.5305" y1="25.6546" x2="1.37662" y2="144.752" gradientUnits="userSpaceOnUse">
<stop stop-color="#0BAA4B"/>
<stop offset="1" stop-color="#ACD6BD" stop-opacity="0.74"/>
</linearGradient>
</defs>
</svg>
