<svg width="98" height="104" viewBox="0 0 98 104" fill="none" xmlns="http://www.w3.org/2000/svg">
<mask id="path-1-outside-1_491_569" maskUnits="userSpaceOnUse" x="-0.219727" y="-0.171143" width="98" height="104" fill="black">
<rect fill="white" x="-0.219727" y="-0.171143" width="98" height="104"/>
<path d="M29.7375 88.8393C30.4061 89.1947 30.6642 90.0198 30.3214 90.6926C29.9829 91.3696 29.1705 91.6532 28.485 91.3316C16.9798 85.526 8.50008 75.0828 5.18208 62.6297L3.40489 65.6594C3.22717 65.9895 2.92251 66.2392 2.55436 66.3407C2.19046 66.4423 1.80117 66.3957 1.47535 66.2011C1.14529 66.0107 0.912565 65.6975 0.819471 65.3294C0.73061 64.9613 0.794083 64.572 0.997189 64.2504L4.56856 58.174C4.68705 57.9793 4.84784 57.8143 5.03825 57.6916L5.05941 57.6789L5.0721 57.6747L5.08903 57.662L5.10596 57.6577L5.11865 57.6535L5.13135 57.6366H5.14404L5.16097 57.6239H5.17366L5.19482 57.6197L5.19905 57.6154L5.22021 57.6027L5.2329 57.5985H5.24983L5.28368 57.59H5.31753L5.34715 57.5773L5.35984 57.5731C5.37254 57.5731 5.37677 57.5731 5.38946 57.5604V57.5646C5.7576 57.4589 6.15536 57.5096 6.48117 57.7043L12.5576 61.2714H12.5618C13.2261 61.6607 13.4504 62.5154 13.0569 63.1798C12.6676 63.8484 11.8129 64.0684 11.1485 63.6791L7.8226 61.6946C10.9032 73.462 18.8837 83.3423 29.7368 88.8355L29.7375 88.8393ZM74.8788 90.8704L74.883 90.8661C75.632 91.0566 76.0848 91.814 75.8944 92.563C75.7082 93.3119 74.9465 93.7647 74.1975 93.5785L67.368 91.8563V91.8521C66.619 91.6659 66.162 90.9085 66.3482 90.1595L68.0789 83.3173H68.0747C68.2651 82.5683 69.0267 82.1155 69.7715 82.306C70.5204 82.4922 70.9732 83.2538 70.787 84.0028L69.8307 87.8111H69.8265C75.6405 84.4851 80.5913 79.8305 84.2684 74.2281C88.4998 67.7879 90.8822 60.3062 91.1615 52.601C91.1996 51.8394 91.8427 51.2512 92.6044 51.2807C93.366 51.3103 93.9627 51.9408 93.95 52.7025C93.6538 60.9157 91.1107 68.8917 86.5957 75.7595C82.7493 81.6074 77.608 86.4905 71.5655 90.0282L74.8788 90.8704ZM94.204 36.1065C94.5933 35.438 95.4481 35.2179 96.1124 35.6072C96.7768 35.9965 97.001 36.8512 96.6117 37.5156L93.0785 43.5285V43.5327C92.8965 43.8839 92.5749 44.1421 92.1941 44.2394C91.809 44.3409 91.4028 44.2732 91.077 44.0532L85.0641 40.52L85.0599 40.5157C84.7425 40.3295 84.5098 40.0249 84.4167 39.6694C84.3194 39.3098 84.3744 38.9289 84.5606 38.6116C84.9456 37.943 85.8004 37.7187 86.4647 38.108L89.7653 40.0461C87.8146 32.7765 83.9597 26.1588 78.6067 20.8693C73.2539 15.58 66.5848 11.8097 59.2945 9.9479C58.5878 9.72364 58.1816 8.98736 58.3593 8.27222C58.5413 7.55287 59.2522 7.10014 59.98 7.23975C67.7235 9.22004 74.8075 13.2188 80.5022 18.8251C86.1977 24.4361 90.3065 31.4515 92.4093 39.1654L94.204 36.1065ZM42.8849 3.20274C42.3476 2.65265 42.356 1.76829 42.9019 1.22667C43.452 0.689277 44.3363 0.697737 44.8779 1.24359L49.7526 6.19016C50.053 6.45674 50.2265 6.8418 50.2265 7.24379C50.2307 7.65425 50.0488 8.04354 49.7357 8.31013L44.7849 13.1848C44.2348 13.7264 43.3546 13.7179 42.813 13.1678C42.2714 12.6178 42.2799 11.7334 42.8299 11.196L45.2715 8.79247C35.0144 9.65569 25.422 14.2214 18.2877 21.6431C11.1535 29.0609 6.96443 38.8224 6.50296 49.1057C6.46911 49.8759 5.82169 50.4725 5.04729 50.4429C4.27716 50.409 3.68055 49.7616 3.71012 48.9915C4.20943 37.9305 8.74974 27.437 16.4719 19.5022C24.1901 11.5724 34.5568 6.74903 45.6017 5.95717L42.8849 3.20274ZM48.8259 39.5762C54.2803 39.5762 58.973 43.4268 60.0398 48.7712C61.1061 54.1197 58.2457 59.4767 53.2102 61.5633C48.1706 63.6536 42.3603 61.8934 39.3316 57.3615C36.2976 52.8296 36.89 46.7871 40.7449 42.9282C42.886 40.7786 45.793 39.5726 48.8269 39.5768L48.8259 39.5762ZM54.9319 44.9036C52.0207 41.9966 47.4592 41.548 44.0398 43.8373C40.6165 46.1223 39.2879 50.5103 40.8662 54.3144C42.4403 58.1142 46.4856 60.2723 50.5224 59.4683C54.555 58.6643 57.4619 55.1184 57.4619 51.0054C57.4619 48.7162 56.5525 46.5201 54.9319 44.9036ZM59.6796 35.7975L58.4778 36.411L57.8092 36.0133L57.805 36.0091C57.073 35.569 56.3071 35.1797 55.5158 34.8539C54.7245 34.5281 53.912 34.2615 53.0869 34.0541L52.3337 33.8679L51.1954 30.3347H46.4689L45.3306 33.8679L44.5774 34.0541C42.9102 34.4688 41.3192 35.1247 39.8551 36.0091L39.1907 36.4068L35.8733 34.7185L32.5431 38.0528L34.2273 41.3576L33.8253 42.022C32.9494 43.4945 32.2935 45.0855 31.8703 46.7485L31.6841 47.4975L28.1509 48.6358V53.3581L31.6841 54.5048L31.8703 55.2538C32.0777 56.0832 32.3485 56.8956 32.6785 57.6869C33.0044 58.4782 33.3894 59.2441 33.8253 59.9804L34.2273 60.6447L32.5431 63.9495L35.8733 67.2839L39.178 65.5997L39.8424 65.9975C40.5787 66.4376 41.3488 66.8268 42.1401 67.1527C42.9271 67.4785 43.7396 67.7493 44.5647 67.9524L45.3179 68.1386L46.4562 71.6718H51.1743L52.3253 68.1386L53.0742 67.9524C54.7457 67.5462 56.3409 66.8861 57.8135 66.0017L58.482 65.6039L61.7868 67.2881L65.1085 63.9579L63.4244 60.6531L63.8221 59.9888V59.9846C64.2664 59.2525 64.6515 58.4866 64.9731 57.6911C65.3031 56.8998 65.5697 56.0873 65.7771 55.258L65.9633 54.509L69.4965 53.3623L69.5007 48.6442L65.9675 47.5059L65.7813 46.7569H65.7771C65.5697 45.9276 65.3031 45.1152 64.9731 44.3238C64.6515 43.5283 64.2664 42.7624 63.8221 42.0262L63.4244 41.3618L65.1085 38.057L61.7826 34.7185L59.6796 35.7975ZM58.5625 33.2248L62.3243 31.3079L68.5319 37.5113L66.6151 41.2731C67.3218 42.5552 67.8846 43.9135 68.2908 45.3226L72.3064 46.6259V55.3977L68.2908 56.701C67.8846 58.1059 67.3218 59.4642 66.6109 60.7421L68.5277 64.5039L62.3201 70.7115L58.5583 68.7947C57.9194 69.1501 57.2593 69.4632 56.5865 69.7425C55.9094 70.0176 55.2239 70.263 54.5172 70.4746L53.214 74.4817H44.4337L43.1304 70.4746H43.1262C42.428 70.2672 41.7383 70.0218 41.0655 69.7425C40.3885 69.4632 39.7283 69.1501 39.0852 68.7947L35.3234 70.7115L29.1158 64.5039L31.0326 60.7421C30.6814 60.1031 30.3641 59.443 30.0848 58.7702C29.8013 58.0932 29.5559 57.4035 29.3527 56.701L25.3456 55.3977V46.6217L29.3654 45.3226C29.5685 44.6202 29.8097 43.9304 30.0932 43.2534C30.3725 42.5806 30.6941 41.9205 31.0453 41.2816L29.1285 37.5197L35.3361 31.3122L39.0979 33.229V33.2248C39.7368 32.8735 40.3969 32.5604 41.0697 32.2769C41.7468 32.0019 42.4365 31.7564 43.139 31.5491L44.438 27.5335H53.2183L54.5216 31.5406H54.5258C55.224 31.7522 55.918 31.9934 56.595 32.2727C57.2678 32.552 57.928 32.8693 58.5669 33.2205L58.5625 33.2248ZM62.1635 89.4943L62.1593 89.4901C62.1593 96.8571 56.1887 102.824 48.8255 102.824C41.4585 102.82 35.4917 96.8491 35.4917 89.4868V86.3175C35.5298 84.773 34.6539 83.3554 33.2618 82.6911C27.5154 79.7925 22.6874 75.358 19.3062 69.8827C14.4062 61.9064 12.9421 52.2885 15.244 43.2162C17.5459 34.144 23.4192 26.3922 31.5264 21.7158C39.6381 17.0443 49.2939 15.851 58.299 18.4111C67.2993 20.9669 74.8857 27.0602 79.3249 35.299C83.768 43.5376 84.6861 53.2235 81.8723 62.1517C79.0583 71.0801 72.7535 78.4893 64.3918 82.6913C63.7148 83.0256 63.1478 83.5376 62.7416 84.1765C62.3523 84.8197 62.1492 85.5602 62.1577 86.3135V89.4871L62.1635 89.4943ZM56.2775 96.9332C57.9108 95.3041 58.9645 93.18 59.2691 90.8907H38.3873C38.9204 94.8599 41.6624 98.1816 45.458 99.4637C49.2494 100.746 53.4424 99.764 56.2775 96.9332ZM71.3628 29.2049H71.3543C64.7532 22.5996 55.5876 19.223 46.2824 19.9677C36.9732 20.7082 28.4597 25.4982 22.9925 33.0686C17.5253 40.6389 15.651 50.2273 17.8682 59.2952C20.0897 68.3674 26.1746 76.0054 34.5189 80.1987C36.8461 81.3455 38.3102 83.7235 38.2933 86.3174V88.0819H59.3615V86.3174C59.3446 83.7235 60.8086 81.3455 63.136 80.1987C72.276 75.6033 78.6525 66.8996 80.2817 56.7983C81.9108 46.702 78.5892 36.4321 71.3534 29.2003L71.3628 29.2049Z"/>
</mask>
<path d="M29.7375 88.8393C30.4061 89.1947 30.6642 90.0198 30.3214 90.6926C29.9829 91.3696 29.1705 91.6532 28.485 91.3316C16.9798 85.526 8.50008 75.0828 5.18208 62.6297L3.40489 65.6594C3.22717 65.9895 2.92251 66.2392 2.55436 66.3407C2.19046 66.4423 1.80117 66.3957 1.47535 66.2011C1.14529 66.0107 0.912565 65.6975 0.819471 65.3294C0.73061 64.9613 0.794083 64.572 0.997189 64.2504L4.56856 58.174C4.68705 57.9793 4.84784 57.8143 5.03825 57.6916L5.05941 57.6789L5.0721 57.6747L5.08903 57.662L5.10596 57.6577L5.11865 57.6535L5.13135 57.6366H5.14404L5.16097 57.6239H5.17366L5.19482 57.6197L5.19905 57.6154L5.22021 57.6027L5.2329 57.5985H5.24983L5.28368 57.59H5.31753L5.34715 57.5773L5.35984 57.5731C5.37254 57.5731 5.37677 57.5731 5.38946 57.5604V57.5646C5.7576 57.4589 6.15536 57.5096 6.48117 57.7043L12.5576 61.2714H12.5618C13.2261 61.6607 13.4504 62.5154 13.0569 63.1798C12.6676 63.8484 11.8129 64.0684 11.1485 63.6791L7.8226 61.6946C10.9032 73.462 18.8837 83.3423 29.7368 88.8355L29.7375 88.8393ZM74.8788 90.8704L74.883 90.8661C75.632 91.0566 76.0848 91.814 75.8944 92.563C75.7082 93.3119 74.9465 93.7647 74.1975 93.5785L67.368 91.8563V91.8521C66.619 91.6659 66.162 90.9085 66.3482 90.1595L68.0789 83.3173H68.0747C68.2651 82.5683 69.0267 82.1155 69.7715 82.306C70.5204 82.4922 70.9732 83.2538 70.787 84.0028L69.8307 87.8111H69.8265C75.6405 84.4851 80.5913 79.8305 84.2684 74.2281C88.4998 67.7879 90.8822 60.3062 91.1615 52.601C91.1996 51.8394 91.8427 51.2512 92.6044 51.2807C93.366 51.3103 93.9627 51.9408 93.95 52.7025C93.6538 60.9157 91.1107 68.8917 86.5957 75.7595C82.7493 81.6074 77.608 86.4905 71.5655 90.0282L74.8788 90.8704ZM94.204 36.1065C94.5933 35.438 95.4481 35.2179 96.1124 35.6072C96.7768 35.9965 97.001 36.8512 96.6117 37.5156L93.0785 43.5285V43.5327C92.8965 43.8839 92.5749 44.1421 92.1941 44.2394C91.809 44.3409 91.4028 44.2732 91.077 44.0532L85.0641 40.52L85.0599 40.5157C84.7425 40.3295 84.5098 40.0249 84.4167 39.6694C84.3194 39.3098 84.3744 38.9289 84.5606 38.6116C84.9456 37.943 85.8004 37.7187 86.4647 38.108L89.7653 40.0461C87.8146 32.7765 83.9597 26.1588 78.6067 20.8693C73.2539 15.58 66.5848 11.8097 59.2945 9.9479C58.5878 9.72364 58.1816 8.98736 58.3593 8.27222C58.5413 7.55287 59.2522 7.10014 59.98 7.23975C67.7235 9.22004 74.8075 13.2188 80.5022 18.8251C86.1977 24.4361 90.3065 31.4515 92.4093 39.1654L94.204 36.1065ZM42.8849 3.20274C42.3476 2.65265 42.356 1.76829 42.9019 1.22667C43.452 0.689277 44.3363 0.697737 44.8779 1.24359L49.7526 6.19016C50.053 6.45674 50.2265 6.8418 50.2265 7.24379C50.2307 7.65425 50.0488 8.04354 49.7357 8.31013L44.7849 13.1848C44.2348 13.7264 43.3546 13.7179 42.813 13.1678C42.2714 12.6178 42.2799 11.7334 42.8299 11.196L45.2715 8.79247C35.0144 9.65569 25.422 14.2214 18.2877 21.6431C11.1535 29.0609 6.96443 38.8224 6.50296 49.1057C6.46911 49.8759 5.82169 50.4725 5.04729 50.4429C4.27716 50.409 3.68055 49.7616 3.71012 48.9915C4.20943 37.9305 8.74974 27.437 16.4719 19.5022C24.1901 11.5724 34.5568 6.74903 45.6017 5.95717L42.8849 3.20274ZM48.8259 39.5762C54.2803 39.5762 58.973 43.4268 60.0398 48.7712C61.1061 54.1197 58.2457 59.4767 53.2102 61.5633C48.1706 63.6536 42.3603 61.8934 39.3316 57.3615C36.2976 52.8296 36.89 46.7871 40.7449 42.9282C42.886 40.7786 45.793 39.5726 48.8269 39.5768L48.8259 39.5762ZM54.9319 44.9036C52.0207 41.9966 47.4592 41.548 44.0398 43.8373C40.6165 46.1223 39.2879 50.5103 40.8662 54.3144C42.4403 58.1142 46.4856 60.2723 50.5224 59.4683C54.555 58.6643 57.4619 55.1184 57.4619 51.0054C57.4619 48.7162 56.5525 46.5201 54.9319 44.9036ZM59.6796 35.7975L58.4778 36.411L57.8092 36.0133L57.805 36.0091C57.073 35.569 56.3071 35.1797 55.5158 34.8539C54.7245 34.5281 53.912 34.2615 53.0869 34.0541L52.3337 33.8679L51.1954 30.3347H46.4689L45.3306 33.8679L44.5774 34.0541C42.9102 34.4688 41.3192 35.1247 39.8551 36.0091L39.1907 36.4068L35.8733 34.7185L32.5431 38.0528L34.2273 41.3576L33.8253 42.022C32.9494 43.4945 32.2935 45.0855 31.8703 46.7485L31.6841 47.4975L28.1509 48.6358V53.3581L31.6841 54.5048L31.8703 55.2538C32.0777 56.0832 32.3485 56.8956 32.6785 57.6869C33.0044 58.4782 33.3894 59.2441 33.8253 59.9804L34.2273 60.6447L32.5431 63.9495L35.8733 67.2839L39.178 65.5997L39.8424 65.9975C40.5787 66.4376 41.3488 66.8268 42.1401 67.1527C42.9271 67.4785 43.7396 67.7493 44.5647 67.9524L45.3179 68.1386L46.4562 71.6718H51.1743L52.3253 68.1386L53.0742 67.9524C54.7457 67.5462 56.3409 66.8861 57.8135 66.0017L58.482 65.6039L61.7868 67.2881L65.1085 63.9579L63.4244 60.6531L63.8221 59.9888V59.9846C64.2664 59.2525 64.6515 58.4866 64.9731 57.6911C65.3031 56.8998 65.5697 56.0873 65.7771 55.258L65.9633 54.509L69.4965 53.3623L69.5007 48.6442L65.9675 47.5059L65.7813 46.7569H65.7771C65.5697 45.9276 65.3031 45.1152 64.9731 44.3238C64.6515 43.5283 64.2664 42.7624 63.8221 42.0262L63.4244 41.3618L65.1085 38.057L61.7826 34.7185L59.6796 35.7975ZM58.5625 33.2248L62.3243 31.3079L68.5319 37.5113L66.6151 41.2731C67.3218 42.5552 67.8846 43.9135 68.2908 45.3226L72.3064 46.6259V55.3977L68.2908 56.701C67.8846 58.1059 67.3218 59.4642 66.6109 60.7421L68.5277 64.5039L62.3201 70.7115L58.5583 68.7947C57.9194 69.1501 57.2593 69.4632 56.5865 69.7425C55.9094 70.0176 55.2239 70.263 54.5172 70.4746L53.214 74.4817H44.4337L43.1304 70.4746H43.1262C42.428 70.2672 41.7383 70.0218 41.0655 69.7425C40.3885 69.4632 39.7283 69.1501 39.0852 68.7947L35.3234 70.7115L29.1158 64.5039L31.0326 60.7421C30.6814 60.1031 30.3641 59.443 30.0848 58.7702C29.8013 58.0932 29.5559 57.4035 29.3527 56.701L25.3456 55.3977V46.6217L29.3654 45.3226C29.5685 44.6202 29.8097 43.9304 30.0932 43.2534C30.3725 42.5806 30.6941 41.9205 31.0453 41.2816L29.1285 37.5197L35.3361 31.3122L39.0979 33.229V33.2248C39.7368 32.8735 40.3969 32.5604 41.0697 32.2769C41.7468 32.0019 42.4365 31.7564 43.139 31.5491L44.438 27.5335H53.2183L54.5216 31.5406H54.5258C55.224 31.7522 55.918 31.9934 56.595 32.2727C57.2678 32.552 57.928 32.8693 58.5669 33.2205L58.5625 33.2248ZM62.1635 89.4943L62.1593 89.4901C62.1593 96.8571 56.1887 102.824 48.8255 102.824C41.4585 102.82 35.4917 96.8491 35.4917 89.4868V86.3175C35.5298 84.773 34.6539 83.3554 33.2618 82.6911C27.5154 79.7925 22.6874 75.358 19.3062 69.8827C14.4062 61.9064 12.9421 52.2885 15.244 43.2162C17.5459 34.144 23.4192 26.3922 31.5264 21.7158C39.6381 17.0443 49.2939 15.851 58.299 18.4111C67.2993 20.9669 74.8857 27.0602 79.3249 35.299C83.768 43.5376 84.6861 53.2235 81.8723 62.1517C79.0583 71.0801 72.7535 78.4893 64.3918 82.6913C63.7148 83.0256 63.1478 83.5376 62.7416 84.1765C62.3523 84.8197 62.1492 85.5602 62.1577 86.3135V89.4871L62.1635 89.4943ZM56.2775 96.9332C57.9108 95.3041 58.9645 93.18 59.2691 90.8907H38.3873C38.9204 94.8599 41.6624 98.1816 45.458 99.4637C49.2494 100.746 53.4424 99.764 56.2775 96.9332ZM71.3628 29.2049H71.3543C64.7532 22.5996 55.5876 19.223 46.2824 19.9677C36.9732 20.7082 28.4597 25.4982 22.9925 33.0686C17.5253 40.6389 15.651 50.2273 17.8682 59.2952C20.0897 68.3674 26.1746 76.0054 34.5189 80.1987C36.8461 81.3455 38.3102 83.7235 38.2933 86.3174V88.0819H59.3615V86.3174C59.3446 83.7235 60.8086 81.3455 63.136 80.1987C72.276 75.6033 78.6525 66.8996 80.2817 56.7983C81.9108 46.702 78.5892 36.4321 71.3534 29.2003L71.3628 29.2049Z" fill="url(#paint0_linear_491_569)"/>
<path d="M55.1819 44.9079V44.9036H54.6819V44.9079H55.1819ZM56.4585 96.7607L56.4543 96.7564L56.1007 97.11L56.105 97.1142L56.4585 96.7607ZM29.7375 88.8393L29.246 88.9312L29.2903 89.1678L29.5028 89.2808L29.7375 88.8393ZM30.3214 90.6926L29.8759 90.4656L29.8742 90.469L30.3214 90.6926ZM28.485 91.3316L28.2598 91.778L28.2662 91.7812L28.2726 91.7842L28.485 91.3316ZM5.18208 62.6297L5.66522 62.501L5.35684 61.3435L4.7508 62.3767L5.18208 62.6297ZM3.40489 65.6594L2.97361 65.4065L2.96899 65.4144L2.96465 65.4224L3.40489 65.6594ZM2.55436 66.3407L2.4214 65.8587L2.41997 65.8591L2.55436 66.3407ZM1.47535 66.2011L1.73181 65.7718L1.72521 65.768L1.47535 66.2011ZM0.819471 65.3294L0.333401 65.4467L0.334729 65.452L0.819471 65.3294ZM0.997189 64.2504L1.41993 64.5174L1.4242 64.5106L1.42825 64.5037L0.997189 64.2504ZM4.56856 58.174L4.14142 57.914L4.13751 57.9206L4.56856 58.174ZM5.03825 57.6916L4.78095 57.2629L4.77411 57.267L4.7674 57.2713L5.03825 57.6916ZM5.05941 57.6789L4.90142 57.2045L4.84926 57.2219L4.80211 57.2502L5.05941 57.6789ZM5.0721 57.6747L5.23009 58.1491L5.30718 58.1234L5.37217 58.0746L5.0721 57.6747ZM5.08903 57.662L4.96787 57.1769L4.86981 57.2014L4.78897 57.262L5.08903 57.662ZM5.10596 57.6577L5.22711 58.1428L5.24586 58.1382L5.2642 58.132L5.10596 57.6577ZM5.11865 57.6535L5.27689 58.1278L5.42495 58.0784L5.51862 57.9536L5.11865 57.6535ZM5.13135 57.6366V57.1366H4.88138L4.73138 57.3365L5.13135 57.6366ZM5.14404 57.6366V58.1366H5.3107L5.44403 58.0366L5.14404 57.6366ZM5.16097 57.6239V57.1239H4.99431L4.86098 57.2239L5.16097 57.6239ZM5.17366 57.6239V58.1239H5.22321L5.2718 58.1142L5.17366 57.6239ZM5.19482 57.6197L5.29296 58.1099L5.44136 58.0802L5.54837 57.9732L5.19482 57.6197ZM5.19905 57.6154L4.94186 57.1866L4.88905 57.2183L4.8455 57.2619L5.19905 57.6154ZM5.22021 57.6027L5.06195 57.1284L5.00999 57.1458L4.96302 57.174L5.22021 57.6027ZM5.2329 57.5985V57.0985H5.15169L5.07465 57.1242L5.2329 57.5985ZM5.24983 57.5985V58.0985H5.31135L5.37104 58.0836L5.24983 57.5985ZM5.28368 57.59V57.09H5.22215L5.16247 57.105L5.28368 57.59ZM5.31753 57.59V58.09H5.42019L5.51455 58.0496L5.31753 57.59ZM5.34715 57.5773L5.18917 57.103L5.16934 57.1096L5.15013 57.1178L5.34715 57.5773ZM5.35984 57.5731V57.0731H5.27878L5.20187 57.0987L5.35984 57.5731ZM5.38946 57.5604H5.88946V56.3533L5.03591 57.2069L5.38946 57.5604ZM5.38946 57.5646H4.88946V58.2286L5.52755 58.0452L5.38946 57.5646ZM6.48117 57.7043L6.22472 58.1335L6.22804 58.1355L6.48117 57.7043ZM12.5576 61.2714L12.3044 61.7026L12.4216 61.7714H12.5576V61.2714ZM12.5618 61.2714L12.8146 60.8401L12.6975 60.7714H12.5618V61.2714ZM13.0569 63.1798L12.6267 62.925L12.6248 62.9282L13.0569 63.1798ZM11.1485 63.6791L10.8923 64.1085L10.8957 64.1105L11.1485 63.6791ZM7.8226 61.6946L8.0788 61.2652L7.02943 60.6391L7.3389 61.8212L7.8226 61.6946ZM29.7368 88.8355L30.2283 88.7436L30.1829 88.5009L29.9626 88.3894L29.7368 88.8355ZM74.8788 90.8704L74.7556 91.355L75.0313 91.425L75.2324 91.2239L74.8788 90.8704ZM74.883 90.8661L75.0062 90.3816L74.7306 90.3115L74.5295 90.5126L74.883 90.8661ZM75.8944 92.563L75.4098 92.4397L75.4091 92.4423L75.8944 92.563ZM74.1975 93.5785L74.0753 94.0633L74.0769 94.0637L74.1975 93.5785ZM67.368 91.8563H66.868V92.2459L67.2457 92.3412L67.368 91.8563ZM67.368 91.8521H67.868V91.4612L67.4886 91.3669L67.368 91.8521ZM66.3482 90.1595L65.8634 90.0369L65.863 90.0389L66.3482 90.1595ZM68.0789 83.3173L68.5636 83.4399L68.7211 82.8173H68.0789V83.3173ZM68.0747 83.3173L67.5901 83.1941L67.4316 83.8173H68.0747V83.3173ZM69.7715 82.306L69.6476 82.7904L69.6508 82.7912L69.7715 82.306ZM70.787 84.0028L71.272 84.1245L71.2722 84.1234L70.787 84.0028ZM69.8307 87.8111V88.3111H70.2207L70.3157 87.9328L69.8307 87.8111ZM69.8265 87.8111L69.5782 87.3771L67.9455 88.3111H69.8265V87.8111ZM84.2684 74.2281L83.8505 73.9536L83.8504 73.9538L84.2684 74.2281ZM91.1615 52.601L90.662 52.576L90.6618 52.5829L91.1615 52.601ZM93.95 52.7025L94.4497 52.7205L94.4499 52.7108L93.95 52.7025ZM86.5957 75.7595L87.0134 76.0343L87.0135 76.0342L86.5957 75.7595ZM71.5655 90.0282L71.3129 89.5967L70.2611 90.2125L71.4424 90.5127L71.5655 90.0282ZM94.204 36.1065L94.6353 36.3596L94.6361 36.3581L94.204 36.1065ZM96.6117 37.5156L97.0428 37.7689L97.0431 37.7684L96.6117 37.5156ZM93.0785 43.5285L92.6474 43.2752L92.5785 43.3925V43.5285H93.0785ZM93.0785 43.5327L93.5224 43.7627L93.5785 43.6546V43.5327H93.0785ZM92.1941 44.2394L92.0703 43.7549L92.0666 43.7559L92.1941 44.2394ZM91.077 44.0532L91.3569 43.6389L91.3439 43.6301L91.3304 43.6221L91.077 44.0532ZM85.0641 40.52L84.7106 40.8735L84.7557 40.9187L84.8108 40.951L85.0641 40.52ZM85.0599 40.5157L85.4135 40.1622L85.3682 40.1169L85.3129 40.0845L85.0599 40.5157ZM84.4167 39.6694L84.9004 39.5427L84.8994 39.5388L84.4167 39.6694ZM84.5606 38.6116L84.9919 38.8646L84.9939 38.8611L84.5606 38.6116ZM86.4647 38.108L86.7179 37.6769L86.7175 37.6766L86.4647 38.108ZM89.7653 40.0461L89.5121 40.4772L90.5645 41.0952L90.2482 39.9165L89.7653 40.0461ZM78.6067 20.8693L78.9581 20.5136L78.6067 20.8693ZM59.2945 9.9479L59.1432 10.4245L59.1569 10.4288L59.1708 10.4324L59.2945 9.9479ZM58.3593 8.27222L57.8746 8.14961L57.8741 8.15166L58.3593 8.27222ZM59.98 7.23975L60.1039 6.75534L60.0891 6.75157L60.0742 6.7487L59.98 7.23975ZM80.5022 18.8251L80.8531 18.4689L80.853 18.4688L80.5022 18.8251ZM92.4093 39.1654L91.9269 39.2969L92.2394 40.443L92.8406 39.4184L92.4093 39.1654ZM42.8849 3.20274L42.5273 3.55214L42.529 3.55385L42.8849 3.20274ZM42.9019 1.22667L42.5525 0.869001L42.5497 0.871742L42.9019 1.22667ZM44.8779 1.24359L45.2341 0.892637L45.2329 0.891418L44.8779 1.24359ZM49.7526 6.19016L49.3964 6.54111L49.4082 6.55304L49.4207 6.56415L49.7526 6.19016ZM50.2265 7.24379H49.7265L49.7265 7.24895L50.2265 7.24379ZM49.7357 8.31013L49.4115 7.92942L49.3977 7.94115L49.3849 7.95385L49.7357 8.31013ZM44.7849 13.1848L44.4341 12.8285H44.4341L44.7849 13.1848ZM42.813 13.1678L43.1693 12.817L43.1693 12.817L42.813 13.1678ZM42.8299 11.196L43.1794 11.5537L43.1807 11.5523L42.8299 11.196ZM45.2715 8.79247L45.6223 9.14879L46.6082 8.17821L45.2296 8.29423L45.2715 8.79247ZM18.2877 21.6431L18.648 21.9897L18.6481 21.9896L18.2877 21.6431ZM6.50296 49.1057L6.00346 49.0833L6.00344 49.0838L6.50296 49.1057ZM5.04729 50.4429L5.02533 50.9424L5.02821 50.9425L5.04729 50.4429ZM3.71012 48.9915L3.21062 48.969L3.21049 48.9724L3.71012 48.9915ZM16.4719 19.5022L16.1136 19.1534L16.1136 19.1534L16.4719 19.5022ZM45.6017 5.95717L45.6374 6.45589L46.7193 6.37832L45.9576 5.60606L45.6017 5.95717ZM48.8259 39.5762V39.0762H47.1716L48.549 39.9925L48.8259 39.5762ZM60.0398 48.7712L60.5301 48.6734L60.5301 48.6733L60.0398 48.7712ZM53.2102 61.5633L53.0188 61.1014L53.0186 61.1015L53.2102 61.5633ZM39.3316 57.3615L39.7473 57.0836L39.747 57.0833L39.3316 57.3615ZM40.7449 42.9282L41.0986 43.2816L41.0991 43.2811L40.7449 42.9282ZM48.8269 39.5768L48.8262 40.0768L50.4847 40.0792L49.1039 39.1605L48.8269 39.5768ZM54.9319 44.9036L54.5786 45.2574L54.5788 45.2576L54.9319 44.9036ZM44.0398 43.8373L44.3174 44.2532L44.318 44.2528L44.0398 43.8373ZM40.8662 54.3144L41.3281 54.1231L41.328 54.1228L40.8662 54.3144ZM50.5224 59.4683L50.6201 59.9587L50.6202 59.9586L50.5224 59.4683ZM59.6796 35.7975L59.9069 36.2428L59.9078 36.2423L59.6796 35.7975ZM58.4778 36.411L58.2222 36.8408L58.4594 36.9819L58.7052 36.8564L58.4778 36.411ZM57.8092 36.0133L57.4559 36.367L57.5 36.4111L57.5536 36.443L57.8092 36.0133ZM57.805 36.0091L58.1584 35.6553L58.1151 35.6121L58.0626 35.5805L57.805 36.0091ZM55.5158 34.8539L55.3254 35.3162L55.3254 35.3162L55.5158 34.8539ZM53.0869 34.0541L53.2088 33.5692L53.2069 33.5687L53.0869 34.0541ZM52.3337 33.8679L51.8578 34.0213L51.9432 34.2865L52.2137 34.3533L52.3337 33.8679ZM51.1954 30.3347L51.6713 30.1814L51.5597 29.8347H51.1954V30.3347ZM46.4689 30.3347V29.8347H46.1047L45.993 30.1814L46.4689 30.3347ZM45.3306 33.8679L45.4506 34.3533L45.7211 34.2865L45.8065 34.0213L45.3306 33.8679ZM44.5774 34.0541L44.4574 33.5687L44.4567 33.5689L44.5774 34.0541ZM39.8551 36.0091L40.1119 36.4381L40.1136 36.4371L39.8551 36.0091ZM39.1907 36.4068L38.9639 36.8524L39.2104 36.9779L39.4476 36.8358L39.1907 36.4068ZM35.8733 34.7185L36.1001 34.2729L35.7762 34.1081L35.5195 34.3652L35.8733 34.7185ZM32.5431 38.0528L32.1894 37.6995L31.9328 37.9564L32.0976 38.2799L32.5431 38.0528ZM34.2273 41.3576L34.6551 41.6165L34.7991 41.3785L34.6728 41.1306L34.2273 41.3576ZM33.8253 42.022L33.3975 41.7631L33.3956 41.7664L33.8253 42.022ZM31.8703 46.7485L31.3858 46.6252L31.3851 46.6279L31.8703 46.7485ZM31.6841 47.4975L31.8375 47.9734L32.1023 47.8881L32.1694 47.6181L31.6841 47.4975ZM28.1509 48.6358L27.9976 48.1599L27.6509 48.2716V48.6358H28.1509ZM28.1509 53.3581H27.6509V53.7215L27.9966 53.8337L28.1509 53.3581ZM31.6841 54.5048L32.1694 54.3842L32.1024 54.1149L31.8385 54.0293L31.6841 54.5048ZM31.8703 55.2538L31.3851 55.3744L31.3853 55.3751L31.8703 55.2538ZM32.6785 57.6869L33.1409 57.4965L33.14 57.4944L32.6785 57.6869ZM33.8253 59.9804L33.395 60.2351L33.3975 60.2392L33.8253 59.9804ZM34.2273 60.6447L34.6727 60.8717L34.7991 60.6239L34.655 60.3859L34.2273 60.6447ZM32.5431 63.9495L32.0976 63.7225L31.9328 64.0459L32.1893 64.3028L32.5431 63.9495ZM35.8733 67.2839L35.5195 67.6372L35.7764 67.8944L36.1003 67.7293L35.8733 67.2839ZM39.178 65.5997L39.4349 65.1707L39.1975 65.0286L38.951 65.1542L39.178 65.5997ZM39.8424 65.9975L39.5855 66.4265L39.5859 66.4267L39.8424 65.9975ZM42.1401 67.1527L42.3313 66.6907L42.3304 66.6903L42.1401 67.1527ZM44.5647 67.9524L44.6847 67.467L44.6842 67.4669L44.5647 67.9524ZM45.3179 68.1386L45.7938 67.9853L45.7084 67.7201L45.4379 67.6532L45.3179 68.1386ZM46.4562 71.6718L45.9803 71.8252L46.092 72.1718H46.4562V71.6718ZM51.1743 71.6718V72.1718H51.5373L51.6497 71.8267L51.1743 71.6718ZM52.3253 68.1386L52.2046 67.6534L51.9357 67.7202L51.8498 67.9837L52.3253 68.1386ZM53.0742 67.9524L52.9561 67.4665L52.9536 67.4672L53.0742 67.9524ZM57.8135 66.0017L57.5578 65.572L57.556 65.573L57.8135 66.0017ZM58.482 65.6039L58.7091 65.1584L58.4634 65.0332L58.2264 65.1742L58.482 65.6039ZM61.7868 67.2881L61.5598 67.7335L61.8839 67.8987L62.1408 67.6412L61.7868 67.2881ZM65.1085 63.9579L65.4625 64.311L65.7187 64.0542L65.554 63.7309L65.1085 63.9579ZM63.4244 60.6531L62.9954 60.3963L62.8533 60.6337L62.9789 60.8802L63.4244 60.6531ZM63.8221 59.9888L64.2511 60.2456L64.3221 60.127V59.9888H63.8221ZM63.8221 59.9846L63.3947 59.7251L63.3221 59.8447V59.9846H63.8221ZM64.9731 57.6911L64.5116 57.4986L64.5095 57.5037L64.9731 57.6911ZM65.7771 55.258L66.2621 55.3793L66.2623 55.3786L65.7771 55.258ZM65.9633 54.509L65.8089 54.0335L65.545 54.1191L65.478 54.3884L65.9633 54.509ZM69.4965 53.3623L69.6508 53.8379L69.9962 53.7258L69.9965 53.3628L69.4965 53.3623ZM69.5007 48.6442L70.0007 48.6446L70.0011 48.2801L69.6541 48.1683L69.5007 48.6442ZM65.9675 47.5059L65.4823 47.6265L65.5494 47.8965L65.8142 47.9818L65.9675 47.5059ZM65.7813 46.7569L66.2665 46.6363L66.1722 46.2569H65.7813V46.7569ZM65.7771 46.7569L65.292 46.8782L65.3867 47.2569H65.7771V46.7569ZM64.9731 44.3238L64.5095 44.5113L64.5116 44.5163L64.9731 44.3238ZM63.8221 42.0262L63.3931 42.283L63.394 42.2845L63.8221 42.0262ZM63.4244 41.3618L62.9789 41.1348L62.8533 41.3813L62.9954 41.6187L63.4244 41.3618ZM65.1085 38.057L65.554 38.2841L65.7186 37.961L65.4627 37.7042L65.1085 38.057ZM61.7826 34.7185L62.1368 34.3656L61.8792 34.1069L61.5543 34.2736L61.7826 34.7185ZM58.5625 33.2248L58.2131 32.8671L58.7895 33.6703L58.5625 33.2248ZM62.3243 31.3079L62.6778 30.9543L62.4209 30.6976L62.0973 30.8624L62.3243 31.3079ZM68.5319 37.5113L68.9774 37.7383L69.1424 37.4145L68.8854 37.1576L68.5319 37.5113ZM66.6151 41.2731L66.1696 41.0461L66.0493 41.2823L66.1772 41.5145L66.6151 41.2731ZM68.2908 45.3226L67.8104 45.4611L67.8839 45.7163L68.1364 45.7982L68.2908 45.3226ZM72.3064 46.6259H72.8064V46.2625L72.4608 46.1503L72.3064 46.6259ZM72.3064 55.3977L72.4608 55.8733L72.8064 55.7611V55.3977H72.3064ZM68.2908 56.701L68.1364 56.2254L67.8841 56.3073L67.8105 56.5621L68.2908 56.701ZM66.6109 60.7421L66.1739 60.499L66.0445 60.7318L66.1654 60.9691L66.6109 60.7421ZM68.5277 64.5039L68.8813 64.8575L69.1381 64.6006L68.9732 64.2769L68.5277 64.5039ZM62.3201 70.7115L62.0931 71.157L62.4168 71.3219L62.6737 71.065L62.3201 70.7115ZM58.5583 68.7947L58.7853 68.3492L58.548 68.2282L58.3152 68.3577L58.5583 68.7947ZM56.5865 69.7425L56.7747 70.2057L56.7781 70.2043L56.5865 69.7425ZM54.5172 70.4746L54.3738 69.9956L54.1228 70.0707L54.0418 70.3199L54.5172 70.4746ZM53.214 74.4817V74.9817H53.5771L53.6895 74.6364L53.214 74.4817ZM44.4337 74.4817L43.9582 74.6364L44.0705 74.9817H44.4337V74.4817ZM43.1304 70.4746L43.6059 70.3199L43.4936 69.9746H43.1304V70.4746ZM43.1262 70.4746L42.9838 70.9539L43.0535 70.9746H43.1262V70.4746ZM41.0655 69.7425L41.2572 69.2807L41.2562 69.2803L41.0655 69.7425ZM39.0852 68.7947L39.3271 68.357L39.0947 68.2286L38.8582 68.3492L39.0852 68.7947ZM35.3234 70.7115L34.9698 71.065L35.2267 71.3219L35.5504 71.157L35.3234 70.7115ZM29.1158 64.5039L28.6703 64.2769L28.5054 64.6006L28.7623 64.8575L29.1158 64.5039ZM31.0326 60.7421L31.4781 60.9691L31.5983 60.7332L31.4708 60.5012L31.0326 60.7421ZM30.0848 58.7702L30.5466 58.5786L30.546 58.5771L30.0848 58.7702ZM29.3527 56.701L29.8331 56.5621L29.7595 56.3075L29.5074 56.2255L29.3527 56.701ZM25.3456 55.3977H24.8456V55.7609L25.1909 55.8732L25.3456 55.3977ZM25.3456 46.6217L25.1918 46.1459L24.8456 46.2578V46.6217H25.3456ZM29.3654 45.3226L29.5192 45.7984L29.772 45.7167L29.8457 45.4615L29.3654 45.3226ZM30.0932 43.2534L30.5544 43.4465L30.555 43.4451L30.0932 43.2534ZM31.0453 41.2816L31.4835 41.5224L31.611 41.2904L31.4908 41.0546L31.0453 41.2816ZM29.1285 37.5197L28.7749 37.1662L28.5181 37.4231L28.683 37.7467L29.1285 37.5197ZM35.3361 31.3122L35.5631 30.8667L35.2394 30.7017L34.9825 30.9586L35.3361 31.3122ZM39.0979 33.229L38.8709 33.6745L39.5979 34.0449V33.229H39.0979ZM39.0979 33.2248L38.857 32.7866L38.5979 32.929V33.2248H39.0979ZM41.0697 32.2769L40.8815 31.8136L40.8756 31.8161L41.0697 32.2769ZM43.139 31.5491L43.2805 32.0286L43.5335 31.954L43.6147 31.703L43.139 31.5491ZM44.438 27.5335V27.0335H44.0742L43.9623 27.3796L44.438 27.5335ZM53.2183 27.5335L53.6938 27.3788L53.5815 27.0335H53.2183V27.5335ZM54.5216 31.5406L54.0461 31.6953L54.1584 32.0406H54.5216V31.5406ZM54.5258 31.5406L54.6708 31.0621L54.5999 31.0406H54.5258V31.5406ZM56.595 32.2727L56.7867 31.8109L56.7857 31.8105L56.595 32.2727ZM58.5669 33.2205L58.9163 33.5782L59.3984 33.1071L58.8077 32.7824L58.5669 33.2205ZM62.1635 89.4943L61.8099 89.8479L62.5539 89.1819L62.1635 89.4943ZM62.1593 89.4901L62.5128 89.1365L61.6593 88.283V89.4901H62.1593ZM48.8255 102.824L48.8252 103.324H48.8255V102.824ZM35.4917 86.3175L34.9917 86.3051V86.3175H35.4917ZM33.2618 82.6911L33.0365 83.1376L33.0464 83.1423L33.2618 82.6911ZM19.3062 69.8827L18.8802 70.1444L18.8808 70.1454L19.3062 69.8827ZM31.5264 21.7158L31.2769 21.2826L31.2766 21.2827L31.5264 21.7158ZM58.299 18.4111L58.1622 18.892L58.1624 18.892L58.299 18.4111ZM79.3249 35.299L78.8847 35.5361L78.8848 35.5363L79.3249 35.299ZM81.8723 62.1517L82.3492 62.302L81.8723 62.1517ZM64.3918 82.6913L64.6132 83.1396L64.6163 83.138L64.3918 82.6913ZM62.7416 84.1765L62.3196 83.9082L62.3139 83.9176L62.7416 84.1765ZM62.1577 86.3135H62.6577L62.6576 86.3078L62.1577 86.3135ZM62.1577 89.4871H61.6577V89.6625L61.7673 89.7995L62.1577 89.4871ZM56.2775 96.9332L55.9244 96.5792L55.9242 96.5794L56.2775 96.9332ZM59.2691 90.8907L59.7648 90.9567L59.8401 90.3907H59.2691V90.8907ZM38.3873 90.8907V90.3907H37.8156L37.8917 90.9573L38.3873 90.8907ZM45.458 99.4637L45.6182 98.9901L45.618 98.99L45.458 99.4637ZM71.3628 29.2049V29.7049L71.584 28.7565L71.3628 29.2049ZM71.3543 29.2049L71.0007 29.5584L71.1471 29.7049H71.3543V29.2049ZM46.2824 19.9677L46.3221 20.4661L46.3223 20.4661L46.2824 19.9677ZM17.8682 59.2952L17.3825 59.4139L17.3825 59.4141L17.8682 59.2952ZM34.5189 80.1987L34.2943 80.6455L34.2979 80.6472L34.5189 80.1987ZM38.2933 86.3174L37.7933 86.3141V86.3174H38.2933ZM38.2933 88.0819H37.7933V88.5819H38.2933V88.0819ZM59.3615 88.0819V88.5819H59.8615V88.0819H59.3615ZM59.3615 86.3174H59.8615L59.8615 86.3141L59.3615 86.3174ZM63.136 80.1987L63.357 80.6472L63.3606 80.6454L63.136 80.1987ZM80.2817 56.7983L79.7881 56.7186L79.7881 56.7187L80.2817 56.7983ZM71.3534 29.2003L71.5746 28.7519L70.9999 29.5539L71.3534 29.2003ZM29.5028 89.2808C29.9298 89.5078 30.0953 90.0351 29.8759 90.4657L30.767 90.9196C31.2331 90.0045 30.8823 88.8816 29.9722 88.3978L29.5028 89.2808ZM29.8742 90.469C29.6567 90.9041 29.1365 91.0849 28.6974 90.8789L28.2726 91.7842C29.2044 92.2214 30.3092 91.8352 30.7687 90.9162L29.8742 90.469ZM28.7103 90.8852C17.3323 85.1438 8.9465 74.8162 5.66522 62.501L4.69893 62.7584C8.05366 75.3493 16.6272 85.9081 28.2598 91.778L28.7103 90.8852ZM4.7508 62.3767L2.97361 65.4065L3.83617 65.9124L5.61336 62.8827L4.7508 62.3767ZM2.96465 65.4224C2.84981 65.6357 2.65431 65.7945 2.4214 65.8587L2.68733 66.8227C3.19071 66.6839 3.60454 66.3433 3.84513 65.8965L2.96465 65.4224ZM2.41997 65.8591C2.18304 65.9252 1.93564 65.8936 1.73178 65.7718L1.21892 66.6303C1.6667 66.8978 2.19788 66.9593 2.68876 66.8223L2.41997 65.8591ZM1.72521 65.768C1.51474 65.6466 1.36491 65.4469 1.30421 65.2068L0.334729 65.452C0.460216 65.9482 0.775839 66.3748 1.22549 66.6342L1.72521 65.768ZM1.30551 65.2121C1.2483 64.975 1.28917 64.7244 1.41993 64.5174L0.574445 63.9834C0.298995 64.4195 0.212925 64.9475 0.33343 65.4467L1.30551 65.2121ZM1.42825 64.5037L4.99962 58.4273L4.13751 57.9206L0.56613 63.997L1.42825 64.5037ZM4.99566 58.434C5.075 58.3036 5.18246 58.1935 5.3091 58.1119L4.7674 57.2713C4.51322 57.4351 4.2991 57.655 4.14147 57.914L4.99566 58.434ZM5.29555 58.1203L5.31671 58.1076L4.80211 57.2502L4.78095 57.2629L5.29555 58.1203ZM5.2174 58.1533L5.23009 58.1491L4.91412 57.2003L4.90142 57.2045L5.2174 58.1533ZM5.37217 58.0746L5.38909 58.0619L4.78897 57.262L4.77204 57.2747L5.37217 58.0746ZM5.21019 58.1471L5.22711 58.1428L4.9848 57.1726L4.96787 57.1769L5.21019 58.1471ZM5.2642 58.132L5.27689 58.1278L4.96041 57.1792L4.94771 57.1834L5.2642 58.132ZM5.51862 57.9536L5.53131 57.9366L4.73138 57.3365L4.71869 57.3535L5.51862 57.9536ZM5.13135 58.1366H5.14404V57.1366H5.13135V58.1366ZM5.44403 58.0366L5.46095 58.0239L4.86098 57.2239L4.84405 57.2366L5.44403 58.0366ZM5.16097 58.1239H5.17366V57.1239H5.16097V58.1239ZM5.2718 58.1142L5.29296 58.1099L5.09667 57.1294L5.07551 57.1336L5.2718 58.1142ZM5.54837 57.9732L5.5526 57.969L4.8455 57.2619L4.84126 57.2661L5.54837 57.9732ZM5.45623 58.0442L5.47739 58.0315L4.96302 57.174L4.94186 57.1866L5.45623 58.0442ZM5.37846 58.077L5.39115 58.0728L5.07465 57.1242L5.06195 57.1284L5.37846 58.077ZM5.2329 58.0985H5.24983V57.0985H5.2329V58.0985ZM5.37104 58.0836L5.40489 58.0751L5.16247 57.105L5.12861 57.1134L5.37104 58.0836ZM5.28368 58.09H5.31753V57.09H5.28368V58.09ZM5.51455 58.0496L5.54417 58.0369L5.15013 57.1178L5.12051 57.1305L5.51455 58.0496ZM5.50512 58.0517L5.51782 58.0475L5.20187 57.0987L5.18917 57.103L5.50512 58.0517ZM5.35984 58.0731C5.36034 58.0731 5.36661 58.0731 5.37342 58.073C5.38073 58.0729 5.39371 58.0725 5.40964 58.0712C5.44413 58.0683 5.49386 58.0608 5.55031 58.0397C5.65938 57.9987 5.72631 57.9307 5.74302 57.914L5.03591 57.2069C5.03992 57.2029 5.09839 57.1411 5.199 57.1034C5.25122 57.0838 5.29671 57.0771 5.32644 57.0746C5.34905 57.0728 5.369 57.0731 5.35984 57.0731V58.0731ZM4.88946 57.5604V57.5646H5.88946V57.5604H4.88946ZM5.52755 58.0452C5.76428 57.9772 6.01904 58.0106 6.22473 58.1335L6.7376 57.2751C6.29168 57.0086 5.75091 56.9405 5.25137 57.0841L5.52755 58.0452ZM6.22804 58.1355L12.3044 61.7026L12.8107 60.8403L6.7343 57.2731L6.22804 58.1355ZM12.5576 61.7714H12.5618V60.7714H12.5576V61.7714ZM12.309 61.7028C12.7357 61.9529 12.8782 62.5004 12.6267 62.925L13.4871 63.4346C14.0226 62.5305 13.7166 61.3686 12.8146 60.8401L12.309 61.7028ZM12.6248 62.9282C12.3757 63.356 11.8286 63.4981 11.4013 63.2477L10.8957 64.1105C11.7971 64.6387 12.9595 64.3407 13.489 63.4314L12.6248 62.9282ZM11.4047 63.2497L8.0788 61.2652L7.5664 62.124L10.8923 64.1085L11.4047 63.2497ZM7.3389 61.8212C10.4557 73.7272 18.5302 83.7238 29.511 89.2816L29.9626 88.3894C19.2371 82.9608 11.3506 73.1967 8.3063 61.568L7.3389 61.8212ZM29.2453 88.9275L29.246 88.9312L30.229 88.7473L30.2283 88.7436L29.2453 88.9275ZM75.2324 91.2239L75.2366 91.2197L74.5295 90.5126L74.5253 90.5168L75.2324 91.2239ZM74.7598 91.3507C75.2425 91.4734 75.5318 91.9598 75.4098 92.4397L76.3789 92.6862C76.6378 91.6682 76.0215 90.6397 75.0062 90.3816L74.7598 91.3507ZM75.4091 92.4423C75.2903 92.9203 74.8022 93.2136 74.3182 93.0933L74.0769 94.0637C75.0908 94.3158 76.126 93.7036 76.3796 92.6836L75.4091 92.4423ZM74.3198 93.0937L67.4902 91.3715L67.2457 92.3412L74.0753 94.0633L74.3198 93.0937ZM67.868 91.8563V91.8521H66.868V91.8563H67.868ZM67.4886 91.3669C67.007 91.2471 66.714 90.7605 66.8334 90.2802L65.863 90.0389C65.61 91.0565 66.231 92.0847 67.2473 92.3373L67.4886 91.3669ZM66.8329 90.2821L68.5636 83.4399L67.5942 83.1947L65.8634 90.0369L66.8329 90.2821ZM68.0789 82.8173H68.0747V83.8173H68.0789V82.8173ZM68.5592 83.4405C68.6819 82.9581 69.1719 82.6687 69.6476 82.7904L69.8953 81.8216C68.8816 81.5623 67.8483 82.1785 67.5901 83.1941L68.5592 83.4405ZM69.6508 82.7912C70.1288 82.91 70.4221 83.3981 70.3018 83.8821L71.2722 84.1234C71.5243 83.1095 70.9121 82.0743 69.8921 81.8207L69.6508 82.7912ZM70.3021 83.881L69.3458 87.6893L70.3157 87.9328L71.272 84.1245L70.3021 83.881ZM69.8307 87.3111H69.8265V88.3111H69.8307V87.3111ZM70.0748 88.2451C75.9571 84.8801 80.9661 80.1708 84.6864 74.5025L83.8504 73.9538C80.2165 79.4903 75.3239 84.0902 69.5782 87.3771L70.0748 88.2451ZM84.6863 74.5027C88.968 67.9859 91.3786 60.4154 91.6611 52.6191L90.6618 52.5829C90.3858 60.1969 88.0316 67.5899 83.8505 73.9536L84.6863 74.5027ZM91.6609 52.626C91.6852 52.138 92.0971 51.7614 92.585 51.7804L92.6238 50.7811C91.5884 50.7409 90.7139 51.5407 90.6621 52.576L91.6609 52.626ZM92.585 51.7804C93.0751 51.7994 93.4582 52.2045 93.4501 52.6942L94.4499 52.7108C94.4671 51.6772 93.6568 50.8212 92.6238 50.7811L92.585 51.7804ZM93.4503 52.6845C93.1574 60.8063 90.6426 68.6935 86.1779 75.4849L87.0135 76.0342C91.5788 69.0899 94.1502 61.0251 94.4497 52.7205L93.4503 52.6845ZM86.1779 75.4848C82.3737 81.2684 77.289 86.0979 71.3129 89.5967L71.8182 90.4596C77.9271 86.883 83.1248 81.9463 87.0134 76.0343L86.1779 75.4848ZM71.4424 90.5127L74.7556 91.355L75.002 90.3858L71.6887 89.5436L71.4424 90.5127ZM94.6361 36.3581C94.8852 35.9303 95.4323 35.7882 95.8596 36.0386L96.3652 35.1758C95.4638 34.6476 94.3015 34.9456 93.772 35.8549L94.6361 36.3581ZM95.8596 36.0386C96.2863 36.2887 96.4296 36.8373 96.1803 37.2628L97.0431 37.7684C97.5724 36.8651 97.2672 35.7044 96.3652 35.1758L95.8596 36.0386ZM96.1806 37.2623L92.6474 43.2752L93.5096 43.7818L97.0428 37.7689L96.1806 37.2623ZM92.5785 43.5285V43.5327H93.5785V43.5285H92.5785ZM92.6345 43.3027C92.517 43.5295 92.3107 43.6935 92.0703 43.755L92.3179 44.7238C92.8391 44.5906 93.276 44.2384 93.5224 43.7627L92.6345 43.3027ZM92.0666 43.7559C91.8188 43.8213 91.5614 43.777 91.3569 43.6389L90.7972 44.4675C91.2442 44.7695 91.7992 44.8606 92.3216 44.7229L92.0666 43.7559ZM91.3304 43.6221L85.3174 40.0889L84.8108 40.951L90.8237 44.4843L91.3304 43.6221ZM85.4177 40.1664L85.4135 40.1622L84.7063 40.8693L84.7106 40.8735L85.4177 40.1664ZM85.3129 40.0845C85.1083 39.9644 84.9595 39.7685 84.9004 39.5428L83.933 39.7961C84.0601 40.2812 84.3768 40.6947 84.8069 40.947L85.3129 40.0845ZM84.8994 39.5388C84.8379 39.3117 84.872 39.0688 84.9919 38.8646L84.1293 38.3586C83.8768 38.7891 83.8009 39.3078 83.9341 39.8L84.8994 39.5388ZM84.9939 38.8611C85.2398 38.4341 85.7861 38.2899 86.2119 38.5394L86.7175 37.6766C85.8146 37.1475 84.6515 37.4519 84.1273 38.362L84.9939 38.8611ZM86.2116 38.5392L89.5121 40.4772L90.0185 39.6149L86.7179 37.6769L86.2116 38.5392ZM90.2482 39.9165C88.2744 32.561 84.3741 25.8653 78.9581 20.5136L78.2553 21.2249C83.5453 26.4522 87.3547 32.992 89.2824 40.1757L90.2482 39.9165ZM78.9581 20.5136C73.5422 15.1619 66.7944 11.3472 59.4182 9.46345L59.1708 10.4324C66.3751 12.2722 72.9657 15.998 78.2553 21.2249L78.9581 20.5136ZM59.4457 9.47133C58.9926 9.32753 58.7299 8.85412 58.8446 8.39278L57.8741 8.15166C57.6333 9.1206 58.183 10.1197 59.1432 10.4245L59.4457 9.47133ZM58.8441 8.39483C58.9612 7.93186 59.4184 7.64115 59.8858 7.7308L60.0742 6.7487C59.0859 6.55913 58.1214 7.17388 57.8746 8.14961L58.8441 8.39483ZM59.8561 7.72416C67.514 9.68257 74.5198 13.6371 80.1514 19.1814L80.853 18.4688C75.0953 12.8004 67.933 8.75752 60.1039 6.75534L59.8561 7.72416ZM80.1513 19.1813C85.784 24.7304 89.8474 31.6683 91.9269 39.2969L92.8917 39.0339C90.7656 31.2347 86.6115 24.1418 80.8531 18.4689L80.1513 19.1813ZM92.8406 39.4184L94.6353 36.3596L93.7728 35.8535L91.9781 38.9123L92.8406 39.4184ZM43.2426 2.85334C42.8978 2.50042 42.9024 1.93051 43.254 1.58159L42.5497 0.871742C41.8096 1.60608 41.7973 2.80488 42.5273 3.55214L43.2426 2.85334ZM43.2513 1.58432C43.6042 1.23956 44.1741 1.24413 44.523 1.59577L45.2329 0.891418C44.4985 0.151349 43.2997 0.138996 42.5525 0.869011L43.2513 1.58432ZM44.5218 1.59455L49.3964 6.54111L50.1087 5.8392L45.2341 0.892639L44.5218 1.59455ZM49.4207 6.56415C49.6144 6.73601 49.7265 6.98502 49.7265 7.24379H50.7265C50.7265 6.69858 50.4916 6.17747 50.0844 5.81616L49.4207 6.56415ZM49.7265 7.24895C49.7292 7.50714 49.6147 7.75642 49.4115 7.92942L50.0598 8.69084C50.4828 8.33066 50.7323 7.80136 50.7265 7.23864L49.7265 7.24895ZM49.3849 7.95385L44.4341 12.8285L45.1357 13.541L50.0865 8.66641L49.3849 7.95385ZM44.4341 12.8285C44.0815 13.1756 43.5179 13.1711 43.1693 12.817L42.4567 13.5186C43.1913 14.2647 44.388 14.2772 45.1357 13.541L44.4341 12.8285ZM43.1693 12.817C42.8214 12.4637 42.8279 11.897 43.1794 11.5536L42.4805 10.8383C41.7318 11.5698 41.7214 12.7718 42.4567 13.5186L43.1693 12.817ZM43.1807 11.5523L45.6223 9.14879L44.9207 8.43616L42.4792 10.8397L43.1807 11.5523ZM45.2296 8.29423C34.8515 9.16764 25.1458 13.7872 17.9272 21.2966L18.6481 21.9896C25.6981 14.6556 35.1773 10.1438 45.3134 9.29071L45.2296 8.29423ZM17.9273 21.2965C10.7089 28.8019 6.47038 38.6786 6.00346 49.0833L7.00246 49.1281C7.45848 38.9662 11.5981 29.3199 18.648 21.9897L17.9273 21.2965ZM6.00344 49.0838C5.98171 49.5783 5.56677 49.9624 5.06637 49.9433L5.02821 50.9425C6.07662 50.9826 6.95651 50.1734 7.00248 49.1277L6.00344 49.0838ZM5.06924 49.9434C4.57366 49.9216 4.19074 49.5057 4.20975 49.0107L3.21049 48.9724C3.17035 50.0175 3.98066 50.8965 5.02533 50.9424L5.06924 49.9434ZM4.20961 49.0141C4.7034 38.0753 9.1935 27.6979 16.8302 19.8509L16.1136 19.1534C8.30597 27.1761 3.71546 37.7856 3.21063 48.969L4.20961 49.0141ZM16.8302 19.8509C24.4629 12.009 34.7149 7.23898 45.6374 6.45589L45.5659 5.45845C34.3988 6.25907 23.9173 11.1359 16.1136 19.1534L16.8302 19.8509ZM45.9576 5.60606L43.2409 2.85163L42.529 3.55385L45.2457 6.30828L45.9576 5.60606ZM48.8259 40.0762C54.0419 40.0762 58.5293 43.7585 59.5494 48.869L60.5301 48.6733C59.4166 43.0952 54.5188 39.0762 48.8259 39.0762V40.0762ZM59.5494 48.8689C60.5691 53.9837 57.8337 59.1062 53.0188 61.1014L53.4016 62.0252C58.6577 59.8473 61.6431 54.2558 60.5301 48.6734L59.5494 48.8689ZM53.0186 61.1015C48.1992 63.1004 42.6434 61.417 39.7473 57.0836L38.9158 57.6393C42.0773 62.3697 48.1419 64.2069 53.4017 62.0251L53.0186 61.1015ZM39.747 57.0833C36.8459 52.7498 37.4123 46.9717 41.0986 43.2816L40.3911 42.5748C36.3677 46.6024 35.7493 52.9093 38.9161 57.6396L39.747 57.0833ZM41.0991 43.2811C43.1464 41.2258 45.9256 40.0728 48.8262 40.0768L48.8276 39.0768C45.6604 39.0724 42.6257 40.3315 40.3906 42.5754L41.0991 43.2811ZM49.1039 39.1605L49.1029 39.1599L48.549 39.9925L48.55 39.9931L49.1039 39.1605ZM55.2852 44.5498C52.2054 41.4744 47.3795 40.9997 43.7616 43.4218L44.318 44.2528C47.5389 42.0964 51.836 42.5188 54.5786 45.2574L55.2852 44.5498ZM43.7622 43.4214C40.1401 45.8392 38.7347 50.4818 40.4044 54.506L41.328 54.1228C39.8411 50.5389 41.0929 46.4054 44.3174 44.2532L43.7622 43.4214ZM40.4043 54.5058C42.0698 58.5264 46.3497 60.8092 50.6201 59.9587L50.4248 58.9779C46.6214 59.7354 42.8107 57.702 41.3281 54.1231L40.4043 54.5058ZM50.6202 59.9586C54.8868 59.108 57.9619 55.3567 57.9619 51.0054H56.9619C56.9619 54.8801 54.2232 58.2206 50.4247 58.978L50.6202 59.9586ZM57.9619 51.0054C57.9619 48.5836 56.9999 46.2601 55.285 44.5496L54.5788 45.2576C56.1052 46.7801 56.9619 48.8487 56.9619 51.0054H57.9619ZM59.4522 35.3522L58.2505 35.9657L58.7052 36.8564L59.9069 36.2428L59.4522 35.3522ZM58.7335 35.9813L58.0649 35.5836L57.5536 36.443L58.2222 36.8408L58.7335 35.9813ZM58.1626 35.6596L58.1584 35.6553L57.4516 36.3628L57.4559 36.367L58.1626 35.6596ZM58.0626 35.5805C57.3103 35.1283 56.522 34.7275 55.7062 34.3915L55.3254 35.3162C56.0922 35.6319 56.8357 36.0097 57.5474 36.4376L58.0626 35.5805ZM55.7062 34.3915C54.8923 34.0564 54.0569 33.7823 53.2088 33.5692L52.9651 34.5391C53.7672 34.7406 54.5567 34.9997 55.3254 35.3162L55.7062 34.3915ZM53.2069 33.5687L52.4537 33.3826L52.2137 34.3533L52.9669 34.5395L53.2069 33.5687ZM52.8096 33.7146L51.6713 30.1814L50.7195 30.488L51.8578 34.0213L52.8096 33.7146ZM51.1954 29.8347H46.4689V30.8347H51.1954V29.8347ZM45.993 30.1814L44.8547 33.7146L45.8065 34.0213L46.9448 30.488L45.993 30.1814ZM45.2106 33.3826L44.4574 33.5687L44.6974 34.5395L45.4506 34.3533L45.2106 33.3826ZM44.4567 33.5689C42.7419 33.9954 41.1043 34.6703 39.5965 35.5811L40.1136 36.4371C41.5341 35.579 43.0784 34.9422 44.6981 34.5394L44.4567 33.5689ZM39.5982 35.5801L38.9339 35.9779L39.4476 36.8358L40.1119 36.4381L39.5982 35.5801ZM39.4175 35.9612L36.1001 34.2729L35.6465 35.1641L38.9639 36.8524L39.4175 35.9612ZM35.5195 34.3652L32.1894 37.6995L32.8969 38.4062L36.227 35.0718L35.5195 34.3652ZM32.0976 38.2799L33.7818 41.5847L34.6728 41.1306L32.9886 37.8258L32.0976 38.2799ZM33.7995 41.0988L33.3975 41.7631L34.2531 42.2808L34.6551 41.6165L33.7995 41.0988ZM33.3956 41.7664C32.4948 43.2807 31.8206 44.9164 31.3858 46.6252L32.3549 46.8718C32.7663 45.2547 33.404 43.7083 34.255 42.2776L33.3956 41.7664ZM31.3851 46.6279L31.1989 47.3769L32.1694 47.6181L32.3556 46.8691L31.3851 46.6279ZM31.5308 47.0216L27.9976 48.1599L28.3042 49.1117L31.8375 47.9734L31.5308 47.0216ZM27.6509 48.6358V53.3581H28.6509V48.6358H27.6509ZM27.9966 53.8337L31.5298 54.9804L31.8385 54.0293L28.3053 52.8825L27.9966 53.8337ZM31.1989 54.6255L31.3851 55.3744L32.3556 55.1332L32.1694 54.3842L31.1989 54.6255ZM31.3853 55.3751C31.5988 56.2293 31.8776 57.0655 32.2171 57.8794L33.14 57.4944C32.8194 56.7257 32.5565 55.937 32.3554 55.1325L31.3853 55.3751ZM32.2162 57.8773C32.5516 58.6918 32.9475 59.4791 33.395 60.2351L34.2555 59.7257C33.8313 59.0091 33.4571 58.2646 33.1409 57.4965L32.2162 57.8773ZM33.3975 60.2392L33.7995 60.9036L34.655 60.3859L34.2531 59.7215L33.3975 60.2392ZM33.7818 60.4177L32.0976 63.7225L32.9886 64.1765L34.6727 60.8717L33.7818 60.4177ZM32.1893 64.3028L35.5195 67.6372L36.227 66.9305L32.8969 63.5962L32.1893 64.3028ZM36.1003 67.7293L39.4051 66.0452L38.951 65.1542L35.6462 66.8384L36.1003 67.7293ZM38.9212 66.0287L39.5855 66.4265L40.0992 65.5685L39.4349 65.1707L38.9212 66.0287ZM39.5859 66.4267C40.3423 66.8788 41.1345 67.2793 41.9497 67.615L42.3304 66.6903C41.563 66.3743 40.815 65.9963 40.0989 65.5683L39.5859 66.4267ZM41.9488 67.6146C42.7576 67.9495 43.594 68.2284 44.4452 68.4379L44.6842 67.4669C43.8852 67.2702 43.0966 67.0075 42.3313 66.6907L41.9488 67.6146ZM44.4447 68.4378L45.1979 68.624L45.4379 67.6532L44.6847 67.467L44.4447 68.4378ZM44.842 68.2919L45.9803 71.8252L46.9321 71.5185L45.7938 67.9853L44.842 68.2919ZM46.4562 72.1718H51.1743V71.1718H46.4562V72.1718ZM51.6497 71.8267L52.8007 68.2935L51.8498 67.9837L50.6989 71.517L51.6497 71.8267ZM52.4459 68.6238L53.1949 68.4376L52.9536 67.4672L52.2046 67.6534L52.4459 68.6238ZM53.1923 68.4383C54.9137 68.0199 56.5558 67.3402 58.0709 66.4303L57.556 65.573C56.126 66.4319 54.5777 67.0725 52.9561 67.4665L53.1923 68.4383ZM58.0691 66.4314L58.7377 66.0336L58.2264 65.1742L57.5578 65.572L58.0691 66.4314ZM58.255 66.0494L61.5598 67.7335L62.0138 66.8426L58.7091 65.1584L58.255 66.0494ZM62.1408 67.6412L65.4625 64.311L64.7545 63.6048L61.4328 66.935L62.1408 67.6412ZM65.554 63.7309L63.8699 60.4261L62.9789 60.8802L64.663 64.1849L65.554 63.7309ZM63.8534 60.91L64.2511 60.2456L63.3931 59.7319L62.9954 60.3963L63.8534 60.91ZM64.3221 59.9888V59.9846H63.3221V59.9888H64.3221ZM64.2496 60.244C64.7077 59.4892 65.1049 58.6993 65.4366 57.8785L64.5095 57.5037C64.1981 58.274 63.8252 59.0158 63.3947 59.7251L64.2496 60.244ZM65.4346 57.8836C65.7746 57.0683 66.049 56.2319 66.2621 55.3793L65.292 55.1367C65.0905 55.9427 64.8317 56.7313 64.5116 57.4986L65.4346 57.8836ZM66.2623 55.3786L66.4485 54.6297L65.478 54.3884L65.2918 55.1374L66.2623 55.3786ZM66.1176 54.9846L69.6508 53.8379L69.3421 52.8867L65.8089 54.0335L66.1176 54.9846ZM69.9965 53.3628L70.0007 48.6446L69.0007 48.6438L68.9965 53.3619L69.9965 53.3628ZM69.6541 48.1683L66.1208 47.03L65.8142 47.9818L69.3474 49.1201L69.6541 48.1683ZM66.4527 47.3853L66.2665 46.6363L65.2961 46.8776L65.4823 47.6265L66.4527 47.3853ZM65.7813 46.2569H65.7771V47.2569H65.7813V46.2569ZM66.2621 46.6357C66.049 45.783 65.7746 44.9467 65.4346 44.1314L64.5116 44.5163C64.8317 45.2836 65.0905 46.0722 65.292 46.8782L66.2621 46.6357ZM65.4366 44.1365C65.1048 43.3157 64.7078 42.5261 64.2502 41.7678L63.394 42.2845C63.8251 42.9988 64.1982 43.741 64.5095 44.5112L65.4366 44.1365ZM64.2511 41.7693L63.8534 41.105L62.9954 41.6187L63.3931 42.283L64.2511 41.7693ZM63.8699 41.5889L65.554 38.2841L64.663 37.83L62.9789 41.1348L63.8699 41.5889ZM65.4627 37.7042L62.1368 34.3656L61.4284 35.0713L64.7543 38.4099L65.4627 37.7042ZM61.5543 34.2736L59.4513 35.3526L59.9078 36.2423L62.0108 35.1633L61.5543 34.2736ZM58.7895 33.6703L62.5513 31.7534L62.0973 30.8624L58.3355 32.7793L58.7895 33.6703ZM61.9709 31.6616L68.1785 37.865L68.8854 37.1576L62.6778 30.9543L61.9709 31.6616ZM68.0864 37.2843L66.1696 41.0461L67.0606 41.5001L68.9774 37.7383L68.0864 37.2843ZM66.1772 41.5145C66.866 42.7642 67.4145 44.088 67.8104 45.4611L68.7712 45.1841C68.3546 43.7391 67.7775 42.3463 67.053 41.0318L66.1772 41.5145ZM68.1364 45.7982L72.1521 47.1015L72.4608 46.1503L68.4451 44.8471L68.1364 45.7982ZM71.8064 46.6259V55.3977H72.8064V46.6259H71.8064ZM72.1521 54.9222L68.1364 56.2254L68.4451 57.1766L72.4608 55.8733L72.1521 54.9222ZM67.8105 56.5621C67.4146 57.9313 66.8662 59.2546 66.1739 60.499L67.0478 60.9852C67.7774 59.6737 68.3546 58.2804 68.7711 56.8399L67.8105 56.5621ZM66.1654 60.9691L68.0822 64.7309L68.9732 64.2769L67.0564 60.5151L66.1654 60.9691ZM68.1741 64.1503L61.9666 70.3579L62.6737 71.065L68.8813 64.8575L68.1741 64.1503ZM62.5471 70.266L58.7853 68.3492L58.3313 69.2402L62.0931 71.157L62.5471 70.266ZM58.3152 68.3577C57.6951 68.7027 57.0524 69.0077 56.3948 69.2807L56.7781 70.2043C57.4662 69.9187 58.1437 69.5975 58.8014 69.2316L58.3152 68.3577ZM56.3983 69.2793C55.7343 69.549 55.0638 69.789 54.3738 69.9956L54.6606 70.9536C55.3841 70.737 56.0846 70.4861 56.7747 70.2057L56.3983 69.2793ZM54.0418 70.3199L52.7385 74.3271L53.6895 74.6364L54.9927 70.6292L54.0418 70.3199ZM53.214 73.9817H44.4337V74.9817H53.214V73.9817ZM44.9092 74.3271L43.6059 70.3199L42.6549 70.6292L43.9582 74.6364L44.9092 74.3271ZM43.1304 69.9746H43.1262V70.9746H43.1304V69.9746ZM43.2685 69.9952C42.5873 69.7929 41.9141 69.5534 41.2572 69.2807L40.8738 70.2043C41.5625 70.4902 42.2686 70.7415 42.9838 70.9539L43.2685 69.9952ZM41.2562 69.2803C40.5951 69.0076 39.9522 68.7025 39.3271 68.357L38.8434 69.2323C39.5045 69.5977 40.1819 69.9189 40.8748 70.2047L41.2562 69.2803ZM38.8582 68.3492L35.0964 70.266L35.5504 71.157L39.3122 69.2402L38.8582 68.3492ZM35.677 70.3579L29.4694 64.1503L28.7623 64.8575L34.9698 71.065L35.677 70.3579ZM29.5613 64.7309L31.4781 60.9691L30.5871 60.5151L28.6703 64.2769L29.5613 64.7309ZM31.4708 60.5012C31.1283 59.8782 30.8189 59.2345 30.5466 58.5786L29.623 58.9619C29.9093 59.6516 30.2345 60.3281 30.5945 60.9829L31.4708 60.5012ZM30.546 58.5771C30.2695 57.9169 30.0306 57.2453 29.8331 56.5621L28.8724 56.8399C29.0811 57.5618 29.3331 58.2696 29.6236 58.9634L30.546 58.5771ZM29.5074 56.2255L25.5002 54.9223L25.1909 55.8732L29.1981 57.1765L29.5074 56.2255ZM25.8456 55.3977V46.6217H24.8456V55.3977H25.8456ZM25.4993 47.0974L29.5192 45.7984L29.2117 44.8469L25.1918 46.1459L25.4993 47.0974ZM29.8457 45.4615C30.0438 44.7767 30.2787 44.1051 30.5544 43.4465L29.632 43.0603C29.3408 43.7558 29.0933 44.4637 28.8851 45.1837L29.8457 45.4615ZM30.555 43.4451C30.8267 42.7907 31.1401 42.147 31.4835 41.5224L30.6071 41.0407C30.248 41.6939 29.9183 42.3705 29.6314 43.0617L30.555 43.4451ZM31.4908 41.0546L29.574 37.2927L28.683 37.7467L30.5998 41.5086L31.4908 41.0546ZM29.482 37.8733L35.6896 31.6657L34.9825 30.9586L28.7749 37.1662L29.482 37.8733ZM35.1091 31.7577L38.8709 33.6745L39.3249 32.7835L35.5631 30.8667L35.1091 31.7577ZM39.5979 33.229V33.2248H38.5979V33.229H39.5979ZM39.3387 33.6629C39.9603 33.3213 40.6045 33.0155 41.2639 32.7377L40.8756 31.8161C40.1893 32.1053 39.5133 32.4258 38.857 32.7866L39.3387 33.6629ZM41.2579 32.7401C41.9214 32.4706 42.5955 32.2308 43.2805 32.0286L42.9974 31.0695C42.2774 31.282 41.5721 31.5331 40.8815 31.8137L41.2579 32.7401ZM43.6147 31.703L44.9137 27.6874L43.9623 27.3796L42.6632 31.3952L43.6147 31.703ZM44.438 28.0335H53.2183V27.0335H44.438V28.0335ZM52.7428 27.6881L54.0461 31.6953L54.997 31.386L53.6938 27.3788L52.7428 27.6881ZM54.5216 32.0406H54.5258V31.0406H54.5216V32.0406ZM54.3808 32.0192C55.0662 32.2269 55.7447 32.4628 56.4044 32.7349L56.7857 31.8105C56.0913 31.524 55.3817 31.2776 54.6708 31.0621L54.3808 32.0192ZM56.4033 32.7345C57.0593 33.0068 57.703 33.3162 58.326 33.6587L58.8077 32.7824C58.1529 32.4224 57.4764 32.0972 56.7867 31.8109L56.4033 32.7345ZM58.2174 32.8629L58.2131 32.8671L58.912 33.5824L58.9163 33.5782L58.2174 32.8629ZM62.517 89.1408L62.5128 89.1365L61.8057 89.8437L61.8099 89.8479L62.517 89.1408ZM61.6593 89.4901C61.6593 96.5808 55.9126 102.324 48.8255 102.324V103.324C56.4647 103.324 62.6593 97.1333 62.6593 89.4901H61.6593ZM48.8258 102.324C41.7347 102.32 35.9917 96.5729 35.9917 89.4868H34.9917C34.9917 97.1252 41.1823 103.319 48.8252 103.324L48.8258 102.324ZM35.9917 89.4868V86.3175H34.9917V89.4868H35.9917ZM35.9916 86.3298C36.0346 84.587 35.0461 82.9886 33.4771 82.2398L33.0464 83.1423C34.2617 83.7223 35.0251 84.9589 34.9919 86.3051L35.9916 86.3298ZM33.4869 82.2446C27.8232 79.3877 23.0644 75.0169 19.7316 69.62L18.8808 70.1454C22.3104 75.6991 27.2076 80.1972 33.0366 83.1375L33.4869 82.2446ZM19.7322 69.621C14.903 61.7597 13.4599 52.2806 15.7287 43.3392L14.7594 43.0933C12.4243 52.2964 13.9095 62.053 18.8802 70.1444L19.7322 69.621ZM15.7287 43.3392C17.9973 34.3979 23.7859 26.758 31.7762 22.149L31.2766 21.2827C23.0526 26.0265 17.0945 33.8901 14.7594 43.0933L15.7287 43.3392ZM31.7759 22.1491C39.7707 17.545 49.2871 16.3689 58.1622 18.892L58.4357 17.9301C49.3007 15.3331 39.5056 16.5437 31.2769 21.2826L31.7759 22.1491ZM58.1624 18.892C67.0327 21.4109 74.5096 27.4163 78.8847 35.5361L79.7651 35.0618C75.2618 26.7041 67.5659 20.5228 58.4356 17.9301L58.1624 18.892ZM78.8848 35.5363C83.2637 43.656 84.1687 53.2021 81.3954 62.0014L82.3492 62.302C85.2036 53.245 84.2722 43.4193 79.765 35.0616L78.8848 35.5363ZM81.3954 62.0014C78.622 70.801 72.4081 78.1033 64.1673 82.2445L64.6163 83.138C73.0988 78.8754 79.4946 71.3592 82.3492 62.302L81.3954 62.0014ZM64.1705 82.2429C63.4103 82.6183 62.7744 83.193 62.3197 83.9083L63.1636 84.4448C63.5213 83.8821 64.0193 83.4328 64.6132 83.1396L64.1705 82.2429ZM62.3139 83.9176C61.8765 84.6402 61.6482 85.4723 61.6577 86.3191L62.6576 86.3078C62.6502 85.648 62.8281 84.9992 63.1694 84.4354L62.3139 83.9176ZM61.6577 86.3135V89.4871H62.6577V86.3135H61.6577ZM61.7673 89.7995L61.7731 89.8068L62.5539 89.1819L62.548 89.1746L61.7673 89.7995ZM56.6306 97.2872C58.3416 95.5806 59.4456 93.3553 59.7648 90.9567L58.7735 90.8248C58.4834 93.0046 57.48 95.0276 55.9244 96.5792L56.6306 97.2872ZM59.2691 90.3907H38.3873V91.3907H59.2691V90.3907ZM37.8917 90.9573C38.4503 95.1153 41.3226 98.5945 45.298 99.9374L45.618 98.99C42.0022 97.7686 39.3906 94.6045 38.8828 90.8242L37.8917 90.9573ZM45.2978 99.9374C49.2696 101.281 53.6615 100.252 56.6308 97.287L55.9242 96.5794C53.2233 99.2762 49.2291 100.211 45.6182 98.9901L45.2978 99.9374ZM71.3628 28.7049H71.3543V29.7049H71.3628V28.7049ZM71.708 28.8515C65.0033 22.1425 55.6938 18.7129 46.2426 19.4693L46.3223 20.4661C55.4813 19.7331 64.5031 23.0566 71.0007 29.5584L71.708 28.8515ZM46.2428 19.4693C36.7873 20.2214 28.1402 25.0867 22.5872 32.7758L23.3979 33.3613C28.7792 25.9098 37.159 21.195 46.3221 20.4661L46.2428 19.4693ZM22.5872 32.7758C17.0343 40.4648 15.1305 50.2036 17.3825 59.4139L18.3539 59.1764C16.1715 50.2509 18.0164 40.8129 23.3979 33.3613L22.5872 32.7758ZM17.3825 59.4141C19.6389 68.6286 25.8192 76.3865 34.2943 80.6455L34.7434 79.752C26.5299 75.6244 20.5405 68.1062 18.3538 59.1763L17.3825 59.4141ZM34.2979 80.6472C36.4527 81.709 37.809 83.9113 37.7934 86.3141L38.7933 86.3206C38.8115 83.5357 37.2395 80.9819 34.7399 79.7502L34.2979 80.6472ZM37.7933 86.3174V88.0819H38.7933V86.3174H37.7933ZM38.2933 88.5819H59.3615V87.5819H38.2933V88.5819ZM59.8615 88.0819V86.3174H58.8615V88.0819H59.8615ZM59.8615 86.3141C59.8458 83.9113 61.202 81.709 63.357 80.6472L62.915 79.7502C60.4152 80.9819 58.8434 83.5358 58.8615 86.3206L59.8615 86.3141ZM63.3606 80.6454C72.644 75.9779 79.1206 67.1376 80.7754 56.8779L79.7881 56.7187C78.1845 66.6616 71.9079 75.2288 62.9114 79.752L63.3606 80.6454ZM80.7754 56.8779C82.43 46.6231 79.0562 36.1919 71.7068 28.8466L70.9999 29.5539C78.1221 36.6722 81.3916 46.781 79.7881 56.7186L80.7754 56.8779ZM71.1321 29.6486L71.1415 29.6533L71.584 28.7565L71.5746 28.7519L71.1321 29.6486Z" fill="url(#paint1_linear_491_569)" mask="url(#path-1-outside-1_491_569)"/>
<defs>
<linearGradient id="paint0_linear_491_569" x1="43.4401" y1="26.0293" x2="-4.60677" y2="144.206" gradientUnits="userSpaceOnUse">
<stop stop-color="#0BAA4B"/>
<stop offset="1" stop-color="#ACD6BD" stop-opacity="0.74"/>
</linearGradient>
<linearGradient id="paint1_linear_491_569" x1="43.4401" y1="26.0293" x2="-4.60677" y2="144.206" gradientUnits="userSpaceOnUse">
<stop stop-color="#0BAA4B"/>
<stop offset="1" stop-color="#ACD6BD" stop-opacity="0.74"/>
</linearGradient>
</defs>
</svg>
