<svg width="99" height="68" viewBox="0 0 99 68" fill="none" xmlns="http://www.w3.org/2000/svg">
<path d="M75.8045 37.3954C75.7185 37.4814 75.6209 37.5634 75.5193 37.6376L64.7813 45.3524C64.6993 45.411 64.6134 45.4618 64.5196 45.5126C63.4024 46.1063 62.0196 45.6884 61.4258 44.5712L55.1836 32.9152C55.125 32.8019 55.0742 32.6886 55.0352 32.5675C54.8086 31.8917 54.9492 31.1964 55.4297 30.6691C55.9102 30.1418 56.5859 29.9308 57.2813 30.091L62.7852 31.3683C62.1602 24.4621 59.1016 18.2593 54.4688 13.6263C49.2579 8.41539 42.0588 5.18879 34.1018 5.18879C26.1487 5.18879 18.9458 8.41539 13.7348 13.6263C8.5239 18.8372 5.2973 26.0403 5.2973 33.9933C5.2973 41.0558 7.8246 47.5133 12.0278 52.5163C16.3012 57.6022 22.3008 61.1882 29.1298 62.3718C30.3759 62.5866 31.2196 63.7702 31.0048 65.0163C30.79 66.2663 29.6064 67.1061 28.3603 66.8913C20.4501 65.5163 13.4893 61.3561 8.5283 55.4533C3.64549 49.6408 0.700195 42.1523 0.700195 33.9883C0.700195 24.7656 4.4385 16.4183 10.4814 10.3713C16.5283 4.32439 24.8764 0.590088 34.0984 0.590088C43.3204 0.590088 51.6684 4.32839 57.7154 10.3713C63.4224 16.0783 67.0709 23.8403 67.4615 32.4453L74.8795 34.168C75.5748 34.3281 76.0904 34.8203 76.2857 35.5078C76.4849 36.1953 76.3052 36.8828 75.8013 37.3906L75.8045 37.3954ZM23.6055 30.5907C23.6914 30.5048 23.7891 30.4228 23.8906 30.3485L34.6286 22.6337C34.7107 22.5751 34.7966 22.5244 34.8904 22.4736C36.0076 21.8798 37.3904 22.2978 37.9842 23.415L44.2264 35.071C44.285 35.1843 44.3357 35.2975 44.3748 35.4186C44.6014 36.0944 44.4607 36.7897 43.9803 37.317C43.4998 37.8444 42.8241 38.0553 42.1287 37.8952L36.6248 36.6179C37.2498 43.5241 40.3084 49.7269 44.9412 54.3599C50.1521 59.5708 57.3512 62.7974 65.3082 62.7974C73.2613 62.7974 80.4642 59.5708 85.6752 54.3599C90.8861 49.149 94.1127 41.9459 94.1127 33.9929C94.1127 26.9304 91.5854 20.4729 87.3822 15.4699C83.1088 10.384 77.1092 6.79797 70.2802 5.61437C69.0341 5.39953 68.1904 4.21597 68.4052 2.96987C68.62 1.71987 69.8036 0.880068 71.0497 1.09487C78.9599 2.46987 85.9207 6.63007 90.8817 12.5329C95.7645 18.3454 98.7098 25.8339 98.7098 33.9979C98.7098 43.2206 94.9715 51.5679 88.9286 57.6149C82.8817 63.6618 74.5336 67.3961 65.3116 67.3961C56.0889 67.3961 47.7416 63.6578 41.6946 57.6149C35.9876 51.9079 32.3391 44.1459 31.9485 35.5409L24.5305 33.8182C23.8352 33.658 23.3196 33.1658 23.1243 32.4784C22.9251 31.7909 23.1047 31.1034 23.6087 30.5956L23.6055 30.5907Z" fill="url(#paint0_linear_491_584)"/>
<defs>
<linearGradient id="paint0_linear_491_584" x1="44.2427" y1="17.0962" x2="22.2094" y2="101.547" gradientUnits="userSpaceOnUse">
<stop stop-color="#0BAA4B"/>
<stop offset="1" stop-color="#ACD6BD" stop-opacity="0.74"/>
</linearGradient>
</defs>
</svg>
