<svg width="82" height="82" viewBox="0 0 82 82" fill="none" xmlns="http://www.w3.org/2000/svg">
<path d="M26.4138 42.9641L5.35367 21.8049C5.14902 21.6003 5.03164 21.3587 4.95692 21.0972L4.95522 21.0912L4.95529 21.0912L0.657771 4.50077L0.656099 4.49431L0.656185 4.49429C0.539006 3.98652 0.656226 3.46882 1.01379 3.07153L1.02259 3.06175L1.03237 3.05295C1.4063 2.71641 1.91755 2.50691 2.44964 2.62746L20.0012 5.89131L20.0128 5.89347L20.0241 5.89672C20.2787 5.96944 20.5569 6.08518 20.7985 6.32678L20.7989 6.32718L42.4178 28.0452L46.8741 23.994C44.2603 17.691 45.4639 11.124 50.295 6.35947C52.8725 3.78227 56.3803 2.29129 59.9865 1.6188C63.5935 0.946163 67.318 1.08857 70.3499 1.796C70.8711 1.91652 71.308 2.3164 71.4662 2.87027C71.6254 3.4272 71.4644 3.98642 71.07 4.38113C71.0698 4.38131 71.0697 4.38148 71.0695 4.38166L59.8765 15.6413L59.876 15.6418C59.5072 16.0106 59.5072 16.5852 59.876 16.954L59.8765 16.9545L65.5325 22.6438C65.7294 22.81 65.9703 22.9106 66.1954 22.9106C66.4686 22.9106 66.6693 22.8327 66.8512 22.651L26.4138 42.9641ZM26.4138 42.9641L14.0333 53.1501L14.0332 53.1502C13.361 53.7038 13.2756 54.6648 13.8374 55.3068L13.8387 55.3082C14.1497 55.6582 14.5828 55.8585 15.025 55.8585C15.388 55.8585 15.7059 55.7351 16.0078 55.5087L16.008 55.5089L16.0169 55.5016L28.6004 45.1194L38.0655 54.6489L17.0865 77.412C16.8321 77.6112 15.7264 78.3741 14.0169 78.4329C12.2832 78.4925 9.88239 77.8295 7.07372 75.0211C4.34955 72.2639 3.77034 69.9246 3.88924 68.2481C4.00743 66.5816 4.81868 65.5229 5.00707 65.3141L9.19305 61.56C9.19342 61.5597 9.19379 61.5594 9.19416 61.5591C9.83587 60.9965 9.86831 60.0056 9.31651 59.375C8.75408 58.7322 7.76246 58.6994 7.13146 59.2515L7.13054 59.2523L2.83302 63.0501L2.82725 63.0552L2.8218 63.0607L2.77183 63.1107L2.72185 63.1606L2.7217 63.1605L2.71459 63.1682C1.72555 64.244 0.716179 66.2026 0.724741 68.6685C0.733331 71.1425 1.76609 74.1016 4.82015 77.1725L4.82064 77.173C8.15797 80.5103 11.2174 81.5104 13.6591 81.5104C15.3038 81.5104 16.6484 81.065 17.5858 80.6155C18.5175 80.1688 19.0588 79.7122 19.0995 79.6715L26.4138 42.9641ZM49.7746 25.5097L49.7724 25.5117L44.5707 30.1997L51.8667 37.5274L56.7201 32.4491L56.724 32.445L56.724 32.445C57.1986 31.9705 57.9112 31.8514 58.5056 32.1288L58.5112 32.1314L58.5112 32.1314C63.9157 34.8173 69.5617 33.9318 73.6469 29.8139L73.6476 29.8132C76.213 27.2478 78.4395 21.9592 77.9546 15.7873L69.0043 24.7696L68.9999 24.774L68.9999 24.774C68.2241 25.5145 67.2307 25.9425 66.1621 25.9425C65.0623 25.9425 64.0662 25.5158 63.3202 24.7699L63.3197 24.7694L57.6568 19.0732L49.7746 25.5097ZM49.7746 25.5097C50.2922 25.0319 50.4063 24.316 50.1339 23.6934L50.1341 23.6933M49.7746 25.5097L50.1341 23.6933M50.1341 23.6933L50.1295 23.6839M50.1341 23.6933L50.1295 23.6839M50.1295 23.6839C47.4754 18.2447 48.362 12.5642 52.4469 8.47929C55.0475 5.8787 60.4422 3.64814 66.7529 4.29459M50.1295 23.6839L66.7529 4.29459M66.7529 4.29459L57.6568 13.4227C56.0935 14.986 56.0934 17.5092 57.6563 19.0727L66.7529 4.29459ZM77.9782 11.4907L66.8515 22.6507L80.3206 12.3002L80.5651 12.2478C80.565 12.2477 80.565 12.2475 80.565 12.2474C80.446 11.6929 80.0469 11.2529 79.4898 11.0937C78.9326 10.9345 78.3732 11.0957 77.9784 11.4905L77.9782 11.4907ZM74.913 65.1128L74.9145 65.1142C77.9799 68.1474 77.9812 73.152 74.9135 76.2198C73.428 77.7052 71.4595 78.5118 69.3936 78.5118C67.2951 78.5118 65.3599 77.7058 63.8741 76.2202L63.8736 76.2198L7.85402 19.9006L4.23973 6.0888L18.9336 8.83381L74.913 65.1128Z" fill="url(#paint0_linear_491_576)" stroke="url(#paint1_linear_491_576)" stroke-width="0.5"/>
<path d="M18.167 16.8208L18.1675 16.8212L68.1382 67.0252L68.1386 67.0256M18.167 16.8208L66.1625 69.0342C66.429 69.3007 66.7621 69.4007 67.0619 69.4007C67.3951 69.4007 67.7282 69.2674 67.9614 69.0342C68.4611 68.5345 68.4611 67.7017 67.9614 67.2019L68.1386 67.0256M18.167 16.8208C17.5697 16.2235 16.5786 16.2235 15.9812 16.8208C15.3839 17.4181 15.3839 18.4091 15.981 19.0064L15.9809 19.0063L16.158 18.8299L15.9812 19.0066M18.167 16.8208L15.9812 19.0066M68.1386 67.0256C68.7355 67.623 68.7354 68.6138 68.1382 69.211C67.8562 69.493 67.4586 69.6507 67.0619 69.6507C66.7074 69.6507 66.3067 69.532 65.9857 69.211L65.9853 69.2106L15.9812 19.0066M68.1386 67.0256L15.9812 19.0066" fill="url(#paint2_linear_491_576)" stroke="url(#paint3_linear_491_576)" stroke-width="0.5"/>
<defs>
<linearGradient id="paint0_linear_491_576" x1="36.4002" y1="21.1811" x2="0.394184" y2="115.326" gradientUnits="userSpaceOnUse">
<stop stop-color="#0BAA4B"/>
<stop offset="1" stop-color="#ACD6BD" stop-opacity="0.74"/>
</linearGradient>
<linearGradient id="paint1_linear_491_576" x1="36.4002" y1="21.1811" x2="0.394184" y2="115.326" gradientUnits="userSpaceOnUse">
<stop stop-color="#0BAA4B"/>
<stop offset="1" stop-color="#ACD6BD" stop-opacity="0.74"/>
</linearGradient>
<linearGradient id="paint2_linear_491_576" x1="39.1308" y1="29.6629" x2="15.2653" y2="91.7484" gradientUnits="userSpaceOnUse">
<stop stop-color="#0BAA4B"/>
<stop offset="1" stop-color="#ACD6BD" stop-opacity="0.74"/>
</linearGradient>
<linearGradient id="paint3_linear_491_576" x1="39.1308" y1="29.6629" x2="15.2653" y2="91.7484" gradientUnits="userSpaceOnUse">
<stop stop-color="#0BAA4B"/>
<stop offset="1" stop-color="#ACD6BD" stop-opacity="0.74"/>
</linearGradient>
</defs>
</svg>
